<?xml version="1.0" encoding="utf-8" standalone="no"?>
<!DOCTYPE svg PUBLIC "-//W3C//DTD SVG 1.1//EN"
  "http://www.w3.org/Graphics/SVG/1.1/DTD/svg11.dtd">
<svg xmlns:xlink="http://www.w3.org/1999/xlink" width="460.8pt" height="345.6pt" viewBox="0 0 460.8 345.6" xmlns="http://www.w3.org/2000/svg" version="1.1">
 <metadata>
  <rdf:RDF xmlns:dc="http://purl.org/dc/elements/1.1/" xmlns:cc="http://creativecommons.org/ns#" xmlns:rdf="http://www.w3.org/1999/02/22-rdf-syntax-ns#">
   <cc:Work>
    <dc:type rdf:resource="http://purl.org/dc/dcmitype/StillImage"/>
    <dc:date>2024-03-16T13:54:01.272645</dc:date>
    <dc:format>image/svg+xml</dc:format>
    <dc:creator>
     <cc:Agent>
      <dc:title>Matplotlib v3.8.3, https://matplotlib.org/</dc:title>
     </cc:Agent>
    </dc:creator>
   </cc:Work>
  </rdf:RDF>
 </metadata>
 <defs>
  <style type="text/css">*{stroke-linejoin: round; stroke-linecap: butt}</style>
 </defs>
 <g id="figure_1">
  <g id="patch_1">
   <path d="M 0 345.6 
L 460.8 345.6 
L 460.8 0 
L 0 0 
z
" style="fill: #ffffff"/>
  </g>
  <g id="axes_1">
   <g id="patch_2">
    <path d="M 57.6 148.293818 
L 135.234783 148.293818 
L 135.234783 41.472 
L 57.6 41.472 
z
" style="fill: #ffffff"/>
   </g>
   <g id="matplotlib.axis_1">
    <g id="xtick_1">
     <g id="line2d_1">
      <defs>
       <path id="m1f3af5ba9d" d="M 0 0 
L 0 2 
" style="stroke: #000000; stroke-width: 0.6"/>
      </defs>
      <g>
       <use xlink:href="#m1f3af5ba9d" x="58.675274" y="148.293818" style="stroke: #000000; stroke-width: 0.6"/>
      </g>
     </g>
    </g>
    <g id="xtick_2">
     <g id="line2d_2">
      <g>
       <use xlink:href="#m1f3af5ba9d" x="101.686234" y="148.293818" style="stroke: #000000; stroke-width: 0.6"/>
      </g>
     </g>
    </g>
   </g>
   <g id="matplotlib.axis_2">
    <g id="ytick_1">
     <g id="line2d_3">
      <defs>
       <path id="m04a64f854b" d="M 0 0 
L -2 0 
" style="stroke: #000000; stroke-width: 0.6"/>
      </defs>
      <g>
       <use xlink:href="#m04a64f854b" x="57.6" y="148.102989" style="stroke: #000000; stroke-width: 0.6"/>
      </g>
     </g>
    </g>
    <g id="ytick_2">
     <g id="line2d_4">
      <g>
       <use xlink:href="#m04a64f854b" x="57.6" y="105.696551" style="stroke: #000000; stroke-width: 0.6"/>
      </g>
     </g>
    </g>
    <g id="ytick_3">
     <g id="line2d_5">
      <g>
       <use xlink:href="#m04a64f854b" x="57.6" y="63.290113" style="stroke: #000000; stroke-width: 0.6"/>
      </g>
     </g>
    </g>
   </g>
   <g id="line2d_6">
    <path d="M 57.6 143.438281 
L 58.03011 143.438281 
L 58.460219 143.014217 
L 59.105384 142.166088 
L 59.320438 142.166088 
L 59.535493 142.37812 
L 59.750548 142.166088 
L 60.825822 140.257798 
L 61.040877 140.46983 
L 61.255932 140.46983 
L 61.470986 140.681862 
L 62.116151 139.833734 
L 62.331206 139.833734 
L 62.54626 139.621702 
L 62.761315 138.985605 
L 62.97637 138.985605 
L 63.621534 137.713412 
L 63.836589 137.925444 
L 64.051644 138.561541 
L 64.266699 137.925444 
L 64.481754 136.229186 
L 65.341973 135.59309 
L 65.557028 136.017154 
L 65.772082 132.412607 
L 65.987137 133.048704 
L 66.632302 131.988543 
L 67.277466 134.320897 
L 67.492521 134.320897 
L 68.567795 132.412607 
L 68.78285 134.320897 
L 68.997904 133.048704 
L 69.643069 133.472768 
L 69.858124 135.381058 
L 70.073178 133.6848 
L 70.288233 133.472768 
L 70.503288 133.472768 
L 71.148452 132.200575 
L 71.363507 132.836671 
L 71.578562 132.200575 
L 71.793617 132.200575 
L 72.653836 129.868221 
L 73.083946 129.868221 
L 73.299 130.928382 
L 73.514055 130.504317 
L 74.15922 127.959931 
L 74.374274 127.747899 
L 74.589329 128.383995 
L 74.804384 127.747899 
L 75.019439 126.687738 
L 75.664603 125.203513 
L 76.094713 126.051641 
L 77.169987 123.931319 
L 77.385042 124.143352 
L 77.600096 123.719287 
L 77.815151 123.719287 
L 78.030206 122.871158 
L 78.67537 122.02303 
L 78.890425 122.659126 
L 79.10548 122.659126 
L 79.320535 121.598965 
L 80.395809 120.962869 
L 80.610864 120.750836 
L 81.040973 119.690676 
L 81.686138 117.994418 
L 82.116247 118.630515 
L 82.331302 118.842547 
L 83.191521 116.510193 
L 83.406576 117.358321 
L 83.621631 117.570354 
L 83.836686 119.054579 
L 84.05174 118.20645 
L 84.91196 117.570354 
L 85.127014 117.782386 
L 85.342069 117.570354 
L 85.557124 116.934257 
L 86.417343 114.813935 
L 86.632398 115.025967 
L 86.847453 115.874096 
L 87.062508 116.086128 
L 87.707672 114.813935 
L 87.922727 115.662064 
L 88.137782 115.874096 
L 88.352836 115.874096 
L 88.567891 115.450032 
L 89.42811 113.32971 
L 89.643165 113.541742 
L 89.85822 113.32971 
L 90.073275 112.481581 
L 91.363604 109.725163 
L 91.578658 106.120615 
L 92.223823 100.395746 
L 92.438878 96.579167 
L 92.868987 100.607778 
L 93.084042 100.395746 
L 93.944261 95.94307 
L 94.159316 97.215263 
L 94.374371 96.367134 
L 94.589426 94.882909 
L 95.23459 93.822748 
L 95.449645 94.03478 
L 95.6647 94.03478 
L 95.879754 94.882909 
L 96.094809 94.670877 
L 96.955028 93.186652 
L 97.600193 91.278362 
L 98.245357 88.946008 
L 98.460412 89.15804 
L 98.675467 85.34146 
L 98.890521 85.977557 
L 99.105576 85.765525 
L 99.965795 83.221139 
L 100.18085 83.645203 
L 100.61096 85.129428 
L 101.256124 83.221139 
L 101.471179 84.2813 
L 101.686234 85.977557 
L 101.901289 86.613654 
L 102.116343 86.401621 
L 102.761508 85.34146 
L 102.976563 84.493332 
L 103.191617 84.493332 
L 103.406672 84.917396 
L 103.621727 82.37301 
L 104.481946 81.100817 
L 104.697001 81.736913 
L 104.912056 82.797074 
L 105.127111 81.736913 
L 105.772275 81.736913 
L 105.98733 81.948945 
L 106.202385 81.312849 
L 106.417439 81.948945 
L 106.632494 81.100817 
L 107.277659 79.616591 
L 107.492713 80.040656 
L 107.707768 78.55643 
L 107.922823 79.192527 
L 108.137878 78.980495 
L 108.783042 77.708302 
L 108.998097 77.920334 
L 109.213152 77.708302 
L 109.428207 77.284237 
L 109.643261 77.496269 
L 110.93359 75.163915 
L 111.148645 73.467658 
L 111.793809 72.619529 
L 112.008864 68.590917 
L 112.223919 68.378885 
L 112.438974 67.954821 
L 112.654029 68.166853 
L 113.299193 66.046531 
L 113.514248 66.258563 
L 113.729303 66.258563 
L 113.944357 66.046531 
L 114.159412 66.470595 
L 114.804577 64.350273 
L 115.234686 66.046531 
L 115.449741 66.046531 
L 115.664796 64.98637 
L 116.74007 63.290113 
L 117.170179 61.381823 
L 118.030399 59.685565 
L 118.245453 59.897597 
L 118.460508 56.929147 
L 118.675563 56.717115 
L 119.320727 55.232889 
L 119.535782 55.020857 
L 119.965892 53.112567 
L 120.180947 54.172728 
L 120.826111 52.264439 
L 121.256221 53.3246 
L 121.471275 53.960696 
L 121.68633 52.476471 
L 122.546549 50.992245 
L 122.761604 51.204278 
L 122.976659 51.204278 
L 123.191714 51.628342 
L 123.836878 50.144117 
L 124.266988 50.780213 
L 124.482043 52.264439 
L 125.342262 51.628342 
L 125.557317 51.840374 
L 125.772371 51.840374 
L 126.202481 50.356149 
L 126.847645 49.50802 
L 127.0627 48.871923 
L 127.277755 49.083956 
L 127.707865 49.083956 
L 128.353029 48.023795 
L 128.568084 48.023795 
L 128.783139 48.447859 
L 128.998193 49.50802 
L 129.213248 49.50802 
L 129.858413 47.811763 
L 130.073467 47.59973 
L 130.503577 48.235827 
L 130.718632 48.023795 
L 131.363796 46.751602 
L 131.578851 48.447859 
L 131.793906 48.871923 
L 132.008961 48.447859 
L 132.224015 48.871923 
L 132.86918 48.235827 
L 133.084235 48.447859 
L 133.299289 49.083956 
L 133.514344 49.295988 
L 133.729399 49.083956 
L 134.589618 47.175666 
L 134.804673 47.387698 
L 135.019728 47.811763 
L 135.234783 47.175666 
L 135.234783 47.175666 
" clip-path="url(#pbc23ed5647)" style="fill: none; stroke: #1f77b4; stroke-width: 1.5; stroke-linecap: square"/>
   </g>
   <g id="patch_3">
    <path d="M 57.6 148.293818 
L 57.6 41.472 
" style="fill: none; stroke: #000000; stroke-width: 0.8; stroke-linejoin: miter; stroke-linecap: square"/>
   </g>
   <g id="patch_4">
    <path d="M 135.234783 148.293818 
L 135.234783 41.472 
" style="fill: none; stroke: #000000; stroke-width: 0.8; stroke-linejoin: miter; stroke-linecap: square"/>
   </g>
   <g id="patch_5">
    <path d="M 57.6 148.293818 
L 135.234783 148.293818 
" style="fill: none; stroke: #000000; stroke-width: 0.8; stroke-linejoin: miter; stroke-linecap: square"/>
   </g>
   <g id="patch_6">
    <path d="M 57.6 41.472 
L 135.234783 41.472 
" style="fill: none; stroke: #000000; stroke-width: 0.8; stroke-linejoin: miter; stroke-linecap: square"/>
   </g>
   <g id="legend_1">
    <g id="patch_7">
     <path d="M 67.123845 103.721972 
L 128.234783 103.721972 
Q 130.234783 103.721972 130.234783 101.721972 
L 130.234783 88.043847 
Q 130.234783 86.043847 128.234783 86.043847 
L 67.123845 86.043847 
Q 65.123845 86.043847 65.123845 88.043847 
L 65.123845 101.721972 
Q 65.123845 103.721972 67.123845 103.721972 
z
" style="fill: #ffffff; opacity: 0.8; stroke: #cccccc; stroke-linejoin: miter"/>
    </g>
    <g id="line2d_7">
     <path d="M 69.123845 94.142284 
L 79.123845 94.142284 
L 89.123845 94.142284 
" style="fill: none; stroke: #1f77b4; stroke-width: 1.5; stroke-linecap: square"/>
    </g>
    <g id="text_1">
     <!-- 0.5 yr -->
     <g transform="translate(97.123845 97.642284) scale(0.1 -0.1)">
      <defs>
       <path id="DejaVuSans-30" d="M 2034 4250 
Q 1547 4250 1301 3770 
Q 1056 3291 1056 2328 
Q 1056 1369 1301 889 
Q 1547 409 2034 409 
Q 2525 409 2770 889 
Q 3016 1369 3016 2328 
Q 3016 3291 2770 3770 
Q 2525 4250 2034 4250 
z
M 2034 4750 
Q 2819 4750 3233 4129 
Q 3647 3509 3647 2328 
Q 3647 1150 3233 529 
Q 2819 -91 2034 -91 
Q 1250 -91 836 529 
Q 422 1150 422 2328 
Q 422 3509 836 4129 
Q 1250 4750 2034 4750 
z
" transform="scale(0.015625)"/>
       <path id="DejaVuSans-2e" d="M 684 794 
L 1344 794 
L 1344 0 
L 684 0 
L 684 794 
z
" transform="scale(0.015625)"/>
       <path id="DejaVuSans-35" d="M 691 4666 
L 3169 4666 
L 3169 4134 
L 1269 4134 
L 1269 2991 
Q 1406 3038 1543 3061 
Q 1681 3084 1819 3084 
Q 2600 3084 3056 2656 
Q 3513 2228 3513 1497 
Q 3513 744 3044 326 
Q 2575 -91 1722 -91 
Q 1428 -91 1123 -41 
Q 819 9 494 109 
L 494 744 
Q 775 591 1075 516 
Q 1375 441 1709 441 
Q 2250 441 2565 725 
Q 2881 1009 2881 1497 
Q 2881 1984 2565 2268 
Q 2250 2553 1709 2553 
Q 1456 2553 1204 2497 
Q 953 2441 691 2322 
L 691 4666 
z
" transform="scale(0.015625)"/>
       <path id="DejaVuSans-20" transform="scale(0.015625)"/>
       <path id="DejaVuSans-79" d="M 2059 -325 
Q 1816 -950 1584 -1140 
Q 1353 -1331 966 -1331 
L 506 -1331 
L 506 -850 
L 844 -850 
Q 1081 -850 1212 -737 
Q 1344 -625 1503 -206 
L 1606 56 
L 191 3500 
L 800 3500 
L 1894 763 
L 2988 3500 
L 3597 3500 
L 2059 -325 
z
" transform="scale(0.015625)"/>
       <path id="DejaVuSans-72" d="M 2631 2963 
Q 2534 3019 2420 3045 
Q 2306 3072 2169 3072 
Q 1681 3072 1420 2755 
Q 1159 2438 1159 1844 
L 1159 0 
L 581 0 
L 581 3500 
L 1159 3500 
L 1159 2956 
Q 1341 3275 1631 3429 
Q 1922 3584 2338 3584 
Q 2397 3584 2469 3576 
Q 2541 3569 2628 3553 
L 2631 2963 
z
" transform="scale(0.015625)"/>
      </defs>
      <use xlink:href="#DejaVuSans-30"/>
      <use xlink:href="#DejaVuSans-2e" x="63.623047"/>
      <use xlink:href="#DejaVuSans-35" x="95.410156"/>
      <use xlink:href="#DejaVuSans-20" x="159.033203"/>
      <use xlink:href="#DejaVuSans-79" x="190.820312"/>
      <use xlink:href="#DejaVuSans-72" x="250"/>
     </g>
    </g>
   </g>
  </g>
  <g id="axes_2">
   <g id="patch_8">
    <path d="M 150.761739 148.293818 
L 228.396522 148.293818 
L 228.396522 41.472 
L 150.761739 41.472 
z
" style="fill: #ffffff"/>
   </g>
   <g id="matplotlib.axis_3">
    <g id="xtick_3">
     <g id="line2d_8">
      <g>
       <use xlink:href="#m1f3af5ba9d" x="151.837013" y="148.293818" style="stroke: #000000; stroke-width: 0.6"/>
      </g>
     </g>
    </g>
    <g id="xtick_4">
     <g id="line2d_9">
      <g>
       <use xlink:href="#m1f3af5ba9d" x="194.847973" y="148.293818" style="stroke: #000000; stroke-width: 0.6"/>
      </g>
     </g>
    </g>
   </g>
   <g id="matplotlib.axis_4">
    <g id="ytick_4">
     <g id="line2d_10">
      <g>
       <use xlink:href="#m04a64f854b" x="150.761739" y="148.102989" style="stroke: #000000; stroke-width: 0.6"/>
      </g>
     </g>
    </g>
    <g id="ytick_5">
     <g id="line2d_11">
      <g>
       <use xlink:href="#m04a64f854b" x="150.761739" y="105.696551" style="stroke: #000000; stroke-width: 0.6"/>
      </g>
     </g>
    </g>
    <g id="ytick_6">
     <g id="line2d_12">
      <g>
       <use xlink:href="#m04a64f854b" x="150.761739" y="63.290113" style="stroke: #000000; stroke-width: 0.6"/>
      </g>
     </g>
    </g>
   </g>
   <g id="line2d_13">
    <path d="M 150.761739 139.621702 
L 150.976794 140.045766 
L 151.406904 138.561541 
L 151.621958 138.985605 
L 152.267123 138.349508 
L 152.482178 138.349508 
L 152.697232 137.925444 
L 152.912287 138.137476 
L 153.127342 137.289347 
L 153.987561 135.805122 
L 154.202616 136.017154 
L 154.417671 135.381058 
L 154.632726 135.805122 
L 155.27789 135.805122 
L 155.708 133.260736 
L 155.923054 132.200575 
L 156.138109 132.200575 
L 156.783274 131.564478 
L 156.998328 131.564478 
L 157.213383 131.988543 
L 157.428438 131.564478 
L 157.643493 129.232124 
L 158.288657 129.444156 
L 158.503712 128.80806 
L 158.718767 128.80806 
L 158.933822 123.931319 
L 159.148876 125.415545 
L 159.794041 124.143352 
L 160.22415 124.99148 
L 160.65426 126.263673 
L 161.514479 123.295223 
L 161.729534 123.507255 
L 161.944589 125.203513 
L 162.159644 124.143352 
L 162.804808 126.687738 
L 163.019863 128.80806 
L 163.234917 125.627577 
L 163.449972 125.203513 
L 163.665027 125.839609 
L 164.310191 125.415545 
L 164.740301 123.719287 
L 165.170411 122.235062 
L 165.815575 120.962869 
L 166.03063 120.962869 
L 166.245685 119.478643 
L 166.460739 120.538804 
L 166.675794 120.750836 
L 167.320959 118.418482 
L 167.536013 114.389871 
L 167.751068 115.874096 
L 167.966123 115.237999 
L 168.181178 112.693613 
L 168.826342 112.269549 
L 169.471507 113.541742 
L 169.686561 111.633452 
L 170.331726 111.633452 
L 170.546781 110.573291 
L 170.761835 110.149227 
L 170.97689 110.361259 
L 171.191945 109.725163 
L 171.837109 108.877034 
L 172.052164 110.573291 
L 172.267219 110.361259 
L 172.482274 109.089066 
L 173.342493 109.089066 
L 173.557548 106.968744 
L 173.772603 107.180776 
L 174.202712 104.424358 
L 174.847877 105.060454 
L 175.277986 106.332647 
L 175.708096 103.576229 
L 176.35326 103.576229 
L 176.568315 102.304036 
L 176.78337 104.212326 
L 176.998425 104.000293 
L 177.213479 104.000293 
L 177.858644 105.908583 
L 178.073699 105.484519 
L 178.503808 106.54468 
L 178.718863 104.848422 
L 179.364027 104.212326 
L 179.579082 102.304036 
L 179.794137 102.304036 
L 180.224247 104.212326 
L 180.869411 103.788261 
L 181.084466 105.272486 
L 181.299521 105.484519 
L 181.514575 105.908583 
L 182.589849 104.000293 
L 182.804904 102.304036 
L 183.019959 102.516068 
L 183.235014 101.879971 
L 183.880178 100.81981 
L 184.310288 99.547617 
L 184.525343 98.275424 
L 184.740397 93.398684 
L 185.385562 86.825686 
L 185.600617 81.312849 
L 185.815671 85.977557 
L 186.030726 87.037718 
L 186.245781 87.461782 
L 187.106 86.189589 
L 187.321055 88.946008 
L 187.53611 89.15804 
L 187.751165 88.097879 
L 188.396329 86.825686 
L 188.611384 87.037718 
L 188.826439 87.037718 
L 189.041493 88.733976 
L 189.256548 88.946008 
L 190.116767 89.370072 
L 190.546877 87.24975 
L 190.761932 85.34146 
L 191.407096 85.129428 
L 191.837206 80.040656 
L 192.267315 81.948945 
L 192.91248 81.736913 
L 193.127535 80.676752 
L 193.342589 80.676752 
L 193.772699 84.2813 
L 194.417863 83.009106 
L 194.632918 83.221139 
L 195.063028 85.977557 
L 195.278083 84.917396 
L 195.923247 84.917396 
L 196.138302 82.585042 
L 196.353357 81.524881 
L 196.568411 82.160978 
L 196.783466 78.344398 
L 197.428631 78.132366 
L 197.643685 77.496269 
L 197.85874 78.980495 
L 198.073795 79.192527 
L 198.28885 78.980495 
L 198.934014 79.616591 
L 199.149069 78.980495 
L 199.364124 78.768463 
L 199.579179 79.404559 
L 200.439398 77.708302 
L 200.654453 78.344398 
L 200.869507 77.072205 
L 201.084562 77.496269 
L 201.299617 76.860173 
L 201.944781 75.375947 
L 202.159836 74.315786 
L 202.589946 73.67969 
L 202.805001 74.527819 
L 203.66522 71.559368 
L 203.880275 71.7714 
L 204.095329 71.7714 
L 204.310384 70.287175 
L 204.955549 69.651078 
L 205.170603 64.98637 
L 205.385658 64.350273 
L 205.600713 63.290113 
L 205.815768 64.138241 
L 206.460932 62.229952 
L 206.675987 62.654016 
L 206.891042 61.593855 
L 207.106097 61.593855 
L 207.321151 60.10963 
L 207.966316 59.685565 
L 208.181371 59.897597 
L 208.396425 63.502145 
L 208.61148 63.714177 
L 208.826535 62.229952 
L 209.471699 63.07808 
L 209.686754 60.10963 
L 209.901809 60.321662 
L 210.331919 58.20134 
L 211.192138 57.353211 
L 211.407193 57.353211 
L 211.622247 53.536632 
L 211.837302 52.688503 
L 212.697521 52.688503 
L 213.127631 49.295988 
L 213.342686 50.992245 
L 213.98785 50.356149 
L 214.202905 50.568181 
L 214.633015 52.688503 
L 214.848069 51.628342 
L 215.493234 49.295988 
L 215.708289 47.387698 
L 215.923343 47.175666 
L 216.138398 46.751602 
L 216.353453 47.175666 
L 216.998617 46.327537 
L 217.428727 47.387698 
L 217.643782 50.780213 
L 218.504001 49.932084 
L 218.719056 50.568181 
L 218.934111 50.144117 
L 219.36422 47.59973 
L 220.009385 47.387698 
L 220.224439 46.539569 
L 220.439494 47.387698 
L 220.869604 47.175666 
L 221.514768 47.175666 
L 221.729823 46.751602 
L 221.944878 47.59973 
L 222.159933 49.295988 
L 223.020152 46.963634 
L 223.450261 49.083956 
L 223.665316 48.235827 
L 224.525535 47.387698 
L 224.74059 49.720052 
L 224.955645 49.720052 
L 225.1707 49.50802 
L 225.385755 50.356149 
L 226.030919 49.720052 
L 226.245974 49.720052 
L 226.461029 50.568181 
L 226.891138 49.295988 
L 227.751357 47.387698 
L 227.966412 48.235827 
L 228.181467 48.235827 
L 228.396522 47.811763 
L 228.396522 47.811763 
" clip-path="url(#p95762c0628)" style="fill: none; stroke: #ff7f0e; stroke-width: 1.5; stroke-linecap: square"/>
   </g>
   <g id="patch_9">
    <path d="M 150.761739 148.293818 
L 150.761739 41.472 
" style="fill: none; stroke: #000000; stroke-width: 0.8; stroke-linejoin: miter; stroke-linecap: square"/>
   </g>
   <g id="patch_10">
    <path d="M 228.396522 148.293818 
L 228.396522 41.472 
" style="fill: none; stroke: #000000; stroke-width: 0.8; stroke-linejoin: miter; stroke-linecap: square"/>
   </g>
   <g id="patch_11">
    <path d="M 150.761739 148.293818 
L 228.396522 148.293818 
" style="fill: none; stroke: #000000; stroke-width: 0.8; stroke-linejoin: miter; stroke-linecap: square"/>
   </g>
   <g id="patch_12">
    <path d="M 150.761739 41.472 
L 228.396522 41.472 
" style="fill: none; stroke: #000000; stroke-width: 0.8; stroke-linejoin: miter; stroke-linecap: square"/>
   </g>
   <g id="legend_2">
    <g id="patch_13">
     <path d="M 169.826209 143.293818 
L 221.396522 143.293818 
Q 223.396522 143.293818 223.396522 141.293818 
L 223.396522 127.615693 
Q 223.396522 125.615693 221.396522 125.615693 
L 169.826209 125.615693 
Q 167.826209 125.615693 167.826209 127.615693 
L 167.826209 141.293818 
Q 167.826209 143.293818 169.826209 143.293818 
z
" style="fill: #ffffff; opacity: 0.8; stroke: #cccccc; stroke-linejoin: miter"/>
    </g>
    <g id="line2d_14">
     <path d="M 171.826209 133.714131 
L 181.826209 133.714131 
L 191.826209 133.714131 
" style="fill: none; stroke: #ff7f0e; stroke-width: 1.5; stroke-linecap: square"/>
    </g>
    <g id="text_2">
     <!-- 1 yr -->
     <g transform="translate(199.826209 137.214131) scale(0.1 -0.1)">
      <defs>
       <path id="DejaVuSans-31" d="M 794 531 
L 1825 531 
L 1825 4091 
L 703 3866 
L 703 4441 
L 1819 4666 
L 2450 4666 
L 2450 531 
L 3481 531 
L 3481 0 
L 794 0 
L 794 531 
z
" transform="scale(0.015625)"/>
      </defs>
      <use xlink:href="#DejaVuSans-31"/>
      <use xlink:href="#DejaVuSans-20" x="63.623047"/>
      <use xlink:href="#DejaVuSans-79" x="95.410156"/>
      <use xlink:href="#DejaVuSans-72" x="154.589844"/>
     </g>
    </g>
   </g>
  </g>
  <g id="axes_3">
   <g id="patch_14">
    <path d="M 243.923478 148.293818 
L 321.558261 148.293818 
L 321.558261 41.472 
L 243.923478 41.472 
z
" style="fill: #ffffff"/>
   </g>
   <g id="matplotlib.axis_5">
    <g id="xtick_5">
     <g id="line2d_15">
      <g>
       <use xlink:href="#m1f3af5ba9d" x="244.998752" y="148.293818" style="stroke: #000000; stroke-width: 0.6"/>
      </g>
     </g>
    </g>
    <g id="xtick_6">
     <g id="line2d_16">
      <g>
       <use xlink:href="#m1f3af5ba9d" x="288.009712" y="148.293818" style="stroke: #000000; stroke-width: 0.6"/>
      </g>
     </g>
    </g>
   </g>
   <g id="matplotlib.axis_6">
    <g id="ytick_7">
     <g id="line2d_17">
      <g>
       <use xlink:href="#m04a64f854b" x="243.923478" y="148.102989" style="stroke: #000000; stroke-width: 0.6"/>
      </g>
     </g>
    </g>
    <g id="ytick_8">
     <g id="line2d_18">
      <g>
       <use xlink:href="#m04a64f854b" x="243.923478" y="105.696551" style="stroke: #000000; stroke-width: 0.6"/>
      </g>
     </g>
    </g>
    <g id="ytick_9">
     <g id="line2d_19">
      <g>
       <use xlink:href="#m04a64f854b" x="243.923478" y="63.290113" style="stroke: #000000; stroke-width: 0.6"/>
      </g>
     </g>
    </g>
   </g>
   <g id="line2d_20">
    <path d="M 243.923478 131.564478 
L 244.138533 131.77651 
L 244.568643 129.444156 
L 244.783697 129.656189 
L 245.428862 128.596028 
L 245.643917 129.020092 
L 245.858971 128.596028 
L 246.074026 128.80806 
L 246.289081 127.111802 
L 247.1493 125.627577 
L 247.364355 126.051641 
L 247.57941 125.203513 
L 247.794465 126.687738 
L 248.439629 127.111802 
L 248.654684 126.475706 
L 248.869739 124.143352 
L 249.084793 123.083191 
L 249.299848 123.719287 
L 249.945013 123.083191 
L 250.160067 123.083191 
L 250.375122 123.507255 
L 250.590177 122.871158 
L 250.805232 120.326772 
L 251.450396 120.538804 
L 251.665451 119.478643 
L 251.880506 119.266611 
L 252.095561 113.965806 
L 252.310615 116.29816 
L 252.95578 114.601903 
L 253.170835 114.601903 
L 253.600944 116.510193 
L 253.815999 116.934257 
L 254.891273 114.601903 
L 255.106328 115.450032 
L 255.321383 115.237999 
L 255.966547 117.570354 
L 256.181602 120.326772 
L 256.396657 116.29816 
L 256.611711 115.662064 
L 256.826766 116.29816 
L 257.471931 115.237999 
L 257.90204 112.481581 
L 258.977314 108.452969 
L 259.192369 108.877034 
L 259.407424 106.756712 
L 259.622479 106.968744 
L 259.837533 106.332647 
L 260.697753 101.879971 
L 260.912807 102.940132 
L 261.127862 102.940132 
L 261.342917 99.335585 
L 261.988081 98.275424 
L 262.203136 98.275424 
L 262.633246 99.75965 
L 262.848301 96.367134 
L 263.493465 96.579167 
L 263.70852 94.882909 
L 263.923575 95.094941 
L 264.138629 95.731038 
L 264.353684 94.458845 
L 264.998849 95.094941 
L 265.213903 97.427295 
L 265.428958 97.85136 
L 265.644013 95.731038 
L 266.504232 95.94307 
L 266.719287 92.762587 
L 266.934342 92.974619 
L 267.364451 90.430233 
L 268.009616 92.338523 
L 268.224671 94.246813 
L 268.65478 92.338523 
L 268.869835 90.854297 
L 269.514999 90.218201 
L 269.730054 89.15804 
L 269.945109 91.702426 
L 270.160164 90.642265 
L 270.375219 90.430233 
L 271.020383 92.762587 
L 271.235438 92.550555 
L 271.450493 91.702426 
L 271.665547 93.822748 
L 271.880602 92.762587 
L 272.525767 93.398684 
L 272.740821 90.642265 
L 272.955876 91.278362 
L 273.385986 92.974619 
L 274.03115 91.914458 
L 274.246205 95.094941 
L 274.676315 95.94307 
L 274.891369 95.731038 
L 275.751589 94.458845 
L 275.966643 91.702426 
L 276.181698 91.914458 
L 276.396753 91.702426 
L 277.472027 89.15804 
L 277.687082 88.097879 
L 277.902137 83.221139 
L 278.547301 76.012044 
L 278.762356 74.951883 
L 278.977411 80.252688 
L 279.192465 81.524881 
L 279.40752 80.888784 
L 280.267739 80.040656 
L 280.482794 83.221139 
L 280.697849 84.2813 
L 280.912904 83.645203 
L 281.773123 82.37301 
L 281.988178 83.221139 
L 282.418287 87.885847 
L 283.278507 88.309911 
L 283.493561 85.129428 
L 283.923671 81.948945 
L 284.568835 83.009106 
L 284.78389 83.857235 
L 284.998945 81.736913 
L 285.214 81.312849 
L 285.429055 81.736913 
L 286.074219 81.312849 
L 286.289274 79.616591 
L 286.504329 79.192527 
L 286.934438 84.917396 
L 287.579603 84.493332 
L 287.794657 84.069267 
L 288.009712 85.34146 
L 288.224767 87.673815 
L 288.439822 86.825686 
L 289.084986 86.613654 
L 289.300041 83.221139 
L 289.515096 82.37301 
L 289.730151 83.857235 
L 289.945205 79.404559 
L 290.59037 80.040656 
L 290.805425 78.55643 
L 291.020479 79.616591 
L 291.235534 79.616591 
L 291.450589 79.192527 
L 292.095753 80.252688 
L 292.525863 78.55643 
L 292.740918 79.828623 
L 292.955973 79.192527 
L 293.601137 77.708302 
L 293.816192 78.344398 
L 294.031247 76.860173 
L 294.246301 77.072205 
L 295.321575 74.739851 
L 295.53663 74.951883 
L 295.751685 73.67969 
L 295.96674 76.012044 
L 296.826959 73.891722 
L 297.042014 74.951883 
L 297.257069 74.315786 
L 297.472123 72.619529 
L 298.117288 72.195465 
L 298.332343 68.590917 
L 298.547397 67.954821 
L 298.762452 66.046531 
L 298.977507 66.470595 
L 299.622671 64.350273 
L 299.837726 64.138241 
L 300.267836 60.957758 
L 300.482891 59.049469 
L 301.34311 56.929147 
L 301.558165 61.805887 
L 301.988274 58.625404 
L 302.848493 61.169791 
L 303.063548 60.10963 
L 303.493658 56.929147 
L 304.353877 56.929147 
L 304.568932 57.353211 
L 304.783987 53.3246 
L 304.999041 53.112567 
L 305.644206 53.748664 
L 305.859261 54.172728 
L 306.28937 50.144117 
L 306.504425 52.900535 
L 307.149589 52.688503 
L 307.364644 54.38476 
L 307.579699 55.020857 
L 307.794754 56.929147 
L 308.009809 54.596793 
L 308.870028 51.840374 
L 309.300137 48.235827 
L 309.515192 49.295988 
L 310.160356 48.023795 
L 310.590466 50.356149 
L 310.805521 56.081018 
L 311.66574 54.808825 
L 312.09585 55.868986 
L 312.525959 52.476471 
L 313.601233 53.536632 
L 314.031343 54.38476 
L 314.891562 53.112567 
L 315.321672 57.989308 
L 315.536726 57.353211 
L 316.181891 54.596793 
L 316.612 57.777276 
L 316.827055 56.717115 
L 317.687274 55.020857 
L 317.902329 58.625404 
L 318.117384 58.413372 
L 318.332439 58.413372 
L 318.547494 59.685565 
L 319.192658 57.989308 
L 319.407713 57.989308 
L 319.622768 58.837437 
L 319.837822 58.20134 
L 320.052877 56.717115 
L 320.913096 56.505082 
L 321.128151 56.717115 
L 321.343206 56.081018 
L 321.558261 54.596793 
L 321.558261 54.596793 
" clip-path="url(#p93c76a6f4b)" style="fill: none; stroke: #2ca02c; stroke-width: 1.5; stroke-linecap: square"/>
   </g>
   <g id="patch_15">
    <path d="M 243.923478 148.293818 
L 243.923478 41.472 
" style="fill: none; stroke: #000000; stroke-width: 0.8; stroke-linejoin: miter; stroke-linecap: square"/>
   </g>
   <g id="patch_16">
    <path d="M 321.558261 148.293818 
L 321.558261 41.472 
" style="fill: none; stroke: #000000; stroke-width: 0.8; stroke-linejoin: miter; stroke-linecap: square"/>
   </g>
   <g id="patch_17">
    <path d="M 243.923478 148.293818 
L 321.558261 148.293818 
" style="fill: none; stroke: #000000; stroke-width: 0.8; stroke-linejoin: miter; stroke-linecap: square"/>
   </g>
   <g id="patch_18">
    <path d="M 243.923478 41.472 
L 321.558261 41.472 
" style="fill: none; stroke: #000000; stroke-width: 0.8; stroke-linejoin: miter; stroke-linecap: square"/>
   </g>
   <g id="legend_3">
    <g id="patch_19">
     <path d="M 250.923478 143.293818 
L 302.493791 143.293818 
Q 304.493791 143.293818 304.493791 141.293818 
L 304.493791 127.615693 
Q 304.493791 125.615693 302.493791 125.615693 
L 250.923478 125.615693 
Q 248.923478 125.615693 248.923478 127.615693 
L 248.923478 141.293818 
Q 248.923478 143.293818 250.923478 143.293818 
z
" style="fill: #ffffff; opacity: 0.8; stroke: #cccccc; stroke-linejoin: miter"/>
    </g>
    <g id="line2d_21">
     <path d="M 252.923478 133.714131 
L 262.923478 133.714131 
L 272.923478 133.714131 
" style="fill: none; stroke: #2ca02c; stroke-width: 1.5; stroke-linecap: square"/>
    </g>
    <g id="text_3">
     <!-- 2 yr -->
     <g transform="translate(280.923478 137.214131) scale(0.1 -0.1)">
      <defs>
       <path id="DejaVuSans-32" d="M 1228 531 
L 3431 531 
L 3431 0 
L 469 0 
L 469 531 
Q 828 903 1448 1529 
Q 2069 2156 2228 2338 
Q 2531 2678 2651 2914 
Q 2772 3150 2772 3378 
Q 2772 3750 2511 3984 
Q 2250 4219 1831 4219 
Q 1534 4219 1204 4116 
Q 875 4013 500 3803 
L 500 4441 
Q 881 4594 1212 4672 
Q 1544 4750 1819 4750 
Q 2544 4750 2975 4387 
Q 3406 4025 3406 3419 
Q 3406 3131 3298 2873 
Q 3191 2616 2906 2266 
Q 2828 2175 2409 1742 
Q 1991 1309 1228 531 
z
" transform="scale(0.015625)"/>
      </defs>
      <use xlink:href="#DejaVuSans-32"/>
      <use xlink:href="#DejaVuSans-20" x="63.623047"/>
      <use xlink:href="#DejaVuSans-79" x="95.410156"/>
      <use xlink:href="#DejaVuSans-72" x="154.589844"/>
     </g>
    </g>
   </g>
  </g>
  <g id="axes_4">
   <g id="patch_20">
    <path d="M 337.085217 148.293818 
L 414.72 148.293818 
L 414.72 41.472 
L 337.085217 41.472 
z
" style="fill: #ffffff"/>
   </g>
   <g id="matplotlib.axis_7">
    <g id="xtick_7">
     <g id="line2d_22">
      <g>
       <use xlink:href="#m1f3af5ba9d" x="338.160491" y="148.293818" style="stroke: #000000; stroke-width: 0.6"/>
      </g>
     </g>
    </g>
    <g id="xtick_8">
     <g id="line2d_23">
      <g>
       <use xlink:href="#m1f3af5ba9d" x="381.171451" y="148.293818" style="stroke: #000000; stroke-width: 0.6"/>
      </g>
     </g>
    </g>
   </g>
   <g id="matplotlib.axis_8">
    <g id="ytick_10">
     <g id="line2d_24">
      <g>
       <use xlink:href="#m04a64f854b" x="337.085217" y="148.102989" style="stroke: #000000; stroke-width: 0.6"/>
      </g>
     </g>
    </g>
    <g id="ytick_11">
     <g id="line2d_25">
      <g>
       <use xlink:href="#m04a64f854b" x="337.085217" y="105.696551" style="stroke: #000000; stroke-width: 0.6"/>
      </g>
     </g>
    </g>
    <g id="ytick_12">
     <g id="line2d_26">
      <g>
       <use xlink:href="#m04a64f854b" x="337.085217" y="63.290113" style="stroke: #000000; stroke-width: 0.6"/>
      </g>
     </g>
    </g>
   </g>
   <g id="line2d_27">
    <path d="M 337.085217 119.054579 
L 337.300272 119.054579 
L 337.730382 116.934257 
L 337.945437 116.29816 
L 338.590601 115.662064 
L 339.235765 116.934257 
L 339.45082 115.237999 
L 340.311039 113.117678 
L 340.526094 113.753774 
L 340.741149 113.753774 
L 340.956204 115.450032 
L 341.601368 115.662064 
L 341.816423 115.025967 
L 342.031478 112.905645 
L 342.246533 112.905645 
L 342.461587 113.965806 
L 343.106752 113.753774 
L 343.321807 113.541742 
L 343.536861 114.177839 
L 343.751916 112.905645 
L 343.966971 110.361259 
L 344.612135 110.785323 
L 344.82719 109.725163 
L 345.042245 109.51313 
L 345.2573 106.54468 
L 345.472355 109.089066 
L 346.117519 107.816873 
L 346.332574 106.968744 
L 346.977738 109.51313 
L 347.837957 108.877034 
L 348.053012 108.028905 
L 348.268067 109.089066 
L 348.483122 108.665002 
L 349.128286 111.845484 
L 349.343341 115.025967 
L 349.558396 111.209388 
L 349.773451 111.209388 
L 349.988505 113.117678 
L 350.63367 111.845484 
L 351.063779 108.452969 
L 352.139053 103.576229 
L 352.354108 103.576229 
L 352.569163 101.879971 
L 352.784218 102.092004 
L 352.999273 102.7281 
L 353.859492 97.427295 
L 354.074547 98.487456 
L 354.289601 97.85136 
L 354.504656 94.03478 
L 355.149821 94.246813 
L 355.57993 96.367134 
L 355.794985 96.791199 
L 356.01004 94.03478 
L 356.655204 93.822748 
L 356.870259 91.06633 
L 357.085314 90.854297 
L 357.300369 90.854297 
L 357.515423 89.582104 
L 358.160588 88.946008 
L 358.375643 91.702426 
L 358.590697 91.702426 
L 358.805752 88.946008 
L 359.665971 88.946008 
L 359.881026 86.401621 
L 360.096081 87.24975 
L 360.311136 85.34146 
L 360.526191 85.765525 
L 361.38641 88.946008 
L 361.601465 88.521943 
L 362.031574 86.189589 
L 362.676739 84.2813 
L 362.891793 84.2813 
L 363.106848 85.977557 
L 363.536958 83.221139 
L 364.612232 86.825686 
L 364.827287 88.521943 
L 365.042341 86.825686 
L 365.687506 88.097879 
L 365.902561 85.34146 
L 366.33267 87.885847 
L 366.547725 88.733976 
L 367.192889 87.037718 
L 367.407944 89.582104 
L 367.622999 90.642265 
L 367.838054 90.854297 
L 368.053109 90.642265 
L 368.913328 88.521943 
L 369.128383 85.765525 
L 369.343437 86.189589 
L 370.203657 83.857235 
L 370.418711 84.705364 
L 370.848821 83.009106 
L 371.063876 79.192527 
L 371.924095 71.559368 
L 372.13915 76.436108 
L 372.354205 77.072205 
L 372.569259 77.284237 
L 373.429479 76.436108 
L 373.859588 81.524881 
L 374.074643 80.676752 
L 374.934862 79.192527 
L 375.364972 84.2813 
L 375.580026 87.037718 
L 376.440246 88.309911 
L 376.870355 83.433171 
L 377.08541 81.736913 
L 377.945629 84.2813 
L 378.160684 84.069267 
L 378.375739 83.221139 
L 378.590794 83.433171 
L 379.235958 83.221139 
L 379.666068 80.676752 
L 380.096177 87.24975 
L 380.741342 86.825686 
L 380.956396 86.825686 
L 381.171451 88.309911 
L 381.386506 91.06633 
L 381.601561 90.854297 
L 382.246725 91.702426 
L 382.46178 87.673815 
L 382.676835 87.461782 
L 382.89189 89.582104 
L 383.106944 85.129428 
L 383.752109 86.401621 
L 383.967164 85.129428 
L 384.182218 85.977557 
L 384.397273 84.917396 
L 384.612328 85.129428 
L 385.257492 86.401621 
L 385.472547 85.553493 
L 385.687602 83.645203 
L 385.902657 84.069267 
L 386.117712 82.160978 
L 387.192986 80.252688 
L 387.40804 81.312849 
L 387.623095 80.252688 
L 388.26826 78.768463 
L 388.483314 78.768463 
L 388.698369 78.132366 
L 388.913424 76.224076 
L 389.128479 78.132366 
L 389.988698 75.375947 
L 390.203753 76.648141 
L 390.418808 76.224076 
L 390.633862 74.951883 
L 391.279027 74.527819 
L 391.494082 72.195465 
L 391.709136 71.7714 
L 391.924191 70.499207 
L 392.139246 71.347336 
L 392.78441 69.86311 
L 392.999465 68.590917 
L 393.21452 68.80295 
L 393.429575 65.198402 
L 393.64463 64.138241 
L 394.504849 58.837437 
L 394.719904 64.98637 
L 395.150013 62.017919 
L 396.010232 66.682628 
L 396.655397 60.321662 
L 397.515616 60.321662 
L 397.730671 60.745726 
L 397.945726 58.837437 
L 398.16078 57.989308 
L 398.805945 58.20134 
L 399.021 58.837437 
L 399.451109 53.748664 
L 399.666164 56.081018 
L 400.311328 55.656954 
L 400.526383 57.989308 
L 400.741438 59.049469 
L 400.956493 61.381823 
L 401.171548 59.261501 
L 401.816712 57.565243 
L 402.031767 57.565243 
L 402.246822 56.929147 
L 402.461876 55.656954 
L 402.676931 56.29305 
L 403.322096 55.020857 
L 403.752205 57.565243 
L 403.96726 64.350273 
L 404.827479 63.290113 
L 405.257589 66.89466 
L 405.687698 63.502145 
L 406.332863 63.926209 
L 406.762972 65.834499 
L 407.193082 66.470595 
L 407.838246 65.834499 
L 408.053301 64.98637 
L 408.698466 70.287175 
L 409.34363 67.530756 
L 409.558685 69.014982 
L 409.77374 71.347336 
L 409.988794 69.439046 
L 410.203849 68.590917 
L 410.849014 67.530756 
L 411.064068 70.499207 
L 411.709233 71.559368 
L 412.354397 69.651078 
L 412.569452 67.742789 
L 412.784507 67.954821 
L 412.999562 67.742789 
L 413.214616 66.258563 
L 414.28989 63.926209 
L 414.504945 64.562306 
L 414.72 63.502145 
L 414.72 63.502145 
" clip-path="url(#p942295870b)" style="fill: none; stroke: #d62728; stroke-width: 1.5; stroke-linecap: square"/>
   </g>
   <g id="patch_21">
    <path d="M 337.085217 148.293818 
L 337.085217 41.472 
" style="fill: none; stroke: #000000; stroke-width: 0.8; stroke-linejoin: miter; stroke-linecap: square"/>
   </g>
   <g id="patch_22">
    <path d="M 414.72 148.293818 
L 414.72 41.472 
" style="fill: none; stroke: #000000; stroke-width: 0.8; stroke-linejoin: miter; stroke-linecap: square"/>
   </g>
   <g id="patch_23">
    <path d="M 337.085217 148.293818 
L 414.72 148.293818 
" style="fill: none; stroke: #000000; stroke-width: 0.8; stroke-linejoin: miter; stroke-linecap: square"/>
   </g>
   <g id="patch_24">
    <path d="M 337.085217 41.472 
L 414.72 41.472 
" style="fill: none; stroke: #000000; stroke-width: 0.8; stroke-linejoin: miter; stroke-linecap: square"/>
   </g>
   <g id="legend_4">
    <g id="patch_25">
     <path d="M 344.085217 143.293818 
L 395.65553 143.293818 
Q 397.65553 143.293818 397.65553 141.293818 
L 397.65553 127.615693 
Q 397.65553 125.615693 395.65553 125.615693 
L 344.085217 125.615693 
Q 342.085217 125.615693 342.085217 127.615693 
L 342.085217 141.293818 
Q 342.085217 143.293818 344.085217 143.293818 
z
" style="fill: #ffffff; opacity: 0.8; stroke: #cccccc; stroke-linejoin: miter"/>
    </g>
    <g id="line2d_28">
     <path d="M 346.085217 133.714131 
L 356.085217 133.714131 
L 366.085217 133.714131 
" style="fill: none; stroke: #d62728; stroke-width: 1.5; stroke-linecap: square"/>
    </g>
    <g id="text_4">
     <!-- 5 yr -->
     <g transform="translate(374.085217 137.214131) scale(0.1 -0.1)">
      <use xlink:href="#DejaVuSans-35"/>
      <use xlink:href="#DejaVuSans-20" x="63.623047"/>
      <use xlink:href="#DejaVuSans-79" x="95.410156"/>
      <use xlink:href="#DejaVuSans-72" x="154.589844"/>
     </g>
    </g>
   </g>
  </g>
  <g id="axes_5">
   <g id="patch_26">
    <path d="M 57.6 276.48 
L 135.234783 276.48 
L 135.234783 169.658182 
L 57.6 169.658182 
z
" style="fill: #ffffff"/>
   </g>
   <g id="matplotlib.axis_9">
    <g id="xtick_9">
     <g id="line2d_29">
      <g>
       <use xlink:href="#m1f3af5ba9d" x="58.675274" y="276.48" style="stroke: #000000; stroke-width: 0.6"/>
      </g>
     </g>
    </g>
    <g id="xtick_10">
     <g id="line2d_30">
      <g>
       <use xlink:href="#m1f3af5ba9d" x="101.686234" y="276.48" style="stroke: #000000; stroke-width: 0.6"/>
      </g>
     </g>
    </g>
    <g id="text_5">
     <!-- DATE -->
     <g transform="translate(83.408798 293.478437) scale(0.1 -0.1)">
      <defs>
       <path id="DejaVuSans-44" d="M 1259 4147 
L 1259 519 
L 2022 519 
Q 2988 519 3436 956 
Q 3884 1394 3884 2338 
Q 3884 3275 3436 3711 
Q 2988 4147 2022 4147 
L 1259 4147 
z
M 628 4666 
L 1925 4666 
Q 3281 4666 3915 4102 
Q 4550 3538 4550 2338 
Q 4550 1131 3912 565 
Q 3275 0 1925 0 
L 628 0 
L 628 4666 
z
" transform="scale(0.015625)"/>
       <path id="DejaVuSans-41" d="M 2188 4044 
L 1331 1722 
L 3047 1722 
L 2188 4044 
z
M 1831 4666 
L 2547 4666 
L 4325 0 
L 3669 0 
L 3244 1197 
L 1141 1197 
L 716 0 
L 50 0 
L 1831 4666 
z
" transform="scale(0.015625)"/>
       <path id="DejaVuSans-54" d="M -19 4666 
L 3928 4666 
L 3928 4134 
L 2272 4134 
L 2272 0 
L 1638 0 
L 1638 4134 
L -19 4134 
L -19 4666 
z
" transform="scale(0.015625)"/>
       <path id="DejaVuSans-45" d="M 628 4666 
L 3578 4666 
L 3578 4134 
L 1259 4134 
L 1259 2753 
L 3481 2753 
L 3481 2222 
L 1259 2222 
L 1259 531 
L 3634 531 
L 3634 0 
L 628 0 
L 628 4666 
z
" transform="scale(0.015625)"/>
      </defs>
      <use xlink:href="#DejaVuSans-44"/>
      <use xlink:href="#DejaVuSans-41" x="75.251953"/>
      <use xlink:href="#DejaVuSans-54" x="135.910156"/>
      <use xlink:href="#DejaVuSans-45" x="196.994141"/>
     </g>
    </g>
   </g>
   <g id="matplotlib.axis_10">
    <g id="ytick_13">
     <g id="line2d_31">
      <g>
       <use xlink:href="#m04a64f854b" x="57.6" y="276.289171" style="stroke: #000000; stroke-width: 0.6"/>
      </g>
     </g>
    </g>
    <g id="ytick_14">
     <g id="line2d_32">
      <g>
       <use xlink:href="#m04a64f854b" x="57.6" y="233.882733" style="stroke: #000000; stroke-width: 0.6"/>
      </g>
     </g>
    </g>
    <g id="ytick_15">
     <g id="line2d_33">
      <g>
       <use xlink:href="#m04a64f854b" x="57.6" y="191.476294" style="stroke: #000000; stroke-width: 0.6"/>
      </g>
     </g>
    </g>
   </g>
   <g id="line2d_34">
    <path d="M 57.6 243.424181 
L 57.815055 243.000117 
L 58.245164 241.091827 
L 58.460219 240.455731 
L 59.105384 240.031666 
L 59.750548 241.515892 
L 59.965603 239.819634 
L 60.825822 237.699312 
L 61.040877 238.547441 
L 61.255932 238.759473 
L 61.470986 240.243698 
L 62.116151 240.455731 
L 62.331206 239.607602 
L 62.54626 237.911344 
L 62.97637 239.39557 
L 63.621534 239.183537 
L 63.836589 238.971505 
L 64.051644 239.39557 
L 64.266699 238.547441 
L 64.481754 236.003055 
L 65.126918 236.427119 
L 65.341973 235.366958 
L 65.557028 235.57899 
L 65.772082 233.246636 
L 65.987137 235.57899 
L 66.632302 234.306797 
L 66.847356 233.246636 
L 67.062411 233.882733 
L 67.492521 236.003055 
L 68.35274 235.366958 
L 68.567795 234.306797 
L 68.78285 235.154926 
L 68.997904 234.730861 
L 69.643069 237.911344 
L 69.858124 240.879795 
L 70.073178 237.48728 
L 70.288233 237.699312 
L 70.503288 240.243698 
L 71.148452 238.759473 
L 71.793617 234.306797 
L 72.008672 233.6707 
L 72.653836 230.490218 
L 72.868891 230.490218 
L 73.083946 229.218024 
L 73.299 229.218024 
L 73.514055 230.278185 
L 74.374274 224.977381 
L 74.589329 226.037542 
L 74.804384 225.613477 
L 75.019439 222.00893 
L 75.664603 222.220962 
L 76.309768 225.401445 
L 76.524822 223.281123 
L 77.169987 222.857059 
L 77.385042 220.10064 
L 78.030206 217.13219 
L 78.67537 216.072029 
L 78.890425 218.404383 
L 79.10548 218.828447 
L 79.320535 216.072029 
L 80.180754 215.859996 
L 80.395809 213.739674 
L 80.610864 215.2239 
L 80.825918 213.527642 
L 81.040973 213.739674 
L 81.901192 216.920157 
L 83.191521 211.831385 
L 83.406576 212.043417 
L 83.621631 213.31561 
L 84.05174 209.923095 
L 84.696905 211.831385 
L 85.127014 213.951707 
L 85.342069 215.647964 
L 85.557124 213.739674 
L 86.202288 215.011868 
L 86.417343 212.679514 
L 86.632398 214.587803 
L 87.062508 216.496093 
L 87.707672 214.799835 
L 87.922727 216.920157 
L 88.137782 217.768286 
L 88.352836 217.980318 
L 88.567891 217.768286 
L 89.42811 215.435932 
L 89.643165 213.103578 
L 89.85822 213.739674 
L 90.073275 212.891546 
L 90.718439 211.195288 
L 90.933494 212.255449 
L 91.363604 210.983256 
L 91.578658 207.590741 
L 92.438878 199.957582 
L 92.653932 204.410258 
L 93.084042 205.470419 
L 93.944261 204.410258 
L 94.374371 209.286998 
L 95.23459 206.954644 
L 95.449645 206.954644 
L 96.094809 214.375771 
L 96.955028 215.435932 
L 97.385138 211.195288 
L 97.600193 209.286998 
L 98.675467 212.679514 
L 98.890521 211.619353 
L 99.105576 212.043417 
L 99.750741 211.619353 
L 100.18085 209.499031 
L 100.61096 215.859996 
L 101.256124 215.011868 
L 101.471179 215.2239 
L 101.686234 216.284061 
L 101.901289 219.252511 
L 102.116343 219.040479 
L 102.761508 220.312672 
L 102.976563 216.496093 
L 103.191617 216.708125 
L 103.406672 218.404383 
L 103.621727 214.587803 
L 104.266891 215.859996 
L 104.481946 215.011868 
L 104.697001 215.647964 
L 104.912056 213.951707 
L 105.772275 215.647964 
L 105.98733 214.799835 
L 106.202385 212.891546 
L 106.417439 213.31561 
L 106.632494 211.40732 
L 107.492713 209.711063 
L 107.707768 208.43887 
L 107.922823 210.347159 
L 108.137878 209.711063 
L 108.783042 208.226837 
L 108.998097 208.014805 
L 109.213152 207.378709 
L 109.428207 205.046355 
L 109.643261 206.53058 
L 110.503481 203.986194 
L 110.718535 205.258387 
L 110.93359 204.834322 
L 111.148645 203.774161 
L 111.793809 203.138065 
L 112.008864 201.441807 
L 112.223919 201.65384 
L 112.438974 200.169614 
L 112.654029 200.805711 
L 113.299193 199.533518 
L 113.514248 198.049292 
L 113.729303 198.897421 
L 113.944357 194.868809 
L 114.159412 194.656777 
L 115.019631 188.507844 
L 115.234686 195.080842 
L 115.664796 192.112391 
L 116.525015 197.201164 
L 116.955125 192.536455 
L 117.170179 190.840198 
L 118.030399 190.204101 
L 118.245453 190.840198 
L 118.675563 188.295811 
L 119.320727 188.295811 
L 119.535782 188.931908 
L 119.965892 183.843135 
L 120.180947 185.539393 
L 120.826111 184.903296 
L 121.041166 187.871747 
L 121.256221 188.931908 
L 121.471275 191.264262 
L 121.68633 189.355972 
L 122.331495 187.659715 
L 122.546549 187.659715 
L 122.761604 187.235651 
L 122.976659 185.963457 
L 123.191714 185.963457 
L 123.836878 184.903296 
L 124.051933 186.811586 
L 124.266988 187.235651 
L 124.482043 193.808648 
L 125.342262 192.536455 
L 125.557317 194.020681 
L 125.772371 196.353035 
L 126.202481 193.172552 
L 126.847645 192.748487 
L 127.277755 195.504906 
L 127.707865 196.141003 
L 128.353029 195.716938 
L 128.568084 194.656777 
L 128.783139 196.565067 
L 128.998193 199.533518 
L 129.213248 199.74555 
L 129.858413 197.413196 
L 130.288522 201.229775 
L 130.718632 198.049292 
L 131.363796 197.201164 
L 131.578851 199.957582 
L 131.793906 200.169614 
L 132.008961 200.805711 
L 132.224015 200.381646 
L 132.86918 198.473357 
L 133.084235 196.141003 
L 133.299289 196.353035 
L 133.514344 196.353035 
L 133.729399 195.080842 
L 134.589618 192.96052 
L 134.804673 192.112391 
L 135.019728 193.384584 
L 135.234783 192.324423 
L 135.234783 192.324423 
" clip-path="url(#p0a5ac7c540)" style="fill: none; stroke: #9467bd; stroke-width: 1.5; stroke-linecap: square"/>
   </g>
   <g id="patch_27">
    <path d="M 57.6 276.48 
L 57.6 169.658182 
" style="fill: none; stroke: #000000; stroke-width: 0.8; stroke-linejoin: miter; stroke-linecap: square"/>
   </g>
   <g id="patch_28">
    <path d="M 135.234783 276.48 
L 135.234783 169.658182 
" style="fill: none; stroke: #000000; stroke-width: 0.8; stroke-linejoin: miter; stroke-linecap: square"/>
   </g>
   <g id="patch_29">
    <path d="M 57.6 276.48 
L 135.234783 276.48 
" style="fill: none; stroke: #000000; stroke-width: 0.8; stroke-linejoin: miter; stroke-linecap: square"/>
   </g>
   <g id="patch_30">
    <path d="M 57.6 169.658182 
L 135.234783 169.658182 
" style="fill: none; stroke: #000000; stroke-width: 0.8; stroke-linejoin: miter; stroke-linecap: square"/>
   </g>
   <g id="legend_5">
    <g id="patch_31">
     <path d="M 64.6 271.48 
L 116.170312 271.48 
Q 118.170312 271.48 118.170312 269.48 
L 118.170312 255.801875 
Q 118.170312 253.801875 116.170312 253.801875 
L 64.6 253.801875 
Q 62.6 253.801875 62.6 255.801875 
L 62.6 269.48 
Q 62.6 271.48 64.6 271.48 
z
" style="fill: #ffffff; opacity: 0.8; stroke: #cccccc; stroke-linejoin: miter"/>
    </g>
    <g id="line2d_35">
     <path d="M 66.6 261.900312 
L 76.6 261.900312 
L 86.6 261.900312 
" style="fill: none; stroke: #9467bd; stroke-width: 1.5; stroke-linecap: square"/>
    </g>
    <g id="text_6">
     <!-- 7 yr -->
     <g transform="translate(94.6 265.400312) scale(0.1 -0.1)">
      <defs>
       <path id="DejaVuSans-37" d="M 525 4666 
L 3525 4666 
L 3525 4397 
L 1831 0 
L 1172 0 
L 2766 4134 
L 525 4134 
L 525 4666 
z
" transform="scale(0.015625)"/>
      </defs>
      <use xlink:href="#DejaVuSans-37"/>
      <use xlink:href="#DejaVuSans-20" x="63.623047"/>
      <use xlink:href="#DejaVuSans-79" x="95.410156"/>
      <use xlink:href="#DejaVuSans-72" x="154.589844"/>
     </g>
    </g>
   </g>
  </g>
  <g id="axes_6">
   <g id="patch_32">
    <path d="M 150.761739 276.48 
L 228.396522 276.48 
L 228.396522 169.658182 
L 150.761739 169.658182 
z
" style="fill: #ffffff"/>
   </g>
   <g id="matplotlib.axis_11">
    <g id="xtick_11">
     <g id="line2d_36">
      <g>
       <use xlink:href="#m1f3af5ba9d" x="151.837013" y="276.48" style="stroke: #000000; stroke-width: 0.6"/>
      </g>
     </g>
    </g>
    <g id="xtick_12">
     <g id="line2d_37">
      <g>
       <use xlink:href="#m1f3af5ba9d" x="194.847973" y="276.48" style="stroke: #000000; stroke-width: 0.6"/>
      </g>
     </g>
    </g>
    <g id="text_7">
     <!-- DATE -->
     <g transform="translate(176.570537 293.478437) scale(0.1 -0.1)">
      <use xlink:href="#DejaVuSans-44"/>
      <use xlink:href="#DejaVuSans-41" x="75.251953"/>
      <use xlink:href="#DejaVuSans-54" x="135.910156"/>
      <use xlink:href="#DejaVuSans-45" x="196.994141"/>
     </g>
    </g>
   </g>
   <g id="matplotlib.axis_12">
    <g id="ytick_16">
     <g id="line2d_38">
      <g>
       <use xlink:href="#m04a64f854b" x="150.761739" y="276.289171" style="stroke: #000000; stroke-width: 0.6"/>
      </g>
     </g>
    </g>
    <g id="ytick_17">
     <g id="line2d_39">
      <g>
       <use xlink:href="#m04a64f854b" x="150.761739" y="233.882733" style="stroke: #000000; stroke-width: 0.6"/>
      </g>
     </g>
    </g>
    <g id="ytick_18">
     <g id="line2d_40">
      <g>
       <use xlink:href="#m04a64f854b" x="150.761739" y="191.476294" style="stroke: #000000; stroke-width: 0.6"/>
      </g>
     </g>
    </g>
   </g>
   <g id="line2d_41">
    <path d="M 150.761739 241.727924 
L 150.976794 241.091827 
L 151.191849 240.031666 
L 151.621958 238.971505 
L 152.267123 238.547441 
L 152.482178 239.183537 
L 152.697232 239.39557 
L 152.912287 240.243698 
L 153.127342 238.547441 
L 153.987561 236.639151 
L 154.202616 237.48728 
L 154.417671 237.48728 
L 154.632726 239.183537 
L 155.27789 239.183537 
L 155.492945 238.547441 
L 155.708 237.063216 
L 156.138109 238.547441 
L 156.783274 238.335409 
L 156.998328 237.911344 
L 157.213383 238.547441 
L 157.428438 237.699312 
L 157.643493 235.366958 
L 158.288657 235.57899 
L 158.503712 234.730861 
L 158.718767 235.154926 
L 158.933822 233.246636 
L 159.148876 235.57899 
L 159.794041 234.306797 
L 160.009096 232.822572 
L 160.22415 233.246636 
L 160.65426 235.57899 
L 161.514479 235.154926 
L 161.729534 234.094765 
L 161.944589 234.730861 
L 162.159644 234.518829 
L 162.804808 237.48728 
L 163.019863 239.819634 
L 163.234917 236.851183 
L 163.449972 236.851183 
L 163.665027 239.39557 
L 164.310191 238.547441 
L 164.955356 234.306797 
L 165.170411 233.882733 
L 165.815575 230.914282 
L 166.03063 230.70225 
L 166.245685 229.854121 
L 166.460739 229.642089 
L 166.675794 230.914282 
L 167.536013 225.825509 
L 167.751068 227.097703 
L 167.966123 226.673638 
L 168.181178 223.705187 
L 168.826342 224.129252 
L 169.471507 227.097703 
L 169.686561 225.613477 
L 170.331726 224.977381 
L 170.761835 220.948769 
L 171.191945 218.616415 
L 171.837109 217.13219 
L 172.052164 218.616415 
L 172.267219 219.040479 
L 172.482274 216.284061 
L 173.342493 215.859996 
L 173.557548 214.163739 
L 173.772603 215.859996 
L 173.987657 214.799835 
L 174.202712 214.799835 
L 175.062931 217.556254 
L 175.493041 215.859996 
L 176.35326 212.891546 
L 176.568315 213.31561 
L 176.78337 214.163739 
L 177.213479 210.135127 
L 177.858644 211.619353 
L 178.503808 216.072029 
L 178.718863 214.163739 
L 179.364027 215.2239 
L 179.579082 213.103578 
L 180.009192 216.072029 
L 180.224247 217.344222 
L 180.869411 215.647964 
L 181.084466 217.768286 
L 181.299521 217.980318 
L 181.514575 217.980318 
L 181.72963 218.19235 
L 182.589849 215.859996 
L 182.804904 213.951707 
L 183.019959 214.375771 
L 183.235014 213.527642 
L 183.880178 211.831385 
L 184.095233 213.103578 
L 184.310288 212.043417 
L 184.525343 211.831385 
L 185.385562 203.562129 
L 185.600617 202.289936 
L 185.815671 205.682451 
L 186.245781 207.378709 
L 187.106 206.106516 
L 187.321055 209.286998 
L 187.53611 210.771224 
L 187.751165 209.923095 
L 188.396329 208.43887 
L 188.611384 208.43887 
L 189.256548 215.2239 
L 190.116767 216.496093 
L 190.546877 212.467481 
L 190.761932 210.771224 
L 191.837206 214.587803 
L 192.052261 213.527642 
L 192.267315 214.163739 
L 192.91248 213.527642 
L 193.342589 211.831385 
L 193.772699 217.556254 
L 194.417863 216.708125 
L 194.632918 216.708125 
L 194.847973 217.344222 
L 195.063028 219.464544 
L 195.278083 219.676576 
L 195.923247 221.160801 
L 196.138302 217.980318 
L 196.353357 218.404383 
L 196.568411 219.464544 
L 196.783466 216.284061 
L 197.428631 217.556254 
L 197.643685 216.920157 
L 197.85874 217.344222 
L 198.073795 215.435932 
L 198.28885 216.072029 
L 198.934014 217.13219 
L 199.149069 216.496093 
L 199.364124 215.011868 
L 199.579179 215.2239 
L 199.794233 213.103578 
L 200.654453 211.619353 
L 200.869507 210.347159 
L 201.084562 212.043417 
L 201.299617 211.831385 
L 201.944781 210.135127 
L 202.159836 210.347159 
L 202.374891 209.499031 
L 202.589946 207.166677 
L 202.805001 208.43887 
L 203.66522 205.682451 
L 203.880275 206.954644 
L 204.095329 206.53058 
L 204.310384 205.682451 
L 204.955549 204.834322 
L 205.170603 203.774161 
L 205.385658 203.986194 
L 205.600713 203.138065 
L 205.815768 203.138065 
L 206.460932 202.289936 
L 206.675987 200.593679 
L 206.891042 201.865872 
L 207.106097 197.83726 
L 207.321151 198.049292 
L 208.181371 192.112391 
L 208.396425 197.413196 
L 208.61148 196.565067 
L 208.826535 195.080842 
L 209.686754 199.533518 
L 210.116864 195.080842 
L 210.331919 193.808648 
L 211.192138 192.96052 
L 211.407193 193.384584 
L 211.837302 191.476294 
L 212.482467 191.05223 
L 212.697521 191.264262 
L 213.127631 186.387522 
L 213.342686 187.023618 
L 213.98785 186.17549 
L 214.202905 189.355972 
L 214.633015 192.324423 
L 214.848069 191.05223 
L 215.493234 189.355972 
L 215.708289 189.992069 
L 216.353453 187.871747 
L 216.998617 186.811586 
L 217.213672 188.507844 
L 217.428727 188.931908 
L 217.643782 195.292874 
L 218.504001 194.020681 
L 218.719056 195.716938 
L 218.934111 198.473357 
L 219.36422 195.292874 
L 220.009385 195.080842 
L 220.439494 197.625228 
L 220.869604 198.261324 
L 221.514768 198.049292 
L 221.729823 196.777099 
L 221.944878 198.261324 
L 222.159933 201.441807 
L 222.374987 201.865872 
L 223.020152 199.957582 
L 223.450261 203.774161 
L 223.880371 200.593679 
L 224.525535 199.74555 
L 224.74059 201.865872 
L 224.955645 202.289936 
L 225.1707 203.350097 
L 225.385755 202.501968 
L 226.030919 200.593679 
L 226.245974 198.049292 
L 226.676083 198.473357 
L 226.891138 196.777099 
L 227.751357 194.868809 
L 227.966412 194.020681 
L 228.181467 195.080842 
L 228.396522 194.020681 
L 228.396522 194.020681 
" clip-path="url(#pd97ca44f1d)" style="fill: none; stroke: #8c564b; stroke-width: 1.5; stroke-linecap: square"/>
   </g>
   <g id="patch_33">
    <path d="M 150.761739 276.48 
L 150.761739 169.658182 
" style="fill: none; stroke: #000000; stroke-width: 0.8; stroke-linejoin: miter; stroke-linecap: square"/>
   </g>
   <g id="patch_34">
    <path d="M 228.396522 276.48 
L 228.396522 169.658182 
" style="fill: none; stroke: #000000; stroke-width: 0.8; stroke-linejoin: miter; stroke-linecap: square"/>
   </g>
   <g id="patch_35">
    <path d="M 150.761739 276.48 
L 228.396522 276.48 
" style="fill: none; stroke: #000000; stroke-width: 0.8; stroke-linejoin: miter; stroke-linecap: square"/>
   </g>
   <g id="patch_36">
    <path d="M 150.761739 169.658182 
L 228.396522 169.658182 
" style="fill: none; stroke: #000000; stroke-width: 0.8; stroke-linejoin: miter; stroke-linecap: square"/>
   </g>
   <g id="legend_6">
    <g id="patch_37">
     <path d="M 157.761739 271.48 
L 215.694552 271.48 
Q 217.694552 271.48 217.694552 269.48 
L 217.694552 255.801875 
Q 217.694552 253.801875 215.694552 253.801875 
L 157.761739 253.801875 
Q 155.761739 253.801875 155.761739 255.801875 
L 155.761739 269.48 
Q 155.761739 271.48 157.761739 271.48 
z
" style="fill: #ffffff; opacity: 0.8; stroke: #cccccc; stroke-linejoin: miter"/>
    </g>
    <g id="line2d_42">
     <path d="M 159.761739 261.900312 
L 169.761739 261.900312 
L 179.761739 261.900312 
" style="fill: none; stroke: #8c564b; stroke-width: 1.5; stroke-linecap: square"/>
    </g>
    <g id="text_8">
     <!-- 10 yr -->
     <g transform="translate(187.761739 265.400312) scale(0.1 -0.1)">
      <use xlink:href="#DejaVuSans-31"/>
      <use xlink:href="#DejaVuSans-30" x="63.623047"/>
      <use xlink:href="#DejaVuSans-20" x="127.246094"/>
      <use xlink:href="#DejaVuSans-79" x="159.033203"/>
      <use xlink:href="#DejaVuSans-72" x="218.212891"/>
     </g>
    </g>
   </g>
  </g>
  <g id="axes_7">
   <g id="patch_38">
    <path d="M 243.923478 276.48 
L 321.558261 276.48 
L 321.558261 169.658182 
L 243.923478 169.658182 
z
" style="fill: #ffffff"/>
   </g>
   <g id="matplotlib.axis_13">
    <g id="xtick_13">
     <g id="line2d_43">
      <g>
       <use xlink:href="#m1f3af5ba9d" x="244.998752" y="276.48" style="stroke: #000000; stroke-width: 0.6"/>
      </g>
     </g>
    </g>
    <g id="xtick_14">
     <g id="line2d_44">
      <g>
       <use xlink:href="#m1f3af5ba9d" x="288.009712" y="276.48" style="stroke: #000000; stroke-width: 0.6"/>
      </g>
     </g>
    </g>
    <g id="text_9">
     <!-- DATE -->
     <g transform="translate(269.732276 293.478437) scale(0.1 -0.1)">
      <use xlink:href="#DejaVuSans-44"/>
      <use xlink:href="#DejaVuSans-41" x="75.251953"/>
      <use xlink:href="#DejaVuSans-54" x="135.910156"/>
      <use xlink:href="#DejaVuSans-45" x="196.994141"/>
     </g>
    </g>
   </g>
   <g id="matplotlib.axis_14">
    <g id="ytick_19">
     <g id="line2d_45">
      <g>
       <use xlink:href="#m04a64f854b" x="243.923478" y="276.289171" style="stroke: #000000; stroke-width: 0.6"/>
      </g>
     </g>
    </g>
    <g id="ytick_20">
     <g id="line2d_46">
      <g>
       <use xlink:href="#m04a64f854b" x="243.923478" y="233.882733" style="stroke: #000000; stroke-width: 0.6"/>
      </g>
     </g>
    </g>
    <g id="ytick_21">
     <g id="line2d_47">
      <g>
       <use xlink:href="#m04a64f854b" x="243.923478" y="191.476294" style="stroke: #000000; stroke-width: 0.6"/>
      </g>
     </g>
    </g>
   </g>
   <g id="line2d_48">
    <path d="M 243.923478 232.822572 
L 244.138533 231.762411 
L 244.353588 231.338346 
L 244.568643 231.338346 
L 244.783697 230.70225 
L 245.428862 230.70225 
L 245.643917 231.126314 
L 245.858971 231.126314 
L 246.074026 231.762411 
L 246.289081 230.066153 
L 247.1493 228.79396 
L 247.364355 229.642089 
L 247.57941 229.854121 
L 247.794465 231.126314 
L 248.439629 230.70225 
L 248.869739 229.218024 
L 249.299848 230.914282 
L 249.945013 230.278185 
L 250.160067 229.854121 
L 250.375122 230.278185 
L 250.590177 229.642089 
L 250.805232 227.733799 
L 251.450396 227.945831 
L 251.665451 227.309735 
L 251.880506 227.309735 
L 252.095561 226.037542 
L 252.310615 227.521767 
L 252.95578 226.461606 
L 253.170835 224.977381 
L 253.600944 226.461606 
L 253.815999 227.521767 
L 254.676218 227.309735 
L 254.891273 226.249574 
L 255.106328 226.249574 
L 255.321383 226.037542 
L 256.181602 229.854121 
L 256.396657 227.097703 
L 256.611711 227.097703 
L 256.826766 229.005992 
L 257.471931 227.733799 
L 258.117095 224.341284 
L 258.33215 224.341284 
L 258.977314 222.00893 
L 259.192369 221.796898 
L 259.407424 222.00893 
L 259.622479 221.160801 
L 259.837533 222.645027 
L 260.697753 218.828447 
L 260.912807 220.10064 
L 261.127862 220.524705 
L 261.342917 218.19235 
L 261.988081 218.616415 
L 262.633246 221.372833 
L 262.848301 221.160801 
L 263.493465 220.312672 
L 263.923575 216.708125 
L 264.353684 213.951707 
L 264.998849 212.255449 
L 265.428958 213.31561 
L 265.644013 210.771224 
L 266.504232 210.135127 
L 266.719287 208.650902 
L 266.934342 210.983256 
L 267.364451 209.711063 
L 268.224671 212.043417 
L 268.439725 210.983256 
L 268.65478 210.559192 
L 269.514999 207.166677 
L 269.730054 208.226837 
L 269.945109 208.226837 
L 270.375219 203.562129 
L 271.020383 204.62229 
L 271.450493 207.378709 
L 271.665547 208.014805 
L 271.880602 205.894483 
L 272.525767 206.318548 
L 272.740821 205.046355 
L 272.955876 207.590741 
L 273.170931 207.590741 
L 273.385986 209.074966 
L 274.03115 207.166677 
L 274.246205 209.286998 
L 274.46126 209.711063 
L 274.676315 208.862934 
L 274.891369 209.286998 
L 275.966643 206.106516 
L 276.181698 206.318548 
L 277.041917 203.986194 
L 277.256972 205.258387 
L 277.472027 204.198226 
L 277.687082 204.198226 
L 277.902137 203.138065 
L 278.762356 197.413196 
L 279.192465 200.169614 
L 279.40752 201.017743 
L 280.267739 199.321485 
L 280.482794 202.289936 
L 280.697849 203.138065 
L 280.912904 201.865872 
L 281.558068 200.805711 
L 281.773123 201.017743 
L 282.203233 204.62229 
L 282.418287 205.258387 
L 283.278507 206.106516 
L 283.493561 203.774161 
L 283.708616 203.138065 
L 283.923671 201.441807 
L 284.568835 203.562129 
L 284.78389 204.834322 
L 284.998945 205.258387 
L 285.214 205.046355 
L 285.429055 205.470419 
L 286.074219 204.410258 
L 286.289274 203.774161 
L 286.504329 203.562129 
L 286.934438 207.802773 
L 287.579603 206.742612 
L 288.009712 207.166677 
L 289.084986 210.135127 
L 289.300041 208.014805 
L 289.515096 209.074966 
L 289.730151 209.499031 
L 289.945205 206.954644 
L 290.59037 208.014805 
L 291.020479 206.954644 
L 291.235534 204.62229 
L 291.450589 205.470419 
L 292.095753 206.106516 
L 292.310808 206.106516 
L 292.525863 204.834322 
L 292.740918 205.258387 
L 292.955973 203.350097 
L 293.816192 202.289936 
L 294.031247 201.017743 
L 294.246301 202.714001 
L 294.461356 203.350097 
L 295.106521 202.077904 
L 295.321575 202.289936 
L 295.53663 201.441807 
L 295.751685 199.109453 
L 295.96674 199.74555 
L 296.826959 196.989131 
L 297.042014 198.473357 
L 298.117288 196.565067 
L 298.332343 196.777099 
L 298.547397 197.201164 
L 298.762452 196.777099 
L 298.977507 195.92897 
L 299.622671 196.353035 
L 299.837726 195.080842 
L 300.052781 197.201164 
L 300.267836 193.596616 
L 300.482891 194.232713 
L 301.128055 191.264262 
L 301.34311 188.295811 
L 301.558165 191.900359 
L 301.773219 191.476294 
L 301.988274 189.780037 
L 302.633439 191.476294 
L 302.848493 192.536455 
L 303.063548 190.416133 
L 303.278603 189.780037 
L 303.493658 188.719876 
L 304.353877 187.447683 
L 304.568932 187.659715 
L 304.783987 186.17549 
L 305.644206 185.327361 
L 305.859261 185.751425 
L 306.28937 181.510781 
L 306.504425 180.026556 
L 307.149589 178.966395 
L 307.579699 183.419071 
L 307.794754 184.691264 
L 308.009809 183.419071 
L 308.654973 182.146878 
L 308.870028 183.631103 
L 309.085083 182.782974 
L 309.300137 182.570942 
L 309.515192 181.086717 
L 310.160356 179.814524 
L 310.375411 181.510781 
L 310.590466 180.874685 
L 310.805521 186.387522 
L 311.66574 185.539393 
L 311.880795 187.235651 
L 312.09585 190.840198 
L 312.310904 189.355972 
L 312.525959 188.719876 
L 313.171124 188.507844 
L 313.601233 192.112391 
L 314.676507 192.112391 
L 314.891562 191.05223 
L 315.106617 191.476294 
L 315.321672 194.656777 
L 315.536726 195.92897 
L 316.181891 194.868809 
L 316.396946 196.353035 
L 316.612 198.685389 
L 316.827055 197.625228 
L 317.04211 195.292874 
L 317.687274 194.868809 
L 317.902329 196.989131 
L 318.117384 196.989131 
L 318.332439 198.049292 
L 318.547494 197.201164 
L 319.192658 195.292874 
L 319.407713 192.748487 
L 319.622768 192.96052 
L 319.837822 193.384584 
L 320.052877 191.688327 
L 321.128151 188.719876 
L 321.343206 189.568005 
L 321.558261 188.507844 
L 321.558261 188.507844 
" clip-path="url(#p081fccb57e)" style="fill: none; stroke: #e377c2; stroke-width: 1.5; stroke-linecap: square"/>
   </g>
   <g id="patch_39">
    <path d="M 243.923478 276.48 
L 243.923478 169.658182 
" style="fill: none; stroke: #000000; stroke-width: 0.8; stroke-linejoin: miter; stroke-linecap: square"/>
   </g>
   <g id="patch_40">
    <path d="M 321.558261 276.48 
L 321.558261 169.658182 
" style="fill: none; stroke: #000000; stroke-width: 0.8; stroke-linejoin: miter; stroke-linecap: square"/>
   </g>
   <g id="patch_41">
    <path d="M 243.923478 276.48 
L 321.558261 276.48 
" style="fill: none; stroke: #000000; stroke-width: 0.8; stroke-linejoin: miter; stroke-linecap: square"/>
   </g>
   <g id="patch_42">
    <path d="M 243.923478 169.658182 
L 321.558261 169.658182 
" style="fill: none; stroke: #000000; stroke-width: 0.8; stroke-linejoin: miter; stroke-linecap: square"/>
   </g>
   <g id="legend_7">
    <g id="patch_43">
     <path d="M 250.923478 271.48 
L 308.856291 271.48 
Q 310.856291 271.48 310.856291 269.48 
L 310.856291 255.801875 
Q 310.856291 253.801875 308.856291 253.801875 
L 250.923478 253.801875 
Q 248.923478 253.801875 248.923478 255.801875 
L 248.923478 269.48 
Q 248.923478 271.48 250.923478 271.48 
z
" style="fill: #ffffff; opacity: 0.8; stroke: #cccccc; stroke-linejoin: miter"/>
    </g>
    <g id="line2d_49">
     <path d="M 252.923478 261.900312 
L 262.923478 261.900312 
L 272.923478 261.900312 
" style="fill: none; stroke: #e377c2; stroke-width: 1.5; stroke-linecap: square"/>
    </g>
    <g id="text_10">
     <!-- 20 yr -->
     <g transform="translate(280.923478 265.400312) scale(0.1 -0.1)">
      <use xlink:href="#DejaVuSans-32"/>
      <use xlink:href="#DejaVuSans-30" x="63.623047"/>
      <use xlink:href="#DejaVuSans-20" x="127.246094"/>
      <use xlink:href="#DejaVuSans-79" x="159.033203"/>
      <use xlink:href="#DejaVuSans-72" x="218.212891"/>
     </g>
    </g>
   </g>
  </g>
  <g id="axes_8">
   <g id="patch_44">
    <path d="M 337.085217 276.48 
L 414.72 276.48 
L 414.72 169.658182 
L 337.085217 169.658182 
z
" style="fill: #ffffff"/>
   </g>
   <g id="matplotlib.axis_15">
    <g id="xtick_15">
     <g id="line2d_50">
      <g>
       <use xlink:href="#m1f3af5ba9d" x="338.160491" y="276.48" style="stroke: #000000; stroke-width: 0.6"/>
      </g>
     </g>
    </g>
    <g id="xtick_16">
     <g id="line2d_51">
      <g>
       <use xlink:href="#m1f3af5ba9d" x="381.171451" y="276.48" style="stroke: #000000; stroke-width: 0.6"/>
      </g>
     </g>
    </g>
    <g id="text_11">
     <!-- DATE -->
     <g transform="translate(362.894015 293.478437) scale(0.1 -0.1)">
      <use xlink:href="#DejaVuSans-44"/>
      <use xlink:href="#DejaVuSans-41" x="75.251953"/>
      <use xlink:href="#DejaVuSans-54" x="135.910156"/>
      <use xlink:href="#DejaVuSans-45" x="196.994141"/>
     </g>
    </g>
   </g>
   <g id="matplotlib.axis_16">
    <g id="ytick_22">
     <g id="line2d_52">
      <g>
       <use xlink:href="#m04a64f854b" x="337.085217" y="276.289171" style="stroke: #000000; stroke-width: 0.6"/>
      </g>
     </g>
    </g>
    <g id="ytick_23">
     <g id="line2d_53">
      <g>
       <use xlink:href="#m04a64f854b" x="337.085217" y="233.882733" style="stroke: #000000; stroke-width: 0.6"/>
      </g>
     </g>
    </g>
    <g id="ytick_24">
     <g id="line2d_54">
      <g>
       <use xlink:href="#m04a64f854b" x="337.085217" y="191.476294" style="stroke: #000000; stroke-width: 0.6"/>
      </g>
     </g>
    </g>
   </g>
   <g id="line2d_55">
    <path d="M 337.085217 233.6707 
L 337.300272 232.398507 
L 337.515327 231.974443 
L 337.730382 231.974443 
L 337.945437 231.550379 
L 338.590601 231.550379 
L 338.805656 232.186475 
L 339.020711 232.186475 
L 339.235765 232.822572 
L 339.45082 231.338346 
L 340.311039 230.066153 
L 340.526094 230.914282 
L 340.741149 230.914282 
L 340.956204 232.398507 
L 341.601368 231.762411 
L 341.816423 231.338346 
L 342.031478 230.490218 
L 342.246533 231.974443 
L 342.461587 232.398507 
L 343.321807 231.338346 
L 343.536861 231.550379 
L 343.751916 230.914282 
L 343.966971 229.005992 
L 344.612135 229.218024 
L 344.82719 228.581928 
L 345.042245 228.581928 
L 345.2573 227.521767 
L 345.472355 228.79396 
L 346.117519 227.733799 
L 346.332574 226.037542 
L 346.762683 227.309735 
L 346.977738 228.79396 
L 347.837957 228.79396 
L 348.053012 227.733799 
L 348.268067 227.945831 
L 348.483122 227.733799 
L 349.343341 231.550379 
L 349.558396 228.79396 
L 349.773451 228.79396 
L 349.988505 230.490218 
L 350.63367 229.854121 
L 351.063779 227.733799 
L 351.278834 225.825509 
L 351.493889 226.249574 
L 352.354108 223.493155 
L 352.569163 224.129252 
L 352.784218 223.281123 
L 352.999273 224.977381 
L 353.859492 221.160801 
L 354.074547 222.857059 
L 354.289601 223.069091 
L 354.504656 221.160801 
L 355.149821 221.796898 
L 355.794985 224.553316 
L 356.01004 224.553316 
L 356.655204 223.705187 
L 357.085314 220.524705 
L 357.515423 217.768286 
L 358.160588 216.072029 
L 358.590697 216.708125 
L 358.805752 214.375771 
L 359.665971 213.739674 
L 359.881026 212.467481 
L 360.096081 214.799835 
L 360.311136 213.951707 
L 360.526191 213.739674 
L 361.38641 215.647964 
L 361.601465 214.587803 
L 361.816519 214.375771 
L 362.676739 211.195288 
L 363.106848 212.467481 
L 363.536958 207.802773 
L 364.182122 208.650902 
L 364.827287 212.679514 
L 365.042341 210.559192 
L 365.687506 210.771224 
L 365.902561 209.074966 
L 366.117615 211.195288 
L 366.33267 211.619353 
L 366.547725 212.891546 
L 367.192889 210.983256 
L 367.407944 213.103578 
L 367.622999 213.31561 
L 367.838054 212.891546 
L 368.053109 213.31561 
L 369.128383 210.771224 
L 369.343437 210.771224 
L 369.558492 210.347159 
L 370.203657 208.650902 
L 370.418711 209.923095 
L 370.633766 208.862934 
L 370.848821 208.862934 
L 371.063876 208.43887 
L 371.70904 203.774161 
L 371.924095 203.138065 
L 372.569259 206.318548 
L 373.429479 204.410258 
L 373.644533 207.378709 
L 373.859588 208.226837 
L 374.074643 207.166677 
L 374.719807 206.106516 
L 374.934862 206.318548 
L 375.364972 209.711063 
L 375.580026 210.347159 
L 376.440246 211.619353 
L 376.870355 208.43887 
L 377.08541 206.954644 
L 377.730574 208.862934 
L 378.160684 210.983256 
L 378.375739 210.347159 
L 378.590794 210.559192 
L 379.235958 209.711063 
L 379.451013 209.074966 
L 379.666068 209.074966 
L 380.096177 212.679514 
L 380.741342 211.831385 
L 380.956396 212.043417 
L 381.171451 212.043417 
L 381.386506 212.255449 
L 381.601561 212.679514 
L 382.246725 214.375771 
L 382.46178 212.679514 
L 382.676835 213.527642 
L 382.89189 213.31561 
L 383.106944 211.40732 
L 383.752109 212.679514 
L 383.967164 212.467481 
L 384.182218 211.831385 
L 384.397273 209.499031 
L 384.612328 210.135127 
L 385.257492 210.559192 
L 385.472547 210.347159 
L 385.687602 209.499031 
L 385.902657 209.711063 
L 386.117712 208.014805 
L 386.762876 207.590741 
L 386.977931 207.166677 
L 387.192986 205.894483 
L 387.623095 208.226837 
L 388.26826 207.378709 
L 388.483314 207.802773 
L 388.698369 206.954644 
L 388.913424 204.834322 
L 389.128479 205.258387 
L 389.988698 202.289936 
L 390.203753 203.774161 
L 390.633862 202.714001 
L 391.279027 201.441807 
L 391.494082 201.865872 
L 391.709136 202.714001 
L 391.924191 202.501968 
L 392.139246 201.65384 
L 392.78441 201.65384 
L 392.999465 200.169614 
L 393.21452 202.077904 
L 393.429575 198.897421 
L 393.64463 199.74555 
L 394.289794 197.413196 
L 394.504849 194.232713 
L 394.719904 197.83726 
L 394.934958 197.625228 
L 395.150013 195.92897 
L 396.010232 197.83726 
L 396.225287 196.141003 
L 396.440342 195.504906 
L 396.655397 194.444745 
L 397.515616 193.172552 
L 397.730671 193.596616 
L 397.945726 192.112391 
L 398.805945 190.628166 
L 399.021 190.628166 
L 399.666164 184.479232 
L 400.311328 182.995007 
L 400.741438 187.447683 
L 400.956493 188.931908 
L 401.171548 188.295811 
L 401.816712 186.811586 
L 402.031767 188.507844 
L 402.246822 188.295811 
L 402.461876 187.659715 
L 402.676931 185.751425 
L 403.322096 184.2672 
L 403.53715 185.539393 
L 403.752205 184.903296 
L 403.96726 190.840198 
L 404.827479 189.992069 
L 405.257589 194.656777 
L 405.687698 193.172552 
L 406.332863 193.384584 
L 406.762972 196.989131 
L 407.838246 196.989131 
L 408.053301 195.504906 
L 408.268356 195.716938 
L 408.698466 200.805711 
L 409.34363 199.533518 
L 409.77374 203.774161 
L 409.988794 203.350097 
L 410.203849 200.805711 
L 410.849014 200.593679 
L 411.064068 201.441807 
L 411.279123 201.65384 
L 411.494178 202.501968 
L 411.709233 201.441807 
L 412.354397 199.533518 
L 412.569452 196.989131 
L 412.784507 196.989131 
L 412.999562 197.201164 
L 413.214616 195.292874 
L 414.074836 192.96052 
L 414.28989 191.900359 
L 414.504945 193.172552 
L 414.72 192.112391 
L 414.72 192.112391 
" clip-path="url(#p00df9cb32d)" style="fill: none; stroke: #7f7f7f; stroke-width: 1.5; stroke-linecap: square"/>
   </g>
   <g id="patch_45">
    <path d="M 337.085217 276.48 
L 337.085217 169.658182 
" style="fill: none; stroke: #000000; stroke-width: 0.8; stroke-linejoin: miter; stroke-linecap: square"/>
   </g>
   <g id="patch_46">
    <path d="M 414.72 276.48 
L 414.72 169.658182 
" style="fill: none; stroke: #000000; stroke-width: 0.8; stroke-linejoin: miter; stroke-linecap: square"/>
   </g>
   <g id="patch_47">
    <path d="M 337.085217 276.48 
L 414.72 276.48 
" style="fill: none; stroke: #000000; stroke-width: 0.8; stroke-linejoin: miter; stroke-linecap: square"/>
   </g>
   <g id="patch_48">
    <path d="M 337.085217 169.658182 
L 414.72 169.658182 
" style="fill: none; stroke: #000000; stroke-width: 0.8; stroke-linejoin: miter; stroke-linecap: square"/>
   </g>
   <g id="legend_8">
    <g id="patch_49">
     <path d="M 344.085217 271.48 
L 402.01803 271.48 
Q 404.01803 271.48 404.01803 269.48 
L 404.01803 255.801875 
Q 404.01803 253.801875 402.01803 253.801875 
L 344.085217 253.801875 
Q 342.085217 253.801875 342.085217 255.801875 
L 342.085217 269.48 
Q 342.085217 271.48 344.085217 271.48 
z
" style="fill: #ffffff; opacity: 0.8; stroke: #cccccc; stroke-linejoin: miter"/>
    </g>
    <g id="line2d_56">
     <path d="M 346.085217 261.900312 
L 356.085217 261.900312 
L 366.085217 261.900312 
" style="fill: none; stroke: #7f7f7f; stroke-width: 1.5; stroke-linecap: square"/>
    </g>
    <g id="text_12">
     <!-- 30 yr -->
     <g transform="translate(374.085217 265.400312) scale(0.1 -0.1)">
      <defs>
       <path id="DejaVuSans-33" d="M 2597 2516 
Q 3050 2419 3304 2112 
Q 3559 1806 3559 1356 
Q 3559 666 3084 287 
Q 2609 -91 1734 -91 
Q 1441 -91 1130 -33 
Q 819 25 488 141 
L 488 750 
Q 750 597 1062 519 
Q 1375 441 1716 441 
Q 2309 441 2620 675 
Q 2931 909 2931 1356 
Q 2931 1769 2642 2001 
Q 2353 2234 1838 2234 
L 1294 2234 
L 1294 2753 
L 1863 2753 
Q 2328 2753 2575 2939 
Q 2822 3125 2822 3475 
Q 2822 3834 2567 4026 
Q 2313 4219 1838 4219 
Q 1578 4219 1281 4162 
Q 984 4106 628 3988 
L 628 4550 
Q 988 4650 1302 4700 
Q 1616 4750 1894 4750 
Q 2613 4750 3031 4423 
Q 3450 4097 3450 3541 
Q 3450 3153 3228 2886 
Q 3006 2619 2597 2516 
z
" transform="scale(0.015625)"/>
      </defs>
      <use xlink:href="#DejaVuSans-33"/>
      <use xlink:href="#DejaVuSans-30" x="63.623047"/>
      <use xlink:href="#DejaVuSans-20" x="127.246094"/>
      <use xlink:href="#DejaVuSans-79" x="159.033203"/>
      <use xlink:href="#DejaVuSans-72" x="218.212891"/>
     </g>
    </g>
   </g>
  </g>
 </g>
 <defs>
  <clipPath id="pbc23ed5647">
   <rect x="57.6" y="41.472" width="77.634783" height="106.821818"/>
  </clipPath>
  <clipPath id="p95762c0628">
   <rect x="150.761739" y="41.472" width="77.634783" height="106.821818"/>
  </clipPath>
  <clipPath id="p93c76a6f4b">
   <rect x="243.923478" y="41.472" width="77.634783" height="106.821818"/>
  </clipPath>
  <clipPath id="p942295870b">
   <rect x="337.085217" y="41.472" width="77.634783" height="106.821818"/>
  </clipPath>
  <clipPath id="p0a5ac7c540">
   <rect x="57.6" y="169.658182" width="77.634783" height="106.821818"/>
  </clipPath>
  <clipPath id="pd97ca44f1d">
   <rect x="150.761739" y="169.658182" width="77.634783" height="106.821818"/>
  </clipPath>
  <clipPath id="p081fccb57e">
   <rect x="243.923478" y="169.658182" width="77.634783" height="106.821818"/>
  </clipPath>
  <clipPath id="p00df9cb32d">
   <rect x="337.085217" y="169.658182" width="77.634783" height="106.821818"/>
  </clipPath>
 </defs>
</svg>
