<?xml version="1.0" encoding="utf-8" standalone="no"?>
<!DOCTYPE svg PUBLIC "-//W3C//DTD SVG 1.1//EN"
  "http://www.w3.org/Graphics/SVG/1.1/DTD/svg11.dtd">
<svg xmlns:xlink="http://www.w3.org/1999/xlink" width="460.8pt" height="345.6pt" viewBox="0 0 460.8 345.6" xmlns="http://www.w3.org/2000/svg" version="1.1">
 <metadata>
  <rdf:RDF xmlns:dc="http://purl.org/dc/elements/1.1/" xmlns:cc="http://creativecommons.org/ns#" xmlns:rdf="http://www.w3.org/1999/02/22-rdf-syntax-ns#">
   <cc:Work>
    <dc:type rdf:resource="http://purl.org/dc/dcmitype/StillImage"/>
    <dc:date>2024-03-16T14:12:41.559597</dc:date>
    <dc:format>image/svg+xml</dc:format>
    <dc:creator>
     <cc:Agent>
      <dc:title>Matplotlib v3.8.3, https://matplotlib.org/</dc:title>
     </cc:Agent>
    </dc:creator>
   </cc:Work>
  </rdf:RDF>
 </metadata>
 <defs>
  <style type="text/css">*{stroke-linejoin: round; stroke-linecap: butt}</style>
 </defs>
 <g id="figure_1">
  <g id="patch_1">
   <path d="M 0 345.6 
L 460.8 345.6 
L 460.8 0 
L 0 0 
z
" style="fill: #ffffff"/>
  </g>
  <g id="axes_1">
   <g id="patch_2">
    <path d="M 57.6 162.432 
L 135.234783 162.432 
L 135.234783 41.472 
L 57.6 41.472 
z
" style="fill: #ffffff"/>
   </g>
   <g id="matplotlib.axis_1">
    <g id="xtick_1">
     <g id="line2d_1">
      <defs>
       <path id="m813b29d77b" d="M 0 0 
L 0 3.5 
" style="stroke: #000000; stroke-width: 0.8"/>
      </defs>
      <g>
       <use xlink:href="#m813b29d77b" x="89.510382" y="162.432" style="stroke: #000000; stroke-width: 0.8"/>
      </g>
     </g>
    </g>
    <g id="xtick_2">
     <g id="line2d_2">
      <g>
       <use xlink:href="#m813b29d77b" x="130.669877" y="162.432" style="stroke: #000000; stroke-width: 0.8"/>
      </g>
     </g>
    </g>
   </g>
   <g id="matplotlib.axis_2">
    <g id="ytick_1">
     <g id="line2d_3">
      <defs>
       <path id="m8ae760a3d2" d="M 0 0 
L -3.5 0 
" style="stroke: #000000; stroke-width: 0.8"/>
      </defs>
      <g>
       <use xlink:href="#m8ae760a3d2" x="57.6" y="162.432" style="stroke: #000000; stroke-width: 0.8"/>
      </g>
     </g>
     <g id="text_1">
      <!-- 0 -->
      <g transform="translate(44.2375 166.231219) scale(0.1 -0.1)">
       <defs>
        <path id="DejaVuSans-30" d="M 2034 4250 
Q 1547 4250 1301 3770 
Q 1056 3291 1056 2328 
Q 1056 1369 1301 889 
Q 1547 409 2034 409 
Q 2525 409 2770 889 
Q 3016 1369 3016 2328 
Q 3016 3291 2770 3770 
Q 2525 4250 2034 4250 
z
M 2034 4750 
Q 2819 4750 3233 4129 
Q 3647 3509 3647 2328 
Q 3647 1150 3233 529 
Q 2819 -91 2034 -91 
Q 1250 -91 836 529 
Q 422 1150 422 2328 
Q 422 3509 836 4129 
Q 1250 4750 2034 4750 
z
" transform="scale(0.015625)"/>
       </defs>
       <use xlink:href="#DejaVuSans-30"/>
      </g>
     </g>
    </g>
    <g id="ytick_2">
     <g id="line2d_4">
      <g>
       <use xlink:href="#m8ae760a3d2" x="57.6" y="132.192" style="stroke: #000000; stroke-width: 0.8"/>
      </g>
     </g>
     <g id="text_2">
      <!-- 5 -->
      <g transform="translate(44.2375 135.991219) scale(0.1 -0.1)">
       <defs>
        <path id="DejaVuSans-35" d="M 691 4666 
L 3169 4666 
L 3169 4134 
L 1269 4134 
L 1269 2991 
Q 1406 3038 1543 3061 
Q 1681 3084 1819 3084 
Q 2600 3084 3056 2656 
Q 3513 2228 3513 1497 
Q 3513 744 3044 326 
Q 2575 -91 1722 -91 
Q 1428 -91 1123 -41 
Q 819 9 494 109 
L 494 744 
Q 775 591 1075 516 
Q 1375 441 1709 441 
Q 2250 441 2565 725 
Q 2881 1009 2881 1497 
Q 2881 1984 2565 2268 
Q 2250 2553 1709 2553 
Q 1456 2553 1204 2497 
Q 953 2441 691 2322 
L 691 4666 
z
" transform="scale(0.015625)"/>
       </defs>
       <use xlink:href="#DejaVuSans-35"/>
      </g>
     </g>
    </g>
    <g id="ytick_3">
     <g id="line2d_5">
      <g>
       <use xlink:href="#m8ae760a3d2" x="57.6" y="101.952" style="stroke: #000000; stroke-width: 0.8"/>
      </g>
     </g>
     <g id="text_3">
      <!-- 10 -->
      <g transform="translate(37.875 105.751219) scale(0.1 -0.1)">
       <defs>
        <path id="DejaVuSans-31" d="M 794 531 
L 1825 531 
L 1825 4091 
L 703 3866 
L 703 4441 
L 1819 4666 
L 2450 4666 
L 2450 531 
L 3481 531 
L 3481 0 
L 794 0 
L 794 531 
z
" transform="scale(0.015625)"/>
       </defs>
       <use xlink:href="#DejaVuSans-31"/>
       <use xlink:href="#DejaVuSans-30" x="63.623047"/>
      </g>
     </g>
    </g>
    <g id="ytick_4">
     <g id="line2d_6">
      <g>
       <use xlink:href="#m8ae760a3d2" x="57.6" y="71.712" style="stroke: #000000; stroke-width: 0.8"/>
      </g>
     </g>
     <g id="text_4">
      <!-- 15 -->
      <g transform="translate(37.875 75.511219) scale(0.1 -0.1)">
       <use xlink:href="#DejaVuSans-31"/>
       <use xlink:href="#DejaVuSans-35" x="63.623047"/>
      </g>
     </g>
    </g>
    <g id="ytick_5">
     <g id="line2d_7">
      <g>
       <use xlink:href="#m8ae760a3d2" x="57.6" y="41.472" style="stroke: #000000; stroke-width: 0.8"/>
      </g>
     </g>
     <g id="text_5">
      <!-- 20 -->
      <g transform="translate(37.875 45.271219) scale(0.1 -0.1)">
       <defs>
        <path id="DejaVuSans-32" d="M 1228 531 
L 3431 531 
L 3431 0 
L 469 0 
L 469 531 
Q 828 903 1448 1529 
Q 2069 2156 2228 2338 
Q 2531 2678 2651 2914 
Q 2772 3150 2772 3378 
Q 2772 3750 2511 3984 
Q 2250 4219 1831 4219 
Q 1534 4219 1204 4116 
Q 875 4013 500 3803 
L 500 4441 
Q 881 4594 1212 4672 
Q 1544 4750 1819 4750 
Q 2544 4750 2975 4387 
Q 3406 4025 3406 3419 
Q 3406 3131 3298 2873 
Q 3191 2616 2906 2266 
Q 2828 2175 2409 1742 
Q 1991 1309 1228 531 
z
" transform="scale(0.015625)"/>
       </defs>
       <use xlink:href="#DejaVuSans-32"/>
       <use xlink:href="#DejaVuSans-30" x="63.623047"/>
      </g>
     </g>
    </g>
    <g id="text_6">
     <!-- Density -->
     <g transform="translate(31.795312 120.960594) rotate(-90) scale(0.1 -0.1)">
      <defs>
       <path id="DejaVuSans-44" d="M 1259 4147 
L 1259 519 
L 2022 519 
Q 2988 519 3436 956 
Q 3884 1394 3884 2338 
Q 3884 3275 3436 3711 
Q 2988 4147 2022 4147 
L 1259 4147 
z
M 628 4666 
L 1925 4666 
Q 3281 4666 3915 4102 
Q 4550 3538 4550 2338 
Q 4550 1131 3912 565 
Q 3275 0 1925 0 
L 628 0 
L 628 4666 
z
" transform="scale(0.015625)"/>
       <path id="DejaVuSans-65" d="M 3597 1894 
L 3597 1613 
L 953 1613 
Q 991 1019 1311 708 
Q 1631 397 2203 397 
Q 2534 397 2845 478 
Q 3156 559 3463 722 
L 3463 178 
Q 3153 47 2828 -22 
Q 2503 -91 2169 -91 
Q 1331 -91 842 396 
Q 353 884 353 1716 
Q 353 2575 817 3079 
Q 1281 3584 2069 3584 
Q 2775 3584 3186 3129 
Q 3597 2675 3597 1894 
z
M 3022 2063 
Q 3016 2534 2758 2815 
Q 2500 3097 2075 3097 
Q 1594 3097 1305 2825 
Q 1016 2553 972 2059 
L 3022 2063 
z
" transform="scale(0.015625)"/>
       <path id="DejaVuSans-6e" d="M 3513 2113 
L 3513 0 
L 2938 0 
L 2938 2094 
Q 2938 2591 2744 2837 
Q 2550 3084 2163 3084 
Q 1697 3084 1428 2787 
Q 1159 2491 1159 1978 
L 1159 0 
L 581 0 
L 581 3500 
L 1159 3500 
L 1159 2956 
Q 1366 3272 1645 3428 
Q 1925 3584 2291 3584 
Q 2894 3584 3203 3211 
Q 3513 2838 3513 2113 
z
" transform="scale(0.015625)"/>
       <path id="DejaVuSans-73" d="M 2834 3397 
L 2834 2853 
Q 2591 2978 2328 3040 
Q 2066 3103 1784 3103 
Q 1356 3103 1142 2972 
Q 928 2841 928 2578 
Q 928 2378 1081 2264 
Q 1234 2150 1697 2047 
L 1894 2003 
Q 2506 1872 2764 1633 
Q 3022 1394 3022 966 
Q 3022 478 2636 193 
Q 2250 -91 1575 -91 
Q 1294 -91 989 -36 
Q 684 19 347 128 
L 347 722 
Q 666 556 975 473 
Q 1284 391 1588 391 
Q 1994 391 2212 530 
Q 2431 669 2431 922 
Q 2431 1156 2273 1281 
Q 2116 1406 1581 1522 
L 1381 1569 
Q 847 1681 609 1914 
Q 372 2147 372 2553 
Q 372 3047 722 3315 
Q 1072 3584 1716 3584 
Q 2034 3584 2315 3537 
Q 2597 3491 2834 3397 
z
" transform="scale(0.015625)"/>
       <path id="DejaVuSans-69" d="M 603 3500 
L 1178 3500 
L 1178 0 
L 603 0 
L 603 3500 
z
M 603 4863 
L 1178 4863 
L 1178 4134 
L 603 4134 
L 603 4863 
z
" transform="scale(0.015625)"/>
       <path id="DejaVuSans-74" d="M 1172 4494 
L 1172 3500 
L 2356 3500 
L 2356 3053 
L 1172 3053 
L 1172 1153 
Q 1172 725 1289 603 
Q 1406 481 1766 481 
L 2356 481 
L 2356 0 
L 1766 0 
Q 1100 0 847 248 
Q 594 497 594 1153 
L 594 3053 
L 172 3053 
L 172 3500 
L 594 3500 
L 594 4494 
L 1172 4494 
z
" transform="scale(0.015625)"/>
       <path id="DejaVuSans-79" d="M 2059 -325 
Q 1816 -950 1584 -1140 
Q 1353 -1331 966 -1331 
L 506 -1331 
L 506 -850 
L 844 -850 
Q 1081 -850 1212 -737 
Q 1344 -625 1503 -206 
L 1606 56 
L 191 3500 
L 800 3500 
L 1894 763 
L 2988 3500 
L 3597 3500 
L 2059 -325 
z
" transform="scale(0.015625)"/>
      </defs>
      <use xlink:href="#DejaVuSans-44"/>
      <use xlink:href="#DejaVuSans-65" x="77.001953"/>
      <use xlink:href="#DejaVuSans-6e" x="138.525391"/>
      <use xlink:href="#DejaVuSans-73" x="201.904297"/>
      <use xlink:href="#DejaVuSans-69" x="254.003906"/>
      <use xlink:href="#DejaVuSans-74" x="281.787109"/>
      <use xlink:href="#DejaVuSans-79" x="320.996094"/>
     </g>
    </g>
   </g>
   <g id="line2d_8">
    <path d="M 61.128854 162.432 
L 76.318114 162.329996 
L 77.165887 162.059237 
L 79.285319 161.164404 
L 79.8505 161.342486 
L 81.475398 162.040962 
L 81.969932 161.948549 
L 82.464466 161.619493 
L 83.029648 160.932392 
L 83.665477 159.775931 
L 84.371955 158.008143 
L 85.007784 155.757001 
L 85.502318 153.214067 
L 85.996852 149.506114 
L 86.491386 143.99826 
L 86.98592 135.863763 
L 87.551102 122.42423 
L 88.398875 95.394174 
L 89.105352 74.936442 
L 89.529238 68.372674 
L 89.741181 67.32458 
L 89.811829 67.320125 
L 89.953125 67.819682 
L 90.165068 69.780806 
L 90.518306 75.852347 
L 91.083488 90.401185 
L 92.425795 126.248396 
L 93.061624 137.579869 
L 93.626806 144.365271 
L 94.191988 148.749263 
L 94.75717 151.494573 
L 95.392999 153.497462 
L 96.240772 155.425333 
L 97.371136 157.446136 
L 98.218908 158.598833 
L 98.78409 159.038308 
L 99.278624 159.152935 
L 99.985101 159.038733 
L 100.691579 159.001008 
L 101.25676 159.230261 
L 102.457772 160.109246 
L 105.707567 162.243679 
L 106.414044 162.287001 
L 107.261817 162.107819 
L 108.674771 161.764564 
L 109.381248 161.858527 
L 111.430032 162.320074 
L 112.277805 162.202929 
L 114.326589 161.780284 
L 115.174362 161.997767 
L 116.587316 162.359292 
L 118.070918 162.429501 
L 131.705929 162.432 
L 131.705929 162.432 
" clip-path="url(#pf923add835)" style="fill: none; stroke: #1f77b4; stroke-width: 1.5; stroke-linecap: square"/>
   </g>
   <g id="patch_3">
    <path d="M 57.6 162.432 
L 57.6 41.472 
" style="fill: none; stroke: #000000; stroke-width: 0.8; stroke-linejoin: miter; stroke-linecap: square"/>
   </g>
   <g id="patch_4">
    <path d="M 135.234783 162.432 
L 135.234783 41.472 
" style="fill: none; stroke: #000000; stroke-width: 0.8; stroke-linejoin: miter; stroke-linecap: square"/>
   </g>
   <g id="patch_5">
    <path d="M 57.6 162.432 
L 135.234783 162.432 
" style="fill: none; stroke: #000000; stroke-width: 0.8; stroke-linejoin: miter; stroke-linecap: square"/>
   </g>
   <g id="patch_6">
    <path d="M 57.6 41.472 
L 135.234783 41.472 
" style="fill: none; stroke: #000000; stroke-width: 0.8; stroke-linejoin: miter; stroke-linecap: square"/>
   </g>
  </g>
  <g id="axes_2">
   <g id="patch_7">
    <path d="M 150.761739 162.432 
L 228.396522 162.432 
L 228.396522 41.472 
L 150.761739 41.472 
z
" style="fill: #ffffff"/>
   </g>
   <g id="matplotlib.axis_3">
    <g id="xtick_3">
     <g id="line2d_9">
      <g>
       <use xlink:href="#m813b29d77b" x="182.672121" y="162.432" style="stroke: #000000; stroke-width: 0.8"/>
      </g>
     </g>
    </g>
    <g id="xtick_4">
     <g id="line2d_10">
      <g>
       <use xlink:href="#m813b29d77b" x="223.831617" y="162.432" style="stroke: #000000; stroke-width: 0.8"/>
      </g>
     </g>
    </g>
   </g>
   <g id="matplotlib.axis_4">
    <g id="ytick_6">
     <g id="line2d_11">
      <g>
       <use xlink:href="#m8ae760a3d2" x="150.761739" y="162.432" style="stroke: #000000; stroke-width: 0.8"/>
      </g>
     </g>
    </g>
    <g id="ytick_7">
     <g id="line2d_12">
      <g>
       <use xlink:href="#m8ae760a3d2" x="150.761739" y="132.192" style="stroke: #000000; stroke-width: 0.8"/>
      </g>
     </g>
    </g>
    <g id="ytick_8">
     <g id="line2d_13">
      <g>
       <use xlink:href="#m8ae760a3d2" x="150.761739" y="101.952" style="stroke: #000000; stroke-width: 0.8"/>
      </g>
     </g>
    </g>
    <g id="ytick_9">
     <g id="line2d_14">
      <g>
       <use xlink:href="#m8ae760a3d2" x="150.761739" y="71.712" style="stroke: #000000; stroke-width: 0.8"/>
      </g>
     </g>
    </g>
    <g id="ytick_10">
     <g id="line2d_15">
      <g>
       <use xlink:href="#m8ae760a3d2" x="150.761739" y="41.472" style="stroke: #000000; stroke-width: 0.8"/>
      </g>
     </g>
    </g>
   </g>
   <g id="line2d_16">
    <path d="M 159.156412 162.432 
L 171.697194 162.322613 
L 172.40705 162.051671 
L 173.235215 161.459438 
L 174.004225 160.987395 
L 174.536617 160.91956 
L 175.6014 160.915813 
L 176.015482 160.638289 
L 176.488719 160.040361 
L 177.021111 159.011013 
L 177.553503 157.475921 
L 178.085894 155.160212 
L 178.677441 151.423406 
L 179.268987 146.201184 
L 179.801379 139.440165 
L 180.33377 129.397869 
L 180.925317 113.477353 
L 182.345028 72.547826 
L 182.699956 68.627396 
L 182.87742 68.248001 
L 182.995729 68.583806 
L 183.173193 69.935265 
L 183.468966 74.227644 
L 183.942203 85.067214 
L 185.657687 128.072801 
L 186.308388 137.780741 
L 187.018244 145.303726 
L 187.668945 150.226631 
L 188.201336 152.866869 
L 188.733728 154.42079 
L 189.443584 155.66137 
L 190.330903 157.313461 
L 191.277377 159.060914 
L 191.69146 159.436883 
L 192.046387 159.498305 
L 192.46047 159.317969 
L 193.584408 158.632843 
L 193.939336 158.724426 
L 194.353418 159.101508 
L 196.305521 161.377585 
L 197.606923 162.087821 
L 198.494242 162.348791 
L 199.677335 162.426103 
L 201.333665 162.330357 
L 202.280139 162.031645 
L 203.344922 161.692064 
L 203.936468 161.75128 
L 205.178716 162.219127 
L 206.12519 162.396227 
L 208.018138 162.431902 
L 218.251889 162.432 
L 218.251889 162.432 
" clip-path="url(#p5213ea964f)" style="fill: none; stroke: #ff7f0e; stroke-width: 1.5; stroke-linecap: square"/>
   </g>
   <g id="patch_8">
    <path d="M 150.761739 162.432 
L 150.761739 41.472 
" style="fill: none; stroke: #000000; stroke-width: 0.8; stroke-linejoin: miter; stroke-linecap: square"/>
   </g>
   <g id="patch_9">
    <path d="M 228.396522 162.432 
L 228.396522 41.472 
" style="fill: none; stroke: #000000; stroke-width: 0.8; stroke-linejoin: miter; stroke-linecap: square"/>
   </g>
   <g id="patch_10">
    <path d="M 150.761739 162.432 
L 228.396522 162.432 
" style="fill: none; stroke: #000000; stroke-width: 0.8; stroke-linejoin: miter; stroke-linecap: square"/>
   </g>
   <g id="patch_11">
    <path d="M 150.761739 41.472 
L 228.396522 41.472 
" style="fill: none; stroke: #000000; stroke-width: 0.8; stroke-linejoin: miter; stroke-linecap: square"/>
   </g>
  </g>
  <g id="axes_3">
   <g id="patch_12">
    <path d="M 243.923478 162.432 
L 321.558261 162.432 
L 321.558261 41.472 
L 243.923478 41.472 
z
" style="fill: #ffffff"/>
   </g>
   <g id="matplotlib.axis_5">
    <g id="xtick_5">
     <g id="line2d_17">
      <g>
       <use xlink:href="#m813b29d77b" x="275.83386" y="162.432" style="stroke: #000000; stroke-width: 0.8"/>
      </g>
     </g>
    </g>
    <g id="xtick_6">
     <g id="line2d_18">
      <g>
       <use xlink:href="#m813b29d77b" x="316.993356" y="162.432" style="stroke: #000000; stroke-width: 0.8"/>
      </g>
     </g>
    </g>
   </g>
   <g id="matplotlib.axis_6">
    <g id="ytick_11">
     <g id="line2d_19">
      <g>
       <use xlink:href="#m8ae760a3d2" x="243.923478" y="162.432" style="stroke: #000000; stroke-width: 0.8"/>
      </g>
     </g>
    </g>
    <g id="ytick_12">
     <g id="line2d_20">
      <g>
       <use xlink:href="#m8ae760a3d2" x="243.923478" y="132.192" style="stroke: #000000; stroke-width: 0.8"/>
      </g>
     </g>
    </g>
    <g id="ytick_13">
     <g id="line2d_21">
      <g>
       <use xlink:href="#m8ae760a3d2" x="243.923478" y="101.952" style="stroke: #000000; stroke-width: 0.8"/>
      </g>
     </g>
    </g>
    <g id="ytick_14">
     <g id="line2d_22">
      <g>
       <use xlink:href="#m8ae760a3d2" x="243.923478" y="71.712" style="stroke: #000000; stroke-width: 0.8"/>
      </g>
     </g>
    </g>
    <g id="ytick_15">
     <g id="line2d_23">
      <g>
       <use xlink:href="#m8ae760a3d2" x="243.923478" y="41.472" style="stroke: #000000; stroke-width: 0.8"/>
      </g>
     </g>
    </g>
   </g>
   <g id="line2d_24">
    <path d="M 257.120413 162.432 
L 266.516326 162.321547 
L 267.193916 162.035276 
L 267.871506 161.495437 
L 268.549096 160.690992 
L 269.136341 159.611984 
L 269.949448 157.515985 
L 270.943247 154.453117 
L 271.485319 151.86346 
L 272.072563 147.772788 
L 272.614635 142.416203 
L 273.111535 135.098957 
L 273.653606 123.26939 
L 275.41534 80.689897 
L 275.912239 74.989746 
L 276.273621 72.848929 
L 276.454311 72.561827 
L 276.544657 72.657267 
L 276.725347 73.397079 
L 276.951211 75.485931 
L 277.267419 80.818557 
L 277.719146 93.071893 
L 279.209843 137.795266 
L 279.66157 143.522621 
L 280.068124 146.180338 
L 280.745714 148.858709 
L 282.778483 155.995778 
L 283.546419 158.013322 
L 284.088491 158.876005 
L 285.624361 160.887326 
L 286.211606 161.560568 
L 286.618159 161.72706 
L 287.115059 161.664859 
L 287.882994 161.559492 
L 288.470238 161.756409 
L 289.328519 162.041126 
L 289.825418 161.953596 
L 291.135425 161.57891 
L 291.677497 161.787607 
L 292.897159 162.334255 
L 293.845785 162.425232 
L 299.356849 162.432 
L 302.247899 162.432 
L 302.247899 162.432 
" clip-path="url(#p97f6799a7b)" style="fill: none; stroke: #2ca02c; stroke-width: 1.5; stroke-linecap: square"/>
   </g>
   <g id="patch_13">
    <path d="M 243.923478 162.432 
L 243.923478 41.472 
" style="fill: none; stroke: #000000; stroke-width: 0.8; stroke-linejoin: miter; stroke-linecap: square"/>
   </g>
   <g id="patch_14">
    <path d="M 321.558261 162.432 
L 321.558261 41.472 
" style="fill: none; stroke: #000000; stroke-width: 0.8; stroke-linejoin: miter; stroke-linecap: square"/>
   </g>
   <g id="patch_15">
    <path d="M 243.923478 162.432 
L 321.558261 162.432 
" style="fill: none; stroke: #000000; stroke-width: 0.8; stroke-linejoin: miter; stroke-linecap: square"/>
   </g>
   <g id="patch_16">
    <path d="M 243.923478 41.472 
L 321.558261 41.472 
" style="fill: none; stroke: #000000; stroke-width: 0.8; stroke-linejoin: miter; stroke-linecap: square"/>
   </g>
  </g>
  <g id="axes_4">
   <g id="patch_17">
    <path d="M 337.085217 162.432 
L 414.72 162.432 
L 414.72 41.472 
L 337.085217 41.472 
z
" style="fill: #ffffff"/>
   </g>
   <g id="matplotlib.axis_7">
    <g id="xtick_7">
     <g id="line2d_25">
      <g>
       <use xlink:href="#m813b29d77b" x="368.9956" y="162.432" style="stroke: #000000; stroke-width: 0.8"/>
      </g>
     </g>
    </g>
    <g id="xtick_8">
     <g id="line2d_26">
      <g>
       <use xlink:href="#m813b29d77b" x="410.155095" y="162.432" style="stroke: #000000; stroke-width: 0.8"/>
      </g>
     </g>
    </g>
   </g>
   <g id="matplotlib.axis_8">
    <g id="ytick_16">
     <g id="line2d_27">
      <g>
       <use xlink:href="#m8ae760a3d2" x="337.085217" y="162.432" style="stroke: #000000; stroke-width: 0.8"/>
      </g>
     </g>
    </g>
    <g id="ytick_17">
     <g id="line2d_28">
      <g>
       <use xlink:href="#m8ae760a3d2" x="337.085217" y="132.192" style="stroke: #000000; stroke-width: 0.8"/>
      </g>
     </g>
    </g>
    <g id="ytick_18">
     <g id="line2d_29">
      <g>
       <use xlink:href="#m8ae760a3d2" x="337.085217" y="101.952" style="stroke: #000000; stroke-width: 0.8"/>
      </g>
     </g>
    </g>
    <g id="ytick_19">
     <g id="line2d_30">
      <g>
       <use xlink:href="#m8ae760a3d2" x="337.085217" y="71.712" style="stroke: #000000; stroke-width: 0.8"/>
      </g>
     </g>
    </g>
    <g id="ytick_20">
     <g id="line2d_31">
      <g>
       <use xlink:href="#m8ae760a3d2" x="337.085217" y="41.472" style="stroke: #000000; stroke-width: 0.8"/>
      </g>
     </g>
    </g>
   </g>
   <g id="line2d_32">
    <path d="M 353.414981 162.432 
L 359.942039 162.330119 
L 360.44412 162.076881 
L 360.912729 161.569 
L 361.515227 160.526619 
L 363.757857 155.894621 
L 364.192994 153.941519 
L 364.728547 150.36037 
L 365.331045 144.758369 
L 365.866599 137.571395 
L 366.402152 127.009672 
L 368.109229 90.255906 
L 368.711726 83.029566 
L 369.146863 80.015929 
L 369.481584 78.994649 
L 369.648945 78.921062 
L 369.782833 79.095604 
L 369.983666 79.80755 
L 370.251442 81.780628 
L 370.586163 86.279608 
L 371.0213 95.763787 
L 372.795321 139.720255 
L 373.364347 146.29722 
L 373.8999 150.269335 
L 374.368509 152.267223 
L 377.079749 160.276899 
L 377.58183 160.87645 
L 378.117384 161.162882 
L 378.987658 161.584046 
L 380.192653 162.312045 
L 380.962511 162.42022 
L 384.041944 162.432 
L 386.853599 162.432 
L 386.853599 162.432 
" clip-path="url(#p0632f3b7bc)" style="fill: none; stroke: #d62728; stroke-width: 1.5; stroke-linecap: square"/>
   </g>
   <g id="patch_18">
    <path d="M 337.085217 162.432 
L 337.085217 41.472 
" style="fill: none; stroke: #000000; stroke-width: 0.8; stroke-linejoin: miter; stroke-linecap: square"/>
   </g>
   <g id="patch_19">
    <path d="M 414.72 162.432 
L 414.72 41.472 
" style="fill: none; stroke: #000000; stroke-width: 0.8; stroke-linejoin: miter; stroke-linecap: square"/>
   </g>
   <g id="patch_20">
    <path d="M 337.085217 162.432 
L 414.72 162.432 
" style="fill: none; stroke: #000000; stroke-width: 0.8; stroke-linejoin: miter; stroke-linecap: square"/>
   </g>
   <g id="patch_21">
    <path d="M 337.085217 41.472 
L 414.72 41.472 
" style="fill: none; stroke: #000000; stroke-width: 0.8; stroke-linejoin: miter; stroke-linecap: square"/>
   </g>
  </g>
  <g id="axes_5">
   <g id="patch_22">
    <path d="M 57.6 307.584 
L 135.234783 307.584 
L 135.234783 186.624 
L 57.6 186.624 
z
" style="fill: #ffffff"/>
   </g>
   <g id="matplotlib.axis_9">
    <g id="xtick_9">
     <g id="line2d_33">
      <g>
       <use xlink:href="#m813b29d77b" x="89.510382" y="307.584" style="stroke: #000000; stroke-width: 0.8"/>
      </g>
     </g>
     <g id="text_7">
      <!-- 0.0 -->
      <g transform="translate(81.55882 322.182437) scale(0.1 -0.1)">
       <defs>
        <path id="DejaVuSans-2e" d="M 684 794 
L 1344 794 
L 1344 0 
L 684 0 
L 684 794 
z
" transform="scale(0.015625)"/>
       </defs>
       <use xlink:href="#DejaVuSans-30"/>
       <use xlink:href="#DejaVuSans-2e" x="63.623047"/>
       <use xlink:href="#DejaVuSans-30" x="95.410156"/>
      </g>
     </g>
    </g>
    <g id="xtick_10">
     <g id="line2d_34">
      <g>
       <use xlink:href="#m813b29d77b" x="130.669877" y="307.584" style="stroke: #000000; stroke-width: 0.8"/>
      </g>
     </g>
     <g id="text_8">
      <!-- 0.5 -->
      <g transform="translate(122.718315 322.182437) scale(0.1 -0.1)">
       <use xlink:href="#DejaVuSans-30"/>
       <use xlink:href="#DejaVuSans-2e" x="63.623047"/>
       <use xlink:href="#DejaVuSans-35" x="95.410156"/>
      </g>
     </g>
    </g>
   </g>
   <g id="matplotlib.axis_10">
    <g id="ytick_21">
     <g id="line2d_35">
      <g>
       <use xlink:href="#m8ae760a3d2" x="57.6" y="307.584" style="stroke: #000000; stroke-width: 0.8"/>
      </g>
     </g>
     <g id="text_9">
      <!-- 0 -->
      <g transform="translate(44.2375 311.383219) scale(0.1 -0.1)">
       <use xlink:href="#DejaVuSans-30"/>
      </g>
     </g>
    </g>
    <g id="ytick_22">
     <g id="line2d_36">
      <g>
       <use xlink:href="#m8ae760a3d2" x="57.6" y="277.344" style="stroke: #000000; stroke-width: 0.8"/>
      </g>
     </g>
     <g id="text_10">
      <!-- 5 -->
      <g transform="translate(44.2375 281.143219) scale(0.1 -0.1)">
       <use xlink:href="#DejaVuSans-35"/>
      </g>
     </g>
    </g>
    <g id="ytick_23">
     <g id="line2d_37">
      <g>
       <use xlink:href="#m8ae760a3d2" x="57.6" y="247.104" style="stroke: #000000; stroke-width: 0.8"/>
      </g>
     </g>
     <g id="text_11">
      <!-- 10 -->
      <g transform="translate(37.875 250.903219) scale(0.1 -0.1)">
       <use xlink:href="#DejaVuSans-31"/>
       <use xlink:href="#DejaVuSans-30" x="63.623047"/>
      </g>
     </g>
    </g>
    <g id="ytick_24">
     <g id="line2d_38">
      <g>
       <use xlink:href="#m8ae760a3d2" x="57.6" y="216.864" style="stroke: #000000; stroke-width: 0.8"/>
      </g>
     </g>
     <g id="text_12">
      <!-- 15 -->
      <g transform="translate(37.875 220.663219) scale(0.1 -0.1)">
       <use xlink:href="#DejaVuSans-31"/>
       <use xlink:href="#DejaVuSans-35" x="63.623047"/>
      </g>
     </g>
    </g>
    <g id="ytick_25">
     <g id="line2d_39">
      <g>
       <use xlink:href="#m8ae760a3d2" x="57.6" y="186.624" style="stroke: #000000; stroke-width: 0.8"/>
      </g>
     </g>
     <g id="text_13">
      <!-- 20 -->
      <g transform="translate(37.875 190.423219) scale(0.1 -0.1)">
       <use xlink:href="#DejaVuSans-32"/>
       <use xlink:href="#DejaVuSans-30" x="63.623047"/>
      </g>
     </g>
    </g>
    <g id="text_14">
     <!-- Density -->
     <g transform="translate(31.795312 266.112594) rotate(-90) scale(0.1 -0.1)">
      <use xlink:href="#DejaVuSans-44"/>
      <use xlink:href="#DejaVuSans-65" x="77.001953"/>
      <use xlink:href="#DejaVuSans-6e" x="138.525391"/>
      <use xlink:href="#DejaVuSans-73" x="201.904297"/>
      <use xlink:href="#DejaVuSans-69" x="254.003906"/>
      <use xlink:href="#DejaVuSans-74" x="281.787109"/>
      <use xlink:href="#DejaVuSans-79" x="320.996094"/>
     </g>
    </g>
   </g>
   <g id="line2d_40">
    <path d="M 76.016135 307.584 
L 81.124198 307.473594 
L 81.523712 307.212135 
L 81.866152 306.714917 
L 82.265665 305.706391 
L 83.435668 302.387319 
L 83.835182 302.086314 
L 84.206158 301.778944 
L 84.491525 301.177583 
L 84.805428 299.93587 
L 85.204941 297.351831 
L 85.661528 292.886273 
L 86.146651 285.857486 
L 86.688848 274.362824 
L 88.172755 239.809616 
L 88.543731 236.612178 
L 88.886171 235.330303 
L 89.428368 233.719812 
L 89.770808 231.610246 
L 90.683981 225.261664 
L 90.769591 225.307378 
L 90.912274 225.854463 
L 91.112031 227.691296 
L 91.425934 233.114004 
L 91.911058 246.270951 
L 93.138134 281.07248 
L 93.680331 289.789473 
L 94.222528 295.057917 
L 94.764724 298.299496 
L 95.478141 301.166825 
L 96.105947 302.963307 
L 96.591071 303.735286 
L 97.361561 304.828041 
L 98.731321 307.226357 
L 99.216444 307.488422 
L 99.929861 307.576551 
L 104.010604 307.584 
L 104.524264 307.584 
L 104.524264 307.584 
" clip-path="url(#p054db20688)" style="fill: none; stroke: #9467bd; stroke-width: 1.5; stroke-linecap: square"/>
   </g>
   <g id="patch_23">
    <path d="M 57.6 307.584 
L 57.6 186.624 
" style="fill: none; stroke: #000000; stroke-width: 0.8; stroke-linejoin: miter; stroke-linecap: square"/>
   </g>
   <g id="patch_24">
    <path d="M 135.234783 307.584 
L 135.234783 186.624 
" style="fill: none; stroke: #000000; stroke-width: 0.8; stroke-linejoin: miter; stroke-linecap: square"/>
   </g>
   <g id="patch_25">
    <path d="M 57.6 307.584 
L 135.234783 307.584 
" style="fill: none; stroke: #000000; stroke-width: 0.8; stroke-linejoin: miter; stroke-linecap: square"/>
   </g>
   <g id="patch_26">
    <path d="M 57.6 186.624 
L 135.234783 186.624 
" style="fill: none; stroke: #000000; stroke-width: 0.8; stroke-linejoin: miter; stroke-linecap: square"/>
   </g>
  </g>
  <g id="axes_6">
   <g id="patch_27">
    <path d="M 150.761739 307.584 
L 228.396522 307.584 
L 228.396522 186.624 
L 150.761739 186.624 
z
" style="fill: #ffffff"/>
   </g>
   <g id="matplotlib.axis_11">
    <g id="xtick_11">
     <g id="line2d_41">
      <g>
       <use xlink:href="#m813b29d77b" x="182.672121" y="307.584" style="stroke: #000000; stroke-width: 0.8"/>
      </g>
     </g>
     <g id="text_15">
      <!-- 0.0 -->
      <g transform="translate(174.720559 322.182437) scale(0.1 -0.1)">
       <use xlink:href="#DejaVuSans-30"/>
       <use xlink:href="#DejaVuSans-2e" x="63.623047"/>
       <use xlink:href="#DejaVuSans-30" x="95.410156"/>
      </g>
     </g>
    </g>
    <g id="xtick_12">
     <g id="line2d_42">
      <g>
       <use xlink:href="#m813b29d77b" x="223.831617" y="307.584" style="stroke: #000000; stroke-width: 0.8"/>
      </g>
     </g>
     <g id="text_16">
      <!-- 0.5 -->
      <g transform="translate(215.880054 322.182437) scale(0.1 -0.1)">
       <use xlink:href="#DejaVuSans-30"/>
       <use xlink:href="#DejaVuSans-2e" x="63.623047"/>
       <use xlink:href="#DejaVuSans-35" x="95.410156"/>
      </g>
     </g>
    </g>
   </g>
   <g id="matplotlib.axis_12">
    <g id="ytick_26">
     <g id="line2d_43">
      <g>
       <use xlink:href="#m8ae760a3d2" x="150.761739" y="307.584" style="stroke: #000000; stroke-width: 0.8"/>
      </g>
     </g>
    </g>
    <g id="ytick_27">
     <g id="line2d_44">
      <g>
       <use xlink:href="#m8ae760a3d2" x="150.761739" y="277.344" style="stroke: #000000; stroke-width: 0.8"/>
      </g>
     </g>
    </g>
    <g id="ytick_28">
     <g id="line2d_45">
      <g>
       <use xlink:href="#m8ae760a3d2" x="150.761739" y="247.104" style="stroke: #000000; stroke-width: 0.8"/>
      </g>
     </g>
    </g>
    <g id="ytick_29">
     <g id="line2d_46">
      <g>
       <use xlink:href="#m8ae760a3d2" x="150.761739" y="216.864" style="stroke: #000000; stroke-width: 0.8"/>
      </g>
     </g>
    </g>
    <g id="ytick_30">
     <g id="line2d_47">
      <g>
       <use xlink:href="#m8ae760a3d2" x="150.761739" y="186.624" style="stroke: #000000; stroke-width: 0.8"/>
      </g>
     </g>
    </g>
   </g>
   <g id="line2d_48">
    <path d="M 170.022348 307.584 
L 174.899177 307.474071 
L 175.298917 307.21095 
L 175.645358 306.708838 
L 176.071748 305.631608 
L 177.697357 300.923529 
L 178.043799 299.756881 
L 178.39024 297.728718 
L 178.78998 293.92959 
L 179.243019 287.401573 
L 179.749356 276.599049 
L 181.374966 237.838382 
L 181.694758 235.921344 
L 182.0412 235.102427 
L 182.334342 234.276544 
L 182.600836 232.65337 
L 182.947277 228.82484 
L 183.693459 219.910141 
L 183.800056 219.675163 
L 183.853355 219.725639 
L 183.986601 220.370475 
L 184.199796 222.961094 
L 184.519588 230.047066 
L 185.185822 251.349052 
L 186.011951 275.323924 
L 186.598237 286.164568 
L 187.26447 294.23109 
L 187.984002 300.520268 
L 188.437041 302.885917 
L 188.783482 303.713852 
L 189.103274 303.950038 
L 189.68956 304.219953 
L 190.036001 304.765404 
L 191.368468 307.294456 
L 191.821507 307.513536 
L 192.567688 307.580735 
L 196.645037 307.584 
L 196.645037 307.584 
" clip-path="url(#p6c7cfb02d1)" style="fill: none; stroke: #8c564b; stroke-width: 1.5; stroke-linecap: square"/>
   </g>
   <g id="patch_28">
    <path d="M 150.761739 307.584 
L 150.761739 186.624 
" style="fill: none; stroke: #000000; stroke-width: 0.8; stroke-linejoin: miter; stroke-linecap: square"/>
   </g>
   <g id="patch_29">
    <path d="M 228.396522 307.584 
L 228.396522 186.624 
" style="fill: none; stroke: #000000; stroke-width: 0.8; stroke-linejoin: miter; stroke-linecap: square"/>
   </g>
   <g id="patch_30">
    <path d="M 150.761739 307.584 
L 228.396522 307.584 
" style="fill: none; stroke: #000000; stroke-width: 0.8; stroke-linejoin: miter; stroke-linecap: square"/>
   </g>
   <g id="patch_31">
    <path d="M 150.761739 186.624 
L 228.396522 186.624 
" style="fill: none; stroke: #000000; stroke-width: 0.8; stroke-linejoin: miter; stroke-linecap: square"/>
   </g>
  </g>
  <g id="axes_7">
   <g id="patch_32">
    <path d="M 243.923478 307.584 
L 321.558261 307.584 
L 321.558261 186.624 
L 243.923478 186.624 
z
" style="fill: #ffffff"/>
   </g>
   <g id="matplotlib.axis_13">
    <g id="xtick_13">
     <g id="line2d_49">
      <g>
       <use xlink:href="#m813b29d77b" x="275.83386" y="307.584" style="stroke: #000000; stroke-width: 0.8"/>
      </g>
     </g>
     <g id="text_17">
      <!-- 0.0 -->
      <g transform="translate(267.882298 322.182437) scale(0.1 -0.1)">
       <use xlink:href="#DejaVuSans-30"/>
       <use xlink:href="#DejaVuSans-2e" x="63.623047"/>
       <use xlink:href="#DejaVuSans-30" x="95.410156"/>
      </g>
     </g>
    </g>
    <g id="xtick_14">
     <g id="line2d_50">
      <g>
       <use xlink:href="#m813b29d77b" x="316.993356" y="307.584" style="stroke: #000000; stroke-width: 0.8"/>
      </g>
     </g>
     <g id="text_18">
      <!-- 0.5 -->
      <g transform="translate(309.041793 322.182437) scale(0.1 -0.1)">
       <use xlink:href="#DejaVuSans-30"/>
       <use xlink:href="#DejaVuSans-2e" x="63.623047"/>
       <use xlink:href="#DejaVuSans-35" x="95.410156"/>
      </g>
     </g>
    </g>
   </g>
   <g id="matplotlib.axis_14">
    <g id="ytick_31">
     <g id="line2d_51">
      <g>
       <use xlink:href="#m8ae760a3d2" x="243.923478" y="307.584" style="stroke: #000000; stroke-width: 0.8"/>
      </g>
     </g>
    </g>
    <g id="ytick_32">
     <g id="line2d_52">
      <g>
       <use xlink:href="#m8ae760a3d2" x="243.923478" y="277.344" style="stroke: #000000; stroke-width: 0.8"/>
      </g>
     </g>
    </g>
    <g id="ytick_33">
     <g id="line2d_53">
      <g>
       <use xlink:href="#m8ae760a3d2" x="243.923478" y="247.104" style="stroke: #000000; stroke-width: 0.8"/>
      </g>
     </g>
    </g>
    <g id="ytick_34">
     <g id="line2d_54">
      <g>
       <use xlink:href="#m8ae760a3d2" x="243.923478" y="216.864" style="stroke: #000000; stroke-width: 0.8"/>
      </g>
     </g>
    </g>
    <g id="ytick_35">
     <g id="line2d_55">
      <g>
       <use xlink:href="#m8ae760a3d2" x="243.923478" y="186.624" style="stroke: #000000; stroke-width: 0.8"/>
      </g>
     </g>
    </g>
   </g>
   <g id="line2d_56">
    <path d="M 265.955582 307.584 
L 269.770217 307.477814 
L 270.118866 307.207642 
L 270.467516 306.630428 
L 271.185323 304.839121 
L 271.595499 303.47168 
L 271.903131 301.498137 
L 272.25178 297.528315 
L 272.682465 289.826341 
L 273.174676 276.766302 
L 273.892484 250.427691 
L 274.753853 221.291988 
L 275.225555 212.092253 
L 275.574204 209.010835 
L 276.148451 205.270921 
L 276.681679 200.738831 
L 276.702188 200.745391 
L 276.784223 201.037681 
L 276.927785 202.699874 
L 277.153381 208.446403 
L 277.584066 226.830724 
L 278.383909 259.542172 
L 279.20426 282.612534 
L 279.901559 297.717434 
L 280.270718 301.687897 
L 280.598858 303.195827 
L 281.398701 305.183931 
L 282.178035 307.066895 
L 282.567702 307.447552 
L 283.018896 307.567034 
L 284.516037 307.584 
L 286.443864 307.584 
L 286.443864 307.584 
" clip-path="url(#p191d24a42b)" style="fill: none; stroke: #e377c2; stroke-width: 1.5; stroke-linecap: square"/>
   </g>
   <g id="patch_33">
    <path d="M 243.923478 307.584 
L 243.923478 186.624 
" style="fill: none; stroke: #000000; stroke-width: 0.8; stroke-linejoin: miter; stroke-linecap: square"/>
   </g>
   <g id="patch_34">
    <path d="M 321.558261 307.584 
L 321.558261 186.624 
" style="fill: none; stroke: #000000; stroke-width: 0.8; stroke-linejoin: miter; stroke-linecap: square"/>
   </g>
   <g id="patch_35">
    <path d="M 243.923478 307.584 
L 321.558261 307.584 
" style="fill: none; stroke: #000000; stroke-width: 0.8; stroke-linejoin: miter; stroke-linecap: square"/>
   </g>
   <g id="patch_36">
    <path d="M 243.923478 186.624 
L 321.558261 186.624 
" style="fill: none; stroke: #000000; stroke-width: 0.8; stroke-linejoin: miter; stroke-linecap: square"/>
   </g>
  </g>
  <g id="axes_8">
   <g id="patch_37">
    <path d="M 337.085217 307.584 
L 414.72 307.584 
L 414.72 186.624 
L 337.085217 186.624 
z
" style="fill: #ffffff"/>
   </g>
   <g id="matplotlib.axis_15">
    <g id="xtick_15">
     <g id="line2d_57">
      <g>
       <use xlink:href="#m813b29d77b" x="368.9956" y="307.584" style="stroke: #000000; stroke-width: 0.8"/>
      </g>
     </g>
     <g id="text_19">
      <!-- 0.0 -->
      <g transform="translate(361.044037 322.182437) scale(0.1 -0.1)">
       <use xlink:href="#DejaVuSans-30"/>
       <use xlink:href="#DejaVuSans-2e" x="63.623047"/>
       <use xlink:href="#DejaVuSans-30" x="95.410156"/>
      </g>
     </g>
    </g>
    <g id="xtick_16">
     <g id="line2d_58">
      <g>
       <use xlink:href="#m813b29d77b" x="410.155095" y="307.584" style="stroke: #000000; stroke-width: 0.8"/>
      </g>
     </g>
     <g id="text_20">
      <!-- 0.5 -->
      <g transform="translate(402.203532 322.182437) scale(0.1 -0.1)">
       <use xlink:href="#DejaVuSans-30"/>
       <use xlink:href="#DejaVuSans-2e" x="63.623047"/>
       <use xlink:href="#DejaVuSans-35" x="95.410156"/>
      </g>
     </g>
    </g>
   </g>
   <g id="matplotlib.axis_16">
    <g id="ytick_36">
     <g id="line2d_59">
      <g>
       <use xlink:href="#m8ae760a3d2" x="337.085217" y="307.584" style="stroke: #000000; stroke-width: 0.8"/>
      </g>
     </g>
    </g>
    <g id="ytick_37">
     <g id="line2d_60">
      <g>
       <use xlink:href="#m8ae760a3d2" x="337.085217" y="277.344" style="stroke: #000000; stroke-width: 0.8"/>
      </g>
     </g>
    </g>
    <g id="ytick_38">
     <g id="line2d_61">
      <g>
       <use xlink:href="#m8ae760a3d2" x="337.085217" y="247.104" style="stroke: #000000; stroke-width: 0.8"/>
      </g>
     </g>
    </g>
    <g id="ytick_39">
     <g id="line2d_62">
      <g>
       <use xlink:href="#m8ae760a3d2" x="337.085217" y="216.864" style="stroke: #000000; stroke-width: 0.8"/>
      </g>
     </g>
    </g>
    <g id="ytick_40">
     <g id="line2d_63">
      <g>
       <use xlink:href="#m8ae760a3d2" x="337.085217" y="186.624" style="stroke: #000000; stroke-width: 0.8"/>
      </g>
     </g>
    </g>
   </g>
   <g id="line2d_64">
    <path d="M 358.14408 307.584 
L 362.331041 307.47403 
L 362.727701 307.180129 
L 363.234543 306.450643 
L 363.807496 305.746485 
L 364.292302 305.173503 
L 364.578778 304.378128 
L 364.887291 302.762049 
L 365.21784 299.687935 
L 365.570427 294.128912 
L 366.011159 283.133437 
L 368.457226 213.723151 
L 368.897959 207.194583 
L 369.162398 205.709049 
L 369.294618 205.588487 
L 369.316655 205.600748 
L 369.448875 205.835949 
L 369.691278 206.872388 
L 369.977754 209.213121 
L 370.286267 213.870491 
L 370.66089 223.391277 
L 371.366062 248.677192 
L 372.357711 281.647252 
L 372.974737 295.900977 
L 373.393433 301.260204 
L 373.746019 303.371669 
L 374.098605 304.260476 
L 374.980071 305.962917 
L 375.597096 307.161866 
L 375.993756 307.477168 
L 376.522635 307.575269 
L 379.167032 307.584 
L 380.15868 307.584 
L 380.15868 307.584 
" clip-path="url(#p4d0a6f1e6d)" style="fill: none; stroke: #7f7f7f; stroke-width: 1.5; stroke-linecap: square"/>
   </g>
   <g id="patch_38">
    <path d="M 337.085217 307.584 
L 337.085217 186.624 
" style="fill: none; stroke: #000000; stroke-width: 0.8; stroke-linejoin: miter; stroke-linecap: square"/>
   </g>
   <g id="patch_39">
    <path d="M 414.72 307.584 
L 414.72 186.624 
" style="fill: none; stroke: #000000; stroke-width: 0.8; stroke-linejoin: miter; stroke-linecap: square"/>
   </g>
   <g id="patch_40">
    <path d="M 337.085217 307.584 
L 414.72 307.584 
" style="fill: none; stroke: #000000; stroke-width: 0.8; stroke-linejoin: miter; stroke-linecap: square"/>
   </g>
   <g id="patch_41">
    <path d="M 337.085217 186.624 
L 414.72 186.624 
" style="fill: none; stroke: #000000; stroke-width: 0.8; stroke-linejoin: miter; stroke-linecap: square"/>
   </g>
  </g>
 </g>
 <defs>
  <clipPath id="pf923add835">
   <rect x="57.6" y="41.472" width="77.634783" height="120.96"/>
  </clipPath>
  <clipPath id="p5213ea964f">
   <rect x="150.761739" y="41.472" width="77.634783" height="120.96"/>
  </clipPath>
  <clipPath id="p97f6799a7b">
   <rect x="243.923478" y="41.472" width="77.634783" height="120.96"/>
  </clipPath>
  <clipPath id="p0632f3b7bc">
   <rect x="337.085217" y="41.472" width="77.634783" height="120.96"/>
  </clipPath>
  <clipPath id="p054db20688">
   <rect x="57.6" y="186.624" width="77.634783" height="120.96"/>
  </clipPath>
  <clipPath id="p6c7cfb02d1">
   <rect x="150.761739" y="186.624" width="77.634783" height="120.96"/>
  </clipPath>
  <clipPath id="p191d24a42b">
   <rect x="243.923478" y="186.624" width="77.634783" height="120.96"/>
  </clipPath>
  <clipPath id="p4d0a6f1e6d">
   <rect x="337.085217" y="186.624" width="77.634783" height="120.96"/>
  </clipPath>
 </defs>
</svg>
