<?xml version="1.0" encoding="utf-8" standalone="no"?>
<!DOCTYPE svg PUBLIC "-//W3C//DTD SVG 1.1//EN"
  "http://www.w3.org/Graphics/SVG/1.1/DTD/svg11.dtd">
<svg xmlns:xlink="http://www.w3.org/1999/xlink" width="460.8pt" height="345.6pt" viewBox="0 0 460.8 345.6" xmlns="http://www.w3.org/2000/svg" version="1.1">
 <metadata>
  <rdf:RDF xmlns:dc="http://purl.org/dc/elements/1.1/" xmlns:cc="http://creativecommons.org/ns#" xmlns:rdf="http://www.w3.org/1999/02/22-rdf-syntax-ns#">
   <cc:Work>
    <dc:type rdf:resource="http://purl.org/dc/dcmitype/StillImage"/>
    <dc:date>2024-03-16T13:51:59.080814</dc:date>
    <dc:format>image/svg+xml</dc:format>
    <dc:creator>
     <cc:Agent>
      <dc:title>Matplotlib v3.8.3, https://matplotlib.org/</dc:title>
     </cc:Agent>
    </dc:creator>
   </cc:Work>
  </rdf:RDF>
 </metadata>
 <defs>
  <style type="text/css">*{stroke-linejoin: round; stroke-linecap: butt}</style>
 </defs>
 <g id="figure_1">
  <g id="patch_1">
   <path d="M 0 345.6 
L 460.8 345.6 
L 460.8 0 
L 0 0 
z
" style="fill: #ffffff"/>
  </g>
  <g id="axes_1">
   <g id="patch_2">
    <path d="M 57.6 276.48 
L 414.72 276.48 
L 414.72 41.472 
L 57.6 41.472 
z
" style="fill: #ffffff"/>
   </g>
   <g id="matplotlib.axis_1">
    <g id="xtick_1">
     <g id="line2d_1">
      <defs>
       <path id="m47f1a4c112" d="M 0 0 
L 0 3.5 
" style="stroke: #000000; stroke-width: 0.8"/>
      </defs>
      <g>
       <use xlink:href="#m47f1a4c112" x="86.28831" y="276.48" style="stroke: #000000; stroke-width: 0.8"/>
      </g>
     </g>
     <g id="text_1">
      <!-- 2022-02 -->
      <g transform="translate(49.063489 310.951846) rotate(-30) scale(0.1 -0.1)">
       <defs>
        <path id="DejaVuSans-32" d="M 1228 531 
L 3431 531 
L 3431 0 
L 469 0 
L 469 531 
Q 828 903 1448 1529 
Q 2069 2156 2228 2338 
Q 2531 2678 2651 2914 
Q 2772 3150 2772 3378 
Q 2772 3750 2511 3984 
Q 2250 4219 1831 4219 
Q 1534 4219 1204 4116 
Q 875 4013 500 3803 
L 500 4441 
Q 881 4594 1212 4672 
Q 1544 4750 1819 4750 
Q 2544 4750 2975 4387 
Q 3406 4025 3406 3419 
Q 3406 3131 3298 2873 
Q 3191 2616 2906 2266 
Q 2828 2175 2409 1742 
Q 1991 1309 1228 531 
z
" transform="scale(0.015625)"/>
        <path id="DejaVuSans-30" d="M 2034 4250 
Q 1547 4250 1301 3770 
Q 1056 3291 1056 2328 
Q 1056 1369 1301 889 
Q 1547 409 2034 409 
Q 2525 409 2770 889 
Q 3016 1369 3016 2328 
Q 3016 3291 2770 3770 
Q 2525 4250 2034 4250 
z
M 2034 4750 
Q 2819 4750 3233 4129 
Q 3647 3509 3647 2328 
Q 3647 1150 3233 529 
Q 2819 -91 2034 -91 
Q 1250 -91 836 529 
Q 422 1150 422 2328 
Q 422 3509 836 4129 
Q 1250 4750 2034 4750 
z
" transform="scale(0.015625)"/>
        <path id="DejaVuSans-2d" d="M 313 2009 
L 1997 2009 
L 1997 1497 
L 313 1497 
L 313 2009 
z
" transform="scale(0.015625)"/>
       </defs>
       <use xlink:href="#DejaVuSans-32"/>
       <use xlink:href="#DejaVuSans-30" x="63.623047"/>
       <use xlink:href="#DejaVuSans-32" x="127.246094"/>
       <use xlink:href="#DejaVuSans-32" x="190.869141"/>
       <use xlink:href="#DejaVuSans-2d" x="254.492188"/>
       <use xlink:href="#DejaVuSans-30" x="290.576172"/>
       <use xlink:href="#DejaVuSans-32" x="354.199219"/>
      </g>
     </g>
    </g>
    <g id="xtick_2">
     <g id="line2d_2">
      <g>
       <use xlink:href="#m47f1a4c112" x="113.987368" y="276.48" style="stroke: #000000; stroke-width: 0.8"/>
      </g>
     </g>
     <g id="text_2">
      <!-- 2022-03 -->
      <g transform="translate(76.762548 310.951846) rotate(-30) scale(0.1 -0.1)">
       <defs>
        <path id="DejaVuSans-33" d="M 2597 2516 
Q 3050 2419 3304 2112 
Q 3559 1806 3559 1356 
Q 3559 666 3084 287 
Q 2609 -91 1734 -91 
Q 1441 -91 1130 -33 
Q 819 25 488 141 
L 488 750 
Q 750 597 1062 519 
Q 1375 441 1716 441 
Q 2309 441 2620 675 
Q 2931 909 2931 1356 
Q 2931 1769 2642 2001 
Q 2353 2234 1838 2234 
L 1294 2234 
L 1294 2753 
L 1863 2753 
Q 2328 2753 2575 2939 
Q 2822 3125 2822 3475 
Q 2822 3834 2567 4026 
Q 2313 4219 1838 4219 
Q 1578 4219 1281 4162 
Q 984 4106 628 3988 
L 628 4550 
Q 988 4650 1302 4700 
Q 1616 4750 1894 4750 
Q 2613 4750 3031 4423 
Q 3450 4097 3450 3541 
Q 3450 3153 3228 2886 
Q 3006 2619 2597 2516 
z
" transform="scale(0.015625)"/>
       </defs>
       <use xlink:href="#DejaVuSans-32"/>
       <use xlink:href="#DejaVuSans-30" x="63.623047"/>
       <use xlink:href="#DejaVuSans-32" x="127.246094"/>
       <use xlink:href="#DejaVuSans-32" x="190.869141"/>
       <use xlink:href="#DejaVuSans-2d" x="254.492188"/>
       <use xlink:href="#DejaVuSans-30" x="290.576172"/>
       <use xlink:href="#DejaVuSans-33" x="354.199219"/>
      </g>
     </g>
    </g>
    <g id="xtick_3">
     <g id="line2d_3">
      <g>
       <use xlink:href="#m47f1a4c112" x="144.654183" y="276.48" style="stroke: #000000; stroke-width: 0.8"/>
      </g>
     </g>
     <g id="text_3">
      <!-- 2022-04 -->
      <g transform="translate(107.429362 310.951846) rotate(-30) scale(0.1 -0.1)">
       <defs>
        <path id="DejaVuSans-34" d="M 2419 4116 
L 825 1625 
L 2419 1625 
L 2419 4116 
z
M 2253 4666 
L 3047 4666 
L 3047 1625 
L 3713 1625 
L 3713 1100 
L 3047 1100 
L 3047 0 
L 2419 0 
L 2419 1100 
L 313 1100 
L 313 1709 
L 2253 4666 
z
" transform="scale(0.015625)"/>
       </defs>
       <use xlink:href="#DejaVuSans-32"/>
       <use xlink:href="#DejaVuSans-30" x="63.623047"/>
       <use xlink:href="#DejaVuSans-32" x="127.246094"/>
       <use xlink:href="#DejaVuSans-32" x="190.869141"/>
       <use xlink:href="#DejaVuSans-2d" x="254.492188"/>
       <use xlink:href="#DejaVuSans-30" x="290.576172"/>
       <use xlink:href="#DejaVuSans-34" x="354.199219"/>
      </g>
     </g>
    </g>
    <g id="xtick_4">
     <g id="line2d_4">
      <g>
       <use xlink:href="#m47f1a4c112" x="174.331745" y="276.48" style="stroke: #000000; stroke-width: 0.8"/>
      </g>
     </g>
     <g id="text_4">
      <!-- 2022-05 -->
      <g transform="translate(137.106924 310.951846) rotate(-30) scale(0.1 -0.1)">
       <defs>
        <path id="DejaVuSans-35" d="M 691 4666 
L 3169 4666 
L 3169 4134 
L 1269 4134 
L 1269 2991 
Q 1406 3038 1543 3061 
Q 1681 3084 1819 3084 
Q 2600 3084 3056 2656 
Q 3513 2228 3513 1497 
Q 3513 744 3044 326 
Q 2575 -91 1722 -91 
Q 1428 -91 1123 -41 
Q 819 9 494 109 
L 494 744 
Q 775 591 1075 516 
Q 1375 441 1709 441 
Q 2250 441 2565 725 
Q 2881 1009 2881 1497 
Q 2881 1984 2565 2268 
Q 2250 2553 1709 2553 
Q 1456 2553 1204 2497 
Q 953 2441 691 2322 
L 691 4666 
z
" transform="scale(0.015625)"/>
       </defs>
       <use xlink:href="#DejaVuSans-32"/>
       <use xlink:href="#DejaVuSans-30" x="63.623047"/>
       <use xlink:href="#DejaVuSans-32" x="127.246094"/>
       <use xlink:href="#DejaVuSans-32" x="190.869141"/>
       <use xlink:href="#DejaVuSans-2d" x="254.492188"/>
       <use xlink:href="#DejaVuSans-30" x="290.576172"/>
       <use xlink:href="#DejaVuSans-35" x="354.199219"/>
      </g>
     </g>
    </g>
    <g id="xtick_5">
     <g id="line2d_5">
      <g>
       <use xlink:href="#m47f1a4c112" x="204.99856" y="276.48" style="stroke: #000000; stroke-width: 0.8"/>
      </g>
     </g>
     <g id="text_5">
      <!-- 2022-06 -->
      <g transform="translate(167.773739 310.951846) rotate(-30) scale(0.1 -0.1)">
       <defs>
        <path id="DejaVuSans-36" d="M 2113 2584 
Q 1688 2584 1439 2293 
Q 1191 2003 1191 1497 
Q 1191 994 1439 701 
Q 1688 409 2113 409 
Q 2538 409 2786 701 
Q 3034 994 3034 1497 
Q 3034 2003 2786 2293 
Q 2538 2584 2113 2584 
z
M 3366 4563 
L 3366 3988 
Q 3128 4100 2886 4159 
Q 2644 4219 2406 4219 
Q 1781 4219 1451 3797 
Q 1122 3375 1075 2522 
Q 1259 2794 1537 2939 
Q 1816 3084 2150 3084 
Q 2853 3084 3261 2657 
Q 3669 2231 3669 1497 
Q 3669 778 3244 343 
Q 2819 -91 2113 -91 
Q 1303 -91 875 529 
Q 447 1150 447 2328 
Q 447 3434 972 4092 
Q 1497 4750 2381 4750 
Q 2619 4750 2861 4703 
Q 3103 4656 3366 4563 
z
" transform="scale(0.015625)"/>
       </defs>
       <use xlink:href="#DejaVuSans-32"/>
       <use xlink:href="#DejaVuSans-30" x="63.623047"/>
       <use xlink:href="#DejaVuSans-32" x="127.246094"/>
       <use xlink:href="#DejaVuSans-32" x="190.869141"/>
       <use xlink:href="#DejaVuSans-2d" x="254.492188"/>
       <use xlink:href="#DejaVuSans-30" x="290.576172"/>
       <use xlink:href="#DejaVuSans-36" x="354.199219"/>
      </g>
     </g>
    </g>
    <g id="xtick_6">
     <g id="line2d_6">
      <g>
       <use xlink:href="#m47f1a4c112" x="234.676122" y="276.48" style="stroke: #000000; stroke-width: 0.8"/>
      </g>
     </g>
     <g id="text_6">
      <!-- 2022-07 -->
      <g transform="translate(197.451301 310.951846) rotate(-30) scale(0.1 -0.1)">
       <defs>
        <path id="DejaVuSans-37" d="M 525 4666 
L 3525 4666 
L 3525 4397 
L 1831 0 
L 1172 0 
L 2766 4134 
L 525 4134 
L 525 4666 
z
" transform="scale(0.015625)"/>
       </defs>
       <use xlink:href="#DejaVuSans-32"/>
       <use xlink:href="#DejaVuSans-30" x="63.623047"/>
       <use xlink:href="#DejaVuSans-32" x="127.246094"/>
       <use xlink:href="#DejaVuSans-32" x="190.869141"/>
       <use xlink:href="#DejaVuSans-2d" x="254.492188"/>
       <use xlink:href="#DejaVuSans-30" x="290.576172"/>
       <use xlink:href="#DejaVuSans-37" x="354.199219"/>
      </g>
     </g>
    </g>
    <g id="xtick_7">
     <g id="line2d_7">
      <g>
       <use xlink:href="#m47f1a4c112" x="265.342936" y="276.48" style="stroke: #000000; stroke-width: 0.8"/>
      </g>
     </g>
     <g id="text_7">
      <!-- 2022-08 -->
      <g transform="translate(228.118115 310.951846) rotate(-30) scale(0.1 -0.1)">
       <defs>
        <path id="DejaVuSans-38" d="M 2034 2216 
Q 1584 2216 1326 1975 
Q 1069 1734 1069 1313 
Q 1069 891 1326 650 
Q 1584 409 2034 409 
Q 2484 409 2743 651 
Q 3003 894 3003 1313 
Q 3003 1734 2745 1975 
Q 2488 2216 2034 2216 
z
M 1403 2484 
Q 997 2584 770 2862 
Q 544 3141 544 3541 
Q 544 4100 942 4425 
Q 1341 4750 2034 4750 
Q 2731 4750 3128 4425 
Q 3525 4100 3525 3541 
Q 3525 3141 3298 2862 
Q 3072 2584 2669 2484 
Q 3125 2378 3379 2068 
Q 3634 1759 3634 1313 
Q 3634 634 3220 271 
Q 2806 -91 2034 -91 
Q 1263 -91 848 271 
Q 434 634 434 1313 
Q 434 1759 690 2068 
Q 947 2378 1403 2484 
z
M 1172 3481 
Q 1172 3119 1398 2916 
Q 1625 2713 2034 2713 
Q 2441 2713 2670 2916 
Q 2900 3119 2900 3481 
Q 2900 3844 2670 4047 
Q 2441 4250 2034 4250 
Q 1625 4250 1398 4047 
Q 1172 3844 1172 3481 
z
" transform="scale(0.015625)"/>
       </defs>
       <use xlink:href="#DejaVuSans-32"/>
       <use xlink:href="#DejaVuSans-30" x="63.623047"/>
       <use xlink:href="#DejaVuSans-32" x="127.246094"/>
       <use xlink:href="#DejaVuSans-32" x="190.869141"/>
       <use xlink:href="#DejaVuSans-2d" x="254.492188"/>
       <use xlink:href="#DejaVuSans-30" x="290.576172"/>
       <use xlink:href="#DejaVuSans-38" x="354.199219"/>
      </g>
     </g>
    </g>
    <g id="xtick_8">
     <g id="line2d_8">
      <g>
       <use xlink:href="#m47f1a4c112" x="296.009751" y="276.48" style="stroke: #000000; stroke-width: 0.8"/>
      </g>
     </g>
     <g id="text_8">
      <!-- 2022-09 -->
      <g transform="translate(258.78493 310.951846) rotate(-30) scale(0.1 -0.1)">
       <defs>
        <path id="DejaVuSans-39" d="M 703 97 
L 703 672 
Q 941 559 1184 500 
Q 1428 441 1663 441 
Q 2288 441 2617 861 
Q 2947 1281 2994 2138 
Q 2813 1869 2534 1725 
Q 2256 1581 1919 1581 
Q 1219 1581 811 2004 
Q 403 2428 403 3163 
Q 403 3881 828 4315 
Q 1253 4750 1959 4750 
Q 2769 4750 3195 4129 
Q 3622 3509 3622 2328 
Q 3622 1225 3098 567 
Q 2575 -91 1691 -91 
Q 1453 -91 1209 -44 
Q 966 3 703 97 
z
M 1959 2075 
Q 2384 2075 2632 2365 
Q 2881 2656 2881 3163 
Q 2881 3666 2632 3958 
Q 2384 4250 1959 4250 
Q 1534 4250 1286 3958 
Q 1038 3666 1038 3163 
Q 1038 2656 1286 2365 
Q 1534 2075 1959 2075 
z
" transform="scale(0.015625)"/>
       </defs>
       <use xlink:href="#DejaVuSans-32"/>
       <use xlink:href="#DejaVuSans-30" x="63.623047"/>
       <use xlink:href="#DejaVuSans-32" x="127.246094"/>
       <use xlink:href="#DejaVuSans-32" x="190.869141"/>
       <use xlink:href="#DejaVuSans-2d" x="254.492188"/>
       <use xlink:href="#DejaVuSans-30" x="290.576172"/>
       <use xlink:href="#DejaVuSans-39" x="354.199219"/>
      </g>
     </g>
    </g>
    <g id="xtick_9">
     <g id="line2d_9">
      <g>
       <use xlink:href="#m47f1a4c112" x="325.687313" y="276.48" style="stroke: #000000; stroke-width: 0.8"/>
      </g>
     </g>
     <g id="text_9">
      <!-- 2022-10 -->
      <g transform="translate(288.462492 310.951846) rotate(-30) scale(0.1 -0.1)">
       <defs>
        <path id="DejaVuSans-31" d="M 794 531 
L 1825 531 
L 1825 4091 
L 703 3866 
L 703 4441 
L 1819 4666 
L 2450 4666 
L 2450 531 
L 3481 531 
L 3481 0 
L 794 0 
L 794 531 
z
" transform="scale(0.015625)"/>
       </defs>
       <use xlink:href="#DejaVuSans-32"/>
       <use xlink:href="#DejaVuSans-30" x="63.623047"/>
       <use xlink:href="#DejaVuSans-32" x="127.246094"/>
       <use xlink:href="#DejaVuSans-32" x="190.869141"/>
       <use xlink:href="#DejaVuSans-2d" x="254.492188"/>
       <use xlink:href="#DejaVuSans-31" x="290.576172"/>
       <use xlink:href="#DejaVuSans-30" x="354.199219"/>
      </g>
     </g>
    </g>
    <g id="xtick_10">
     <g id="line2d_10">
      <g>
       <use xlink:href="#m47f1a4c112" x="356.354127" y="276.48" style="stroke: #000000; stroke-width: 0.8"/>
      </g>
     </g>
     <g id="text_10">
      <!-- 2022-11 -->
      <g transform="translate(319.129307 310.951846) rotate(-30) scale(0.1 -0.1)">
       <use xlink:href="#DejaVuSans-32"/>
       <use xlink:href="#DejaVuSans-30" x="63.623047"/>
       <use xlink:href="#DejaVuSans-32" x="127.246094"/>
       <use xlink:href="#DejaVuSans-32" x="190.869141"/>
       <use xlink:href="#DejaVuSans-2d" x="254.492188"/>
       <use xlink:href="#DejaVuSans-31" x="290.576172"/>
       <use xlink:href="#DejaVuSans-31" x="354.199219"/>
      </g>
     </g>
    </g>
    <g id="xtick_11">
     <g id="line2d_11">
      <g>
       <use xlink:href="#m47f1a4c112" x="386.03169" y="276.48" style="stroke: #000000; stroke-width: 0.8"/>
      </g>
     </g>
     <g id="text_11">
      <!-- 2022-12 -->
      <g transform="translate(348.806869 310.951846) rotate(-30) scale(0.1 -0.1)">
       <use xlink:href="#DejaVuSans-32"/>
       <use xlink:href="#DejaVuSans-30" x="63.623047"/>
       <use xlink:href="#DejaVuSans-32" x="127.246094"/>
       <use xlink:href="#DejaVuSans-32" x="190.869141"/>
       <use xlink:href="#DejaVuSans-2d" x="254.492188"/>
       <use xlink:href="#DejaVuSans-31" x="290.576172"/>
       <use xlink:href="#DejaVuSans-32" x="354.199219"/>
      </g>
     </g>
    </g>
    <g id="text_12">
     <!-- Time -->
     <g transform="translate(223.926406 324.351346) scale(0.1 -0.1)">
      <defs>
       <path id="DejaVuSans-54" d="M -19 4666 
L 3928 4666 
L 3928 4134 
L 2272 4134 
L 2272 0 
L 1638 0 
L 1638 4134 
L -19 4134 
L -19 4666 
z
" transform="scale(0.015625)"/>
       <path id="DejaVuSans-69" d="M 603 3500 
L 1178 3500 
L 1178 0 
L 603 0 
L 603 3500 
z
M 603 4863 
L 1178 4863 
L 1178 4134 
L 603 4134 
L 603 4863 
z
" transform="scale(0.015625)"/>
       <path id="DejaVuSans-6d" d="M 3328 2828 
Q 3544 3216 3844 3400 
Q 4144 3584 4550 3584 
Q 5097 3584 5394 3201 
Q 5691 2819 5691 2113 
L 5691 0 
L 5113 0 
L 5113 2094 
Q 5113 2597 4934 2840 
Q 4756 3084 4391 3084 
Q 3944 3084 3684 2787 
Q 3425 2491 3425 1978 
L 3425 0 
L 2847 0 
L 2847 2094 
Q 2847 2600 2669 2842 
Q 2491 3084 2119 3084 
Q 1678 3084 1418 2786 
Q 1159 2488 1159 1978 
L 1159 0 
L 581 0 
L 581 3500 
L 1159 3500 
L 1159 2956 
Q 1356 3278 1631 3431 
Q 1906 3584 2284 3584 
Q 2666 3584 2933 3390 
Q 3200 3197 3328 2828 
z
" transform="scale(0.015625)"/>
       <path id="DejaVuSans-65" d="M 3597 1894 
L 3597 1613 
L 953 1613 
Q 991 1019 1311 708 
Q 1631 397 2203 397 
Q 2534 397 2845 478 
Q 3156 559 3463 722 
L 3463 178 
Q 3153 47 2828 -22 
Q 2503 -91 2169 -91 
Q 1331 -91 842 396 
Q 353 884 353 1716 
Q 353 2575 817 3079 
Q 1281 3584 2069 3584 
Q 2775 3584 3186 3129 
Q 3597 2675 3597 1894 
z
M 3022 2063 
Q 3016 2534 2758 2815 
Q 2500 3097 2075 3097 
Q 1594 3097 1305 2825 
Q 1016 2553 972 2059 
L 3022 2063 
z
" transform="scale(0.015625)"/>
      </defs>
      <use xlink:href="#DejaVuSans-54"/>
      <use xlink:href="#DejaVuSans-69" x="57.958984"/>
      <use xlink:href="#DejaVuSans-6d" x="85.742188"/>
      <use xlink:href="#DejaVuSans-65" x="183.154297"/>
     </g>
    </g>
   </g>
   <g id="matplotlib.axis_2">
    <g id="ytick_1">
     <g id="line2d_12">
      <defs>
       <path id="m52fd899ce8" d="M 0 0 
L -3.5 0 
" style="stroke: #000000; stroke-width: 0.8"/>
      </defs>
      <g>
       <use xlink:href="#m52fd899ce8" x="57.6" y="276.060176" style="stroke: #000000; stroke-width: 0.8"/>
      </g>
     </g>
     <g id="text_13">
      <!-- 0 -->
      <g transform="translate(44.2375 279.859395) scale(0.1 -0.1)">
       <use xlink:href="#DejaVuSans-30"/>
      </g>
     </g>
    </g>
    <g id="ytick_2">
     <g id="line2d_13">
      <g>
       <use xlink:href="#m52fd899ce8" x="57.6" y="229.413094" style="stroke: #000000; stroke-width: 0.8"/>
      </g>
     </g>
     <g id="text_14">
      <!-- 1 -->
      <g transform="translate(44.2375 233.212313) scale(0.1 -0.1)">
       <use xlink:href="#DejaVuSans-31"/>
      </g>
     </g>
    </g>
    <g id="ytick_3">
     <g id="line2d_14">
      <g>
       <use xlink:href="#m52fd899ce8" x="57.6" y="182.766012" style="stroke: #000000; stroke-width: 0.8"/>
      </g>
     </g>
     <g id="text_15">
      <!-- 2 -->
      <g transform="translate(44.2375 186.565231) scale(0.1 -0.1)">
       <use xlink:href="#DejaVuSans-32"/>
      </g>
     </g>
    </g>
    <g id="ytick_4">
     <g id="line2d_15">
      <g>
       <use xlink:href="#m52fd899ce8" x="57.6" y="136.11893" style="stroke: #000000; stroke-width: 0.8"/>
      </g>
     </g>
     <g id="text_16">
      <!-- 3 -->
      <g transform="translate(44.2375 139.918148) scale(0.1 -0.1)">
       <use xlink:href="#DejaVuSans-33"/>
      </g>
     </g>
    </g>
    <g id="ytick_5">
     <g id="line2d_16">
      <g>
       <use xlink:href="#m52fd899ce8" x="57.6" y="89.471848" style="stroke: #000000; stroke-width: 0.8"/>
      </g>
     </g>
     <g id="text_17">
      <!-- 4 -->
      <g transform="translate(44.2375 93.271066) scale(0.1 -0.1)">
       <use xlink:href="#DejaVuSans-34"/>
      </g>
     </g>
    </g>
    <g id="ytick_6">
     <g id="line2d_17">
      <g>
       <use xlink:href="#m52fd899ce8" x="57.6" y="42.824765" style="stroke: #000000; stroke-width: 0.8"/>
      </g>
     </g>
     <g id="text_18">
      <!-- 5 -->
      <g transform="translate(44.2375 46.623984) scale(0.1 -0.1)">
       <use xlink:href="#DejaVuSans-35"/>
      </g>
     </g>
    </g>
    <g id="text_19">
     <!-- IR level -->
     <g transform="translate(38.157812 177.404906) rotate(-90) scale(0.1 -0.1)">
      <defs>
       <path id="DejaVuSans-49" d="M 628 4666 
L 1259 4666 
L 1259 0 
L 628 0 
L 628 4666 
z
" transform="scale(0.015625)"/>
       <path id="DejaVuSans-52" d="M 2841 2188 
Q 3044 2119 3236 1894 
Q 3428 1669 3622 1275 
L 4263 0 
L 3584 0 
L 2988 1197 
Q 2756 1666 2539 1819 
Q 2322 1972 1947 1972 
L 1259 1972 
L 1259 0 
L 628 0 
L 628 4666 
L 2053 4666 
Q 2853 4666 3247 4331 
Q 3641 3997 3641 3322 
Q 3641 2881 3436 2590 
Q 3231 2300 2841 2188 
z
M 1259 4147 
L 1259 2491 
L 2053 2491 
Q 2509 2491 2742 2702 
Q 2975 2913 2975 3322 
Q 2975 3731 2742 3939 
Q 2509 4147 2053 4147 
L 1259 4147 
z
" transform="scale(0.015625)"/>
       <path id="DejaVuSans-20" transform="scale(0.015625)"/>
       <path id="DejaVuSans-6c" d="M 603 4863 
L 1178 4863 
L 1178 0 
L 603 0 
L 603 4863 
z
" transform="scale(0.015625)"/>
       <path id="DejaVuSans-76" d="M 191 3500 
L 800 3500 
L 1894 563 
L 2988 3500 
L 3597 3500 
L 2284 0 
L 1503 0 
L 191 3500 
z
" transform="scale(0.015625)"/>
      </defs>
      <use xlink:href="#DejaVuSans-49"/>
      <use xlink:href="#DejaVuSans-52" x="29.492188"/>
      <use xlink:href="#DejaVuSans-20" x="98.974609"/>
      <use xlink:href="#DejaVuSans-6c" x="130.761719"/>
      <use xlink:href="#DejaVuSans-65" x="158.544922"/>
      <use xlink:href="#DejaVuSans-76" x="220.068359"/>
      <use xlink:href="#DejaVuSans-65" x="279.248047"/>
      <use xlink:href="#DejaVuSans-6c" x="340.771484"/>
     </g>
    </g>
   </g>
   <g id="line2d_18">
    <path d="M 57.6 265.797818 
L 59.578504 265.797818 
L 61.557008 264.864877 
L 64.524765 262.998993 
L 65.514017 262.998993 
L 66.503269 263.465464 
L 67.492521 262.998993 
L 68.481773 262.066052 
L 72.438781 258.800756 
L 73.428033 259.267227 
L 74.417285 259.267227 
L 75.406537 259.733697 
L 78.374294 257.867814 
L 79.363546 257.867814 
L 80.352798 257.401343 
L 81.34205 256.001931 
L 82.331302 256.001931 
L 85.299058 253.203106 
L 86.28831 253.669577 
L 87.277562 255.068989 
L 88.266814 253.669577 
L 89.256066 249.93781 
L 92.223823 249.004869 
L 93.213075 248.538398 
L 94.202327 249.471339 
L 95.191579 241.541335 
L 96.180831 242.940748 
L 99.148587 240.608394 
L 100.137839 242.474277 
L 101.127091 244.806631 
L 102.116343 245.739573 
L 103.105596 245.739573 
L 107.062604 242.007806 
L 108.051856 241.541335 
L 109.041108 245.739573 
L 110.03036 242.940748 
L 112.998116 243.87369 
L 113.987368 248.071927 
L 114.97662 244.34016 
L 115.965873 243.87369 
L 116.955125 243.87369 
L 119.922881 241.074865 
L 120.912133 242.474277 
L 121.901385 241.074865 
L 122.890637 241.074865 
L 123.879889 239.675452 
L 126.847645 235.943686 
L 128.82615 235.943686 
L 129.815402 238.27604 
L 130.804654 237.343098 
L 133.77241 231.745448 
L 134.761662 231.278977 
L 135.750914 232.67839 
L 136.740166 231.278977 
L 137.729418 228.946623 
L 140.697175 225.681328 
L 142.675679 227.547211 
L 143.664931 226.614269 
L 144.654183 225.214857 
L 147.621939 222.882503 
L 148.611191 223.348973 
L 149.600443 222.416032 
L 150.589695 222.416032 
L 151.578947 220.550148 
L 154.546704 218.684265 
L 155.535956 220.083678 
L 156.525208 220.083678 
L 157.51446 217.751324 
L 161.471468 216.818382 
L 163.449972 215.88544 
L 164.439224 214.486028 
L 165.428476 213.553086 
L 168.396233 209.82132 
L 169.385485 210.754261 
L 171.363989 211.687203 
L 172.353241 210.28779 
L 175.320997 206.556024 
L 176.310249 208.421907 
L 177.299501 208.888378 
L 178.288753 212.153674 
L 179.278006 210.28779 
L 182.245762 209.354849 
L 183.235014 208.888378 
L 184.224266 209.354849 
L 185.213518 208.888378 
L 186.20277 207.488965 
L 189.170526 204.22367 
L 190.159778 202.824257 
L 191.14903 203.290728 
L 192.138283 205.156611 
L 193.127535 205.623082 
L 196.095291 202.824257 
L 197.084543 204.690141 
L 198.073795 205.156611 
L 199.063047 205.156611 
L 200.052299 204.22367 
L 204.009307 199.558961 
L 204.99856 200.025432 
L 205.987812 199.558961 
L 206.977064 197.693078 
L 209.94482 194.894253 
L 210.934072 194.427782 
L 211.923324 193.494841 
L 212.912576 191.628958 
L 213.901828 183.698954 
L 216.869584 171.104241 
L 217.858837 162.707767 
L 218.848089 167.838946 
L 219.837341 171.570712 
L 220.826593 171.104241 
L 224.783601 161.308354 
L 225.772853 164.107179 
L 226.762105 162.241296 
L 227.751357 158.976 
L 230.719114 156.643646 
L 231.708366 157.110117 
L 232.697618 157.110117 
L 233.68687 158.976 
L 234.676122 158.509529 
L 238.63313 155.244233 
L 239.622382 153.844821 
L 240.611634 152.911879 
L 241.600886 151.045996 
L 244.568643 145.914817 
L 245.557895 146.381288 
L 246.547147 137.984813 
L 247.536399 139.384225 
L 248.525651 138.917755 
L 251.493407 135.185988 
L 252.482659 133.320105 
L 253.471911 134.253046 
L 254.461163 136.11893 
L 255.450416 137.518342 
L 258.418172 133.320105 
L 259.407424 135.652459 
L 260.396676 139.384225 
L 261.385928 140.783638 
L 262.37518 140.317167 
L 265.342936 137.984813 
L 266.332188 136.11893 
L 267.32144 136.11893 
L 268.310693 137.051871 
L 269.299945 131.454222 
L 272.267701 129.121867 
L 273.256953 128.655397 
L 274.246205 130.054809 
L 275.235457 132.387163 
L 276.224709 130.054809 
L 279.192465 130.054809 
L 280.181717 130.52128 
L 281.17097 129.121867 
L 282.160222 130.52128 
L 283.149474 128.655397 
L 286.11723 125.390101 
L 287.106482 126.323042 
L 288.095734 123.057747 
L 289.084986 124.457159 
L 290.074238 123.990688 
L 293.041994 121.191863 
L 294.031247 121.658334 
L 295.020499 121.191863 
L 296.009751 120.258922 
L 296.999003 120.725393 
L 301.945263 116.527155 
L 302.934515 115.594214 
L 303.923767 111.862447 
L 306.891524 109.996564 
L 307.880776 101.133618 
L 308.870028 100.667147 
L 309.85928 99.734206 
L 310.848532 100.200676 
L 313.816288 95.535968 
L 314.80554 96.002439 
L 315.794792 96.002439 
L 316.784044 95.535968 
L 317.773296 96.46891 
L 320.741053 91.804202 
L 322.719557 95.535968 
L 323.708809 95.535968 
L 324.698061 93.203614 
L 327.665817 90.87126 
L 328.655069 90.404789 
L 329.644321 89.471848 
L 330.633573 87.605964 
L 331.622825 85.27361 
L 335.579834 81.541844 
L 336.569086 82.008314 
L 337.558338 75.477723 
L 338.54759 75.011252 
L 341.515346 71.745956 
L 342.504598 71.279486 
L 343.49385 68.480661 
L 344.483102 67.081248 
L 345.472355 69.413602 
L 348.440111 65.215365 
L 349.429363 66.148306 
L 351.407867 68.947131 
L 352.397119 65.681836 
L 355.364875 62.883011 
L 356.354127 62.41654 
L 357.34338 62.883011 
L 358.332632 62.883011 
L 359.321884 63.815952 
L 362.28964 60.550657 
L 363.278892 61.483598 
L 364.268144 61.950069 
L 365.257396 65.215365 
L 369.214404 63.815952 
L 370.203657 64.282423 
L 371.192909 64.282423 
L 372.182161 62.883011 
L 373.171413 61.017127 
L 376.139169 59.151244 
L 377.128421 57.751832 
L 378.117673 58.218303 
L 380.096177 58.218303 
L 383.063934 55.885948 
L 384.053186 55.885948 
L 385.042438 56.81889 
L 386.03169 59.151244 
L 387.020942 59.151244 
L 389.988698 55.419478 
L 390.97795 54.953007 
L 391.967202 55.885948 
L 392.956454 56.352419 
L 393.945706 55.885948 
L 396.913463 53.087123 
L 397.902715 56.81889 
L 398.891967 57.751832 
L 399.881219 56.81889 
L 400.870471 57.751832 
L 403.838227 56.352419 
L 404.827479 56.81889 
L 405.816731 58.218303 
L 406.805983 58.684773 
L 407.795235 58.218303 
L 411.752244 54.020065 
L 412.741496 54.486536 
L 413.730748 55.419478 
L 414.72 54.020065 
L 414.72 54.020065 
" clip-path="url(#p79e26d17fa)" style="fill: none; stroke: #1f77b4; stroke-width: 1.5; stroke-linecap: square"/>
   </g>
   <g id="line2d_19">
    <path d="M 57.6 257.401343 
L 58.589252 258.334285 
L 59.578504 256.934873 
L 60.567756 255.068989 
L 61.557008 256.001931 
L 64.524765 254.602518 
L 65.514017 254.602518 
L 66.503269 253.669577 
L 67.492521 254.136048 
L 68.481773 252.270164 
L 72.438781 249.004869 
L 73.428033 249.471339 
L 74.417285 248.071927 
L 75.406537 249.004869 
L 78.374294 249.004869 
L 79.363546 245.739573 
L 81.34205 241.074865 
L 82.331302 241.074865 
L 85.299058 239.675452 
L 86.28831 239.675452 
L 87.277562 240.608394 
L 88.266814 239.675452 
L 89.256066 234.544273 
L 92.223823 235.010744 
L 93.213075 233.611331 
L 94.202327 233.611331 
L 95.191579 222.882503 
L 96.180831 226.147798 
L 99.148587 223.348973 
L 101.127091 225.214857 
L 102.116343 227.08074 
L 103.105596 228.013682 
L 107.062604 221.48309 
L 108.051856 221.949561 
L 109.041108 225.681328 
L 110.03036 223.348973 
L 112.998116 228.946623 
L 113.987368 233.611331 
L 114.97662 226.614269 
L 115.965873 225.681328 
L 116.955125 227.08074 
L 119.922881 226.147798 
L 120.912133 223.815444 
L 121.901385 222.416032 
L 122.890637 220.550148 
L 123.879889 219.150736 
L 126.847645 216.351911 
L 127.836898 216.351911 
L 128.82615 213.086615 
L 129.815402 215.418969 
L 130.804654 215.88544 
L 133.77241 210.754261 
L 134.761662 201.891316 
L 135.750914 205.156611 
L 136.740166 203.757199 
L 137.729418 198.159549 
L 140.697175 197.226607 
L 141.686427 198.159549 
L 142.675679 199.558961 
L 143.664931 200.025432 
L 144.654183 195.827195 
L 147.621939 195.827195 
L 148.611191 193.494841 
L 149.600443 192.561899 
L 150.589695 193.02837 
L 151.578947 191.628958 
L 154.546704 189.763074 
L 155.535956 193.494841 
L 156.525208 193.02837 
L 157.51446 190.229545 
L 161.471468 190.229545 
L 162.46072 185.564837 
L 163.449972 186.031308 
L 164.439224 182.299541 
L 165.428476 179.967187 
L 168.396233 181.366599 
L 169.385485 183.232483 
L 170.374737 184.165424 
L 171.363989 180.900129 
L 172.353241 178.101304 
L 175.320997 178.101304 
L 176.310249 175.302479 
L 177.299501 179.500716 
L 178.288753 179.034245 
L 179.278006 179.034245 
L 182.245762 183.232483 
L 183.235014 182.299541 
L 184.224266 183.232483 
L 185.213518 184.631895 
L 186.20277 180.900129 
L 189.170526 179.500716 
L 190.159778 175.302479 
L 191.14903 175.302479 
L 192.138283 177.634833 
L 193.127535 179.500716 
L 196.095291 178.567775 
L 197.084543 181.83307 
L 198.073795 182.299541 
L 199.063047 183.232483 
L 200.052299 182.299541 
L 204.009307 179.034245 
L 204.99856 175.302479 
L 205.987812 175.76895 
L 206.977064 174.369537 
L 209.94482 172.037183 
L 211.923324 169.238358 
L 212.912576 166.439533 
L 213.901828 155.710704 
L 216.869584 141.250109 
L 217.858837 129.121867 
L 218.848089 139.384225 
L 219.837341 141.71658 
L 220.826593 142.649521 
L 224.783601 139.850696 
L 225.772853 145.914817 
L 226.762105 146.381288 
L 227.751357 144.048934 
L 230.719114 141.250109 
L 231.708366 141.71658 
L 232.697618 141.71658 
L 233.68687 145.448346 
L 234.676122 145.914817 
L 238.63313 146.847759 
L 240.611634 142.18305 
L 241.600886 137.984813 
L 244.568643 137.518342 
L 245.557895 132.853634 
L 246.547147 126.323042 
L 247.536399 128.655397 
L 248.525651 130.52128 
L 251.493407 130.054809 
L 252.482659 127.722455 
L 253.471911 127.722455 
L 254.461163 130.987751 
L 255.450416 135.652459 
L 258.418172 132.853634 
L 259.407424 133.320105 
L 260.396676 136.11893 
L 261.385928 139.384225 
L 262.37518 137.051871 
L 265.342936 137.051871 
L 266.332188 131.920692 
L 267.32144 129.588338 
L 268.310693 130.987751 
L 269.299945 122.591276 
L 272.267701 122.124805 
L 273.256953 120.725393 
L 274.246205 123.990688 
L 275.235457 124.457159 
L 276.224709 123.990688 
L 279.192465 125.390101 
L 280.181717 123.990688 
L 281.17097 123.524218 
L 282.160222 124.92363 
L 286.11723 121.191863 
L 287.106482 122.591276 
L 288.095734 119.792451 
L 289.084986 120.725393 
L 290.074238 119.32598 
L 293.041994 116.060684 
L 294.031247 113.72833 
L 295.020499 112.795389 
L 296.009751 112.328918 
L 296.999003 114.194801 
L 300.956011 107.66421 
L 301.945263 108.13068 
L 302.934515 108.13068 
L 303.923767 104.865385 
L 306.891524 103.465972 
L 307.880776 93.203614 
L 308.870028 91.804202 
L 309.85928 89.471848 
L 310.848532 91.337731 
L 313.816288 87.139493 
L 314.80554 88.072435 
L 315.794792 85.740081 
L 316.784044 85.740081 
L 317.773296 82.474785 
L 320.741053 81.541844 
L 321.730305 82.008314 
L 322.719557 89.938318 
L 323.708809 90.404789 
L 324.698061 87.139493 
L 327.665817 89.005377 
L 328.655069 82.474785 
L 329.644321 82.941256 
L 331.622825 78.276548 
L 335.579834 76.410665 
L 336.569086 76.410665 
L 337.558338 68.01419 
L 338.54759 66.148306 
L 342.504598 66.148306 
L 343.49385 61.483598 
L 344.483102 58.684773 
L 345.472355 62.41654 
L 348.440111 61.017127 
L 349.429363 61.483598 
L 350.418615 64.282423 
L 351.407867 66.148306 
L 352.397119 63.815952 
L 355.364875 58.684773 
L 356.354127 54.486536 
L 357.34338 54.020065 
L 358.332632 53.087123 
L 359.321884 54.020065 
L 362.28964 52.154182 
L 363.278892 53.553594 
L 364.268144 54.486536 
L 365.257396 61.950069 
L 369.214404 60.084186 
L 370.203657 61.483598 
L 371.192909 60.550657 
L 373.171413 54.953007 
L 376.139169 54.486536 
L 377.128421 52.620653 
L 378.117673 54.486536 
L 380.096177 54.020065 
L 383.063934 54.020065 
L 384.053186 53.087123 
L 385.042438 54.953007 
L 386.03169 58.684773 
L 387.020942 57.285361 
L 389.988698 53.553594 
L 390.97795 55.419478 
L 391.967202 58.218303 
L 392.956454 56.352419 
L 396.913463 54.486536 
L 397.902715 59.617715 
L 398.891967 59.617715 
L 399.881219 59.151244 
L 400.870471 61.017127 
L 403.838227 59.617715 
L 404.827479 59.617715 
L 405.816731 61.483598 
L 406.805983 59.617715 
L 407.795235 58.684773 
L 411.752244 54.486536 
L 412.741496 56.352419 
L 413.730748 56.352419 
L 414.72 55.419478 
L 414.72 55.419478 
" clip-path="url(#p79e26d17fa)" style="fill: none; stroke: #ff7f0e; stroke-width: 1.5; stroke-linecap: square"/>
   </g>
   <g id="line2d_20">
    <path d="M 57.6 239.675452 
L 58.589252 240.141923 
L 59.578504 237.343098 
L 60.567756 235.010744 
L 61.557008 235.477215 
L 64.524765 233.144861 
L 65.514017 234.077802 
L 66.503269 233.144861 
L 67.492521 233.611331 
L 68.481773 229.879565 
L 72.438781 226.614269 
L 73.428033 227.547211 
L 74.417285 225.681328 
L 75.406537 228.946623 
L 78.374294 229.879565 
L 79.363546 228.480152 
L 80.352798 223.348973 
L 81.34205 221.016619 
L 82.331302 222.416032 
L 85.299058 221.016619 
L 86.28831 221.016619 
L 87.277562 221.949561 
L 88.266814 220.550148 
L 89.256066 214.952499 
L 92.223823 215.418969 
L 93.213075 213.086615 
L 94.202327 212.620145 
L 95.191579 200.958374 
L 96.180831 206.089553 
L 99.148587 202.357786 
L 100.137839 202.357786 
L 101.127091 205.156611 
L 102.116343 206.556024 
L 103.105596 207.488965 
L 108.051856 202.357786 
L 109.041108 204.22367 
L 110.03036 203.757199 
L 112.998116 208.888378 
L 113.987368 214.952499 
L 114.97662 206.089553 
L 115.965873 204.690141 
L 116.955125 206.089553 
L 119.922881 203.757199 
L 120.912133 200.025432 
L 121.901385 197.693078 
L 122.890637 195.827195 
L 123.879889 194.427782 
L 126.847645 188.830133 
L 127.836898 189.763074 
L 128.82615 185.098366 
L 129.815402 185.564837 
L 130.804654 184.165424 
L 133.77241 176.23542 
L 134.761662 174.369537 
L 135.750914 176.701891 
L 136.740166 176.701891 
L 137.729418 168.771887 
L 140.697175 166.439533 
L 141.686427 166.439533 
L 142.675679 168.305416 
L 143.664931 169.704829 
L 144.654183 162.241296 
L 147.621939 162.707767 
L 148.611191 158.976 
L 149.600443 159.442471 
L 150.589695 160.841883 
L 151.578947 158.043058 
L 154.546704 159.442471 
L 155.535956 164.57365 
L 156.525208 165.506592 
L 157.51446 160.841883 
L 161.471468 161.308354 
L 162.46072 154.311292 
L 163.449972 154.777763 
L 164.439224 151.045996 
L 165.428476 149.180113 
L 168.396233 153.37835 
L 169.385485 157.576588 
L 170.374737 155.710704 
L 171.363989 153.37835 
L 172.353241 150.113054 
L 175.320997 148.713642 
L 176.310249 146.381288 
L 177.299501 151.978938 
L 178.288753 149.646584 
L 179.278006 149.180113 
L 182.245762 154.311292 
L 183.235014 153.844821 
L 184.224266 151.978938 
L 185.213518 156.643646 
L 186.20277 154.311292 
L 189.170526 155.710704 
L 190.159778 149.646584 
L 191.14903 151.045996 
L 192.138283 153.37835 
L 193.127535 154.777763 
L 196.095291 152.445408 
L 197.084543 159.442471 
L 199.063047 161.308354 
L 200.052299 160.841883 
L 204.009307 158.043058 
L 204.99856 151.978938 
L 205.987812 152.445408 
L 206.977064 151.978938 
L 211.923324 146.381288 
L 212.912576 144.048934 
L 213.901828 133.320105 
L 216.869584 117.460097 
L 217.858837 115.127743 
L 218.848089 126.789513 
L 219.837341 129.588338 
L 220.826593 128.188926 
L 224.783601 126.323042 
L 225.772853 133.320105 
L 226.762105 135.652459 
L 227.751357 134.253046 
L 230.719114 132.387163 
L 231.708366 131.454222 
L 232.697618 133.320105 
L 233.68687 139.850696 
L 234.676122 143.582463 
L 238.63313 144.515405 
L 239.622382 137.518342 
L 240.611634 134.719517 
L 241.600886 130.52128 
L 244.568643 132.853634 
L 245.557895 134.719517 
L 246.547147 130.054809 
L 247.536399 129.121867 
L 248.525651 130.054809 
L 251.493407 129.121867 
L 252.482659 125.390101 
L 253.471911 124.457159 
L 254.461163 131.454222 
L 255.450416 137.051871 
L 258.418172 136.11893 
L 259.407424 135.185988 
L 260.396676 137.984813 
L 261.385928 143.115992 
L 262.37518 141.250109 
L 265.342936 140.783638 
L 266.332188 133.320105 
L 267.32144 131.454222 
L 268.310693 134.719517 
L 269.299945 124.92363 
L 272.267701 126.323042 
L 273.256953 123.057747 
L 274.246205 125.390101 
L 275.235457 125.390101 
L 276.224709 124.457159 
L 279.192465 126.789513 
L 280.181717 124.457159 
L 281.17097 123.057747 
L 282.160222 125.856572 
L 283.149474 124.457159 
L 286.11723 121.191863 
L 287.106482 122.591276 
L 288.095734 119.32598 
L 289.084986 119.792451 
L 290.074238 118.859509 
L 293.041994 116.527155 
L 294.031247 114.661272 
L 295.020499 115.127743 
L 296.009751 112.328918 
L 296.999003 117.460097 
L 300.956011 112.795389 
L 301.945263 115.127743 
L 302.934515 113.72833 
L 303.923767 109.996564 
L 306.891524 109.063622 
L 307.880776 101.133618 
L 308.870028 99.734206 
L 309.85928 95.535968 
L 310.848532 96.46891 
L 313.816288 91.804202 
L 314.80554 91.337731 
L 315.794792 88.538906 
L 317.773296 80.142431 
L 320.741053 76.877135 
L 321.730305 75.477723 
L 322.719557 86.206552 
L 323.708809 82.008314 
L 324.698061 79.209489 
L 327.665817 83.874198 
L 328.655069 84.807139 
L 329.644321 82.474785 
L 330.633573 78.743019 
L 331.622825 75.477723 
L 335.579834 75.477723 
L 336.569086 76.410665 
L 337.558338 67.547719 
L 338.54759 67.081248 
L 341.515346 68.480661 
L 342.504598 69.413602 
L 343.49385 63.815952 
L 344.483102 60.550657 
L 345.472355 66.614777 
L 348.440111 66.148306 
L 349.429363 69.880073 
L 350.418615 71.279486 
L 351.407867 75.477723 
L 352.397119 70.346544 
L 356.354127 64.282423 
L 357.34338 61.017127 
L 358.332632 56.352419 
L 359.321884 58.684773 
L 362.28964 55.885948 
L 363.278892 58.218303 
L 364.268144 61.017127 
L 365.257396 73.61184 
L 369.214404 70.813015 
L 370.203657 72.212427 
L 371.192909 73.145369 
L 373.171413 65.681836 
L 378.117673 68.01419 
L 380.096177 69.880073 
L 383.063934 68.01419 
L 384.053186 67.081248 
L 385.042438 71.745956 
L 386.03169 77.810077 
L 387.020942 76.410665 
L 389.988698 70.346544 
L 390.97795 73.61184 
L 391.967202 77.343606 
L 392.956454 75.011252 
L 396.913463 71.279486 
L 397.902715 79.209489 
L 398.891967 78.743019 
L 399.881219 78.743019 
L 400.870471 81.541844 
L 403.838227 77.810077 
L 404.827479 77.810077 
L 405.816731 79.67596 
L 406.805983 78.276548 
L 407.795235 75.011252 
L 411.752244 74.544781 
L 412.741496 75.011252 
L 413.730748 73.61184 
L 414.72 70.346544 
L 414.72 70.346544 
" clip-path="url(#p79e26d17fa)" style="fill: none; stroke: #2ca02c; stroke-width: 1.5; stroke-linecap: square"/>
   </g>
   <g id="line2d_21">
    <path d="M 57.6 212.153674 
L 58.589252 212.153674 
L 59.578504 209.354849 
L 60.567756 207.488965 
L 61.557008 206.089553 
L 64.524765 204.690141 
L 65.514017 205.623082 
L 66.503269 206.089553 
L 67.492521 207.488965 
L 68.481773 203.757199 
L 72.438781 199.092491 
L 73.428033 200.491903 
L 74.417285 200.491903 
L 75.406537 204.22367 
L 78.374294 204.690141 
L 79.363546 203.290728 
L 80.352798 198.62602 
L 81.34205 198.62602 
L 82.331302 200.958374 
L 85.299058 200.491903 
L 86.28831 200.025432 
L 87.277562 201.424845 
L 88.266814 198.62602 
L 89.256066 193.02837 
L 92.223823 193.961312 
L 93.213075 191.628958 
L 94.202327 191.162487 
L 95.191579 184.631895 
L 96.180831 190.229545 
L 99.148587 187.43072 
L 100.137839 185.564837 
L 101.127091 187.43072 
L 102.116343 189.763074 
L 103.105596 191.162487 
L 107.062604 189.763074 
L 108.051856 187.897191 
L 109.041108 190.229545 
L 110.03036 189.296603 
L 112.998116 196.293666 
L 113.987368 203.290728 
L 114.97662 194.894253 
L 115.965873 194.894253 
L 116.955125 199.092491 
L 119.922881 196.293666 
L 120.912133 192.095428 
L 121.901385 188.830133 
L 122.890637 186.497778 
L 123.879889 184.631895 
L 126.847645 178.101304 
L 127.836898 178.101304 
L 128.82615 174.369537 
L 129.815402 174.836008 
L 130.804654 176.23542 
L 134.761662 164.57365 
L 135.750914 166.906004 
L 136.740166 165.506592 
L 137.729418 157.110117 
L 140.697175 157.576588 
L 142.675679 162.241296 
L 143.664931 163.174237 
L 144.654183 157.110117 
L 147.621939 156.643646 
L 148.611191 150.579525 
L 149.600443 150.113054 
L 150.589695 150.113054 
L 151.578947 147.314229 
L 154.546704 145.914817 
L 155.535956 151.978938 
L 156.525208 151.978938 
L 157.51446 145.914817 
L 161.471468 145.914817 
L 162.46072 140.317167 
L 163.449972 142.18305 
L 164.439224 137.984813 
L 165.428476 138.917755 
L 168.396233 143.582463 
L 169.385485 145.914817 
L 170.374737 144.981875 
L 171.363989 142.649521 
L 172.353241 139.850696 
L 175.320997 135.652459 
L 176.310249 135.652459 
L 177.299501 139.384225 
L 178.288753 135.652459 
L 179.278006 133.320105 
L 183.235014 140.317167 
L 184.224266 141.250109 
L 185.213518 144.981875 
L 186.20277 141.250109 
L 189.170526 144.048934 
L 190.159778 137.984813 
L 191.14903 141.250109 
L 192.138283 143.582463 
L 193.127535 145.448346 
L 196.095291 141.71658 
L 197.084543 147.314229 
L 198.073795 149.646584 
L 199.063047 150.113054 
L 200.052299 149.646584 
L 204.009307 144.981875 
L 204.99856 138.917755 
L 205.987812 139.850696 
L 206.977064 138.451284 
L 209.94482 134.719517 
L 210.934072 136.585401 
L 212.912576 132.853634 
L 213.901828 124.457159 
L 216.869584 109.996564 
L 217.858837 107.66421 
L 218.848089 118.393039 
L 219.837341 119.792451 
L 220.826593 120.258922 
L 224.783601 118.393039 
L 225.772853 125.856572 
L 226.762105 129.588338 
L 227.751357 127.722455 
L 230.719114 124.92363 
L 231.708366 124.457159 
L 232.697618 129.121867 
L 234.676122 141.71658 
L 238.63313 144.515405 
L 239.622382 137.984813 
L 241.600886 130.054809 
L 244.568643 133.786576 
L 245.557895 135.652459 
L 246.547147 135.185988 
L 247.536399 133.320105 
L 248.525651 133.786576 
L 251.493407 133.320105 
L 252.482659 129.588338 
L 253.471911 127.722455 
L 254.461163 136.11893 
L 255.450416 142.18305 
L 258.418172 141.250109 
L 259.407424 141.250109 
L 260.396676 144.515405 
L 261.385928 150.579525 
L 262.37518 150.113054 
L 265.342936 151.978938 
L 266.332188 143.115992 
L 267.32144 142.649521 
L 268.310693 147.314229 
L 269.299945 137.518342 
L 272.267701 140.317167 
L 273.256953 137.518342 
L 274.246205 139.384225 
L 275.235457 137.051871 
L 276.224709 137.518342 
L 279.192465 140.317167 
L 280.181717 138.451284 
L 281.17097 134.253046 
L 282.160222 135.185988 
L 283.149474 130.987751 
L 286.11723 128.188926 
L 287.106482 127.722455 
L 288.095734 126.789513 
L 289.084986 129.121867 
L 290.074238 126.789513 
L 293.041994 123.524218 
L 294.031247 123.524218 
L 295.020499 122.124805 
L 296.009751 117.926568 
L 296.999003 122.124805 
L 300.956011 116.060684 
L 301.945263 118.859509 
L 302.934515 117.926568 
L 303.923767 115.127743 
L 306.891524 114.194801 
L 307.880776 109.063622 
L 308.870028 108.13068 
L 309.85928 105.331855 
L 310.848532 107.197739 
L 313.816288 103.932443 
L 314.80554 101.133618 
L 315.794792 101.600089 
L 316.784044 93.670085 
L 317.773296 91.337731 
L 321.730305 79.67596 
L 322.719557 93.203614 
L 323.708809 90.404789 
L 324.698061 86.673023 
L 327.665817 94.136556 
L 328.655069 96.935381 
L 329.644321 91.337731 
L 331.622825 82.941256 
L 335.579834 82.941256 
L 336.569086 83.874198 
L 337.558338 79.67596 
L 338.54759 77.810077 
L 341.515346 78.276548 
L 342.504598 79.67596 
L 343.49385 73.145369 
L 344.483102 68.480661 
L 345.472355 73.61184 
L 348.440111 72.678898 
L 349.429363 77.810077 
L 350.418615 80.142431 
L 351.407867 85.27361 
L 352.397119 80.608902 
L 355.364875 76.877135 
L 356.354127 76.877135 
L 357.34338 75.477723 
L 358.332632 72.678898 
L 359.321884 74.07831 
L 362.28964 71.279486 
L 363.278892 75.011252 
L 364.268144 76.877135 
L 365.257396 91.804202 
L 369.214404 89.471848 
L 370.203657 92.737143 
L 371.192909 97.401852 
L 372.182161 92.737143 
L 373.171413 89.938318 
L 376.139169 90.87126 
L 377.128421 92.737143 
L 378.117673 95.069497 
L 380.096177 96.46891 
L 383.063934 95.069497 
L 384.053186 93.203614 
L 385.042438 97.868322 
L 386.03169 104.398914 
L 387.020942 104.865385 
L 389.988698 98.801264 
L 390.97795 102.06656 
L 391.967202 107.197739 
L 392.956454 102.999501 
L 393.945706 101.133618 
L 396.913463 98.801264 
L 397.902715 105.331855 
L 399.881219 107.197739 
L 400.870471 107.66421 
L 403.838227 103.465972 
L 404.827479 99.267735 
L 405.816731 99.734206 
L 406.805983 99.267735 
L 407.795235 96.002439 
L 411.752244 92.270672 
L 412.741496 90.87126 
L 413.730748 92.270672 
L 414.72 89.938318 
L 414.72 89.938318 
" clip-path="url(#p79e26d17fa)" style="fill: none; stroke: #d62728; stroke-width: 1.5; stroke-linecap: square"/>
   </g>
   <g id="line2d_22">
    <path d="M 57.6 203.757199 
L 58.589252 202.824257 
L 59.578504 200.491903 
L 60.567756 198.62602 
L 61.557008 197.226607 
L 64.524765 196.293666 
L 66.503269 198.159549 
L 67.492521 199.558961 
L 68.481773 195.827195 
L 72.438781 191.162487 
L 73.428033 193.02837 
L 74.417285 193.494841 
L 75.406537 196.760137 
L 78.374294 197.226607 
L 79.363546 195.360724 
L 80.352798 191.628958 
L 81.34205 193.02837 
L 82.331302 194.894253 
L 85.299058 194.427782 
L 86.28831 193.961312 
L 87.277562 194.894253 
L 88.266814 193.02837 
L 89.256066 187.43072 
L 92.223823 188.363662 
L 93.213075 186.031308 
L 94.202327 186.497778 
L 95.191579 181.366599 
L 96.180831 186.497778 
L 99.148587 183.698954 
L 100.137839 181.366599 
L 101.127091 182.766012 
L 102.116343 185.564837 
L 103.105596 187.43072 
L 107.062604 186.031308 
L 108.051856 183.698954 
L 109.041108 185.564837 
L 110.03036 184.631895 
L 112.998116 191.628958 
L 113.987368 198.159549 
L 114.97662 190.696016 
L 115.965873 191.162487 
L 116.955125 196.760137 
L 119.922881 193.494841 
L 120.912133 189.763074 
L 121.901385 186.497778 
L 122.890637 183.698954 
L 123.879889 182.299541 
L 126.847645 175.302479 
L 127.836898 175.302479 
L 128.82615 172.503654 
L 129.815402 172.503654 
L 130.804654 174.836008 
L 134.761662 163.174237 
L 135.750914 165.506592 
L 136.740166 164.57365 
L 137.729418 156.643646 
L 140.697175 157.110117 
L 141.686427 159.442471 
L 142.675679 162.707767 
L 143.664931 164.107179 
L 144.654183 159.442471 
L 147.621939 158.509529 
L 148.611191 152.445408 
L 150.589695 148.713642 
L 151.578947 145.914817 
L 154.546704 143.582463 
L 155.535956 148.713642 
L 156.525208 149.646584 
L 157.51446 143.582463 
L 161.471468 143.115992 
L 162.46072 138.451284 
L 163.449972 141.71658 
L 164.439224 137.984813 
L 165.428476 138.451284 
L 168.396233 143.115992 
L 169.385485 145.448346 
L 171.363989 141.71658 
L 172.353241 138.917755 
L 175.320997 134.253046 
L 176.310249 134.719517 
L 177.299501 137.518342 
L 178.288753 132.853634 
L 179.278006 130.054809 
L 182.245762 134.253046 
L 184.224266 138.917755 
L 185.213518 142.649521 
L 186.20277 138.451284 
L 189.170526 141.250109 
L 190.159778 136.11893 
L 191.14903 140.317167 
L 192.138283 142.18305 
L 193.127535 144.515405 
L 196.095291 140.783638 
L 197.084543 145.448346 
L 198.073795 147.314229 
L 199.063047 147.7807 
L 200.052299 147.314229 
L 204.009307 142.18305 
L 204.99856 137.051871 
L 205.987812 138.451284 
L 206.977064 136.585401 
L 209.94482 132.853634 
L 210.934072 135.185988 
L 211.923324 133.320105 
L 212.912576 132.387163 
L 213.901828 124.92363 
L 216.869584 111.395976 
L 217.858837 108.13068 
L 218.848089 117.926568 
L 219.837341 119.32598 
L 220.826593 120.258922 
L 224.783601 117.926568 
L 225.772853 124.92363 
L 226.762105 128.655397 
L 227.751357 127.255984 
L 230.719114 123.524218 
L 231.708366 123.524218 
L 232.697618 128.188926 
L 234.676122 139.850696 
L 238.63313 142.18305 
L 239.622382 136.585401 
L 240.611634 132.853634 
L 241.600886 128.655397 
L 244.568643 133.320105 
L 245.557895 135.652459 
L 246.547147 136.11893 
L 247.536399 133.786576 
L 248.525651 134.719517 
L 251.493407 133.786576 
L 252.482659 130.987751 
L 253.471911 129.121867 
L 254.461163 136.585401 
L 255.450416 143.115992 
L 258.418172 141.250109 
L 259.407424 141.71658 
L 260.396676 144.048934 
L 261.385928 150.579525 
L 262.37518 150.113054 
L 265.342936 152.911879 
L 266.332188 144.515405 
L 267.32144 144.981875 
L 268.310693 148.713642 
L 269.299945 140.317167 
L 272.267701 143.115992 
L 273.256953 141.250109 
L 274.246205 142.649521 
L 275.235457 138.917755 
L 279.192465 142.649521 
L 280.181717 140.783638 
L 281.17097 136.585401 
L 282.160222 137.518342 
L 283.149474 133.320105 
L 287.106482 129.588338 
L 288.095734 126.789513 
L 289.084986 130.987751 
L 290.074238 129.588338 
L 293.041994 126.323042 
L 294.031247 125.856572 
L 295.020499 124.457159 
L 296.009751 119.32598 
L 296.999003 122.591276 
L 300.956011 116.993626 
L 301.945263 119.792451 
L 302.934515 118.859509 
L 303.923767 116.527155 
L 306.891524 115.127743 
L 307.880776 111.395976 
L 308.870028 111.862447 
L 309.85928 108.597151 
L 310.848532 109.996564 
L 313.816288 107.197739 
L 314.80554 103.932443 
L 315.794792 105.798326 
L 316.784044 96.935381 
L 317.773296 96.46891 
L 320.741053 86.673023 
L 321.730305 82.941256 
L 322.719557 97.401852 
L 323.708809 94.603027 
L 324.698061 90.87126 
L 328.655069 102.06656 
L 329.644321 95.535968 
L 331.622825 88.072435 
L 335.579834 86.673023 
L 336.569086 88.072435 
L 337.558338 84.340669 
L 338.54759 82.474785 
L 341.515346 82.474785 
L 342.504598 83.874198 
L 343.49385 77.343606 
L 344.483102 72.678898 
L 345.472355 76.410665 
L 348.440111 75.011252 
L 349.429363 81.541844 
L 350.418615 83.874198 
L 351.407867 89.005377 
L 352.397119 84.807139 
L 355.364875 81.075373 
L 356.354127 81.075373 
L 357.34338 80.142431 
L 358.332632 77.343606 
L 359.321884 77.343606 
L 362.28964 75.011252 
L 363.278892 79.209489 
L 364.268144 80.142431 
L 365.257396 94.603027 
L 369.214404 91.804202 
L 370.203657 95.069497 
L 371.192909 100.200676 
L 372.182161 95.535968 
L 373.171413 93.203614 
L 376.139169 92.270672 
L 377.128421 96.002439 
L 378.117673 98.334793 
L 380.096177 99.734206 
L 383.063934 98.801264 
L 384.053186 96.46891 
L 385.042438 100.667147 
L 386.03169 107.197739 
L 387.020942 107.66421 
L 389.988698 102.533031 
L 390.97795 106.264797 
L 391.967202 110.929505 
L 392.956454 106.731268 
L 393.945706 103.932443 
L 396.913463 102.06656 
L 397.902715 108.13068 
L 398.891967 108.597151 
L 399.881219 109.996564 
L 400.870471 109.063622 
L 403.838227 104.865385 
L 404.827479 99.734206 
L 405.816731 100.200676 
L 406.805983 100.200676 
L 407.795235 97.401852 
L 411.752244 92.737143 
L 412.741496 90.87126 
L 413.730748 93.670085 
L 414.72 91.337731 
L 414.72 91.337731 
" clip-path="url(#p79e26d17fa)" style="fill: none; stroke: #9467bd; stroke-width: 1.5; stroke-linecap: square"/>
   </g>
   <g id="line2d_23">
    <path d="M 57.6 200.025432 
L 58.589252 198.62602 
L 59.578504 196.293666 
L 60.567756 195.360724 
L 61.557008 193.961312 
L 64.524765 193.02837 
L 65.514017 194.427782 
L 66.503269 194.894253 
L 67.492521 196.760137 
L 68.481773 193.02837 
L 72.438781 188.830133 
L 73.428033 190.696016 
L 74.417285 190.696016 
L 75.406537 194.427782 
L 78.374294 194.427782 
L 79.363546 193.02837 
L 80.352798 189.763074 
L 81.34205 191.628958 
L 82.331302 193.02837 
L 85.299058 192.561899 
L 86.28831 191.628958 
L 87.277562 193.02837 
L 88.266814 191.162487 
L 89.256066 186.031308 
L 92.223823 186.497778 
L 93.213075 184.631895 
L 94.202327 185.564837 
L 95.191579 181.366599 
L 96.180831 186.497778 
L 99.148587 183.698954 
L 100.137839 180.433658 
L 101.127091 181.366599 
L 102.116343 184.165424 
L 103.105596 186.497778 
L 107.062604 185.564837 
L 108.051856 183.232483 
L 109.041108 184.631895 
L 110.03036 184.165424 
L 112.998116 190.696016 
L 113.987368 195.827195 
L 114.97662 189.296603 
L 115.965873 189.296603 
L 116.955125 194.894253 
L 119.922881 193.02837 
L 121.901385 185.564837 
L 122.890637 183.698954 
L 123.879889 182.766012 
L 126.847645 176.23542 
L 127.836898 175.76895 
L 128.82615 173.903066 
L 129.815402 173.436595 
L 130.804654 176.23542 
L 134.761662 165.040121 
L 135.750914 167.838946 
L 136.740166 166.906004 
L 137.729418 160.375412 
L 140.697175 161.308354 
L 141.686427 163.640708 
L 142.675679 166.439533 
L 143.664931 167.838946 
L 144.654183 164.57365 
L 147.621939 163.174237 
L 148.611191 157.576588 
L 149.600443 154.311292 
L 150.589695 151.978938 
L 151.578947 149.180113 
L 154.546704 145.914817 
L 155.535956 149.180113 
L 156.525208 150.113054 
L 157.51446 144.048934 
L 161.471468 143.115992 
L 162.46072 139.384225 
L 163.449972 143.115992 
L 164.439224 140.783638 
L 165.428476 140.783638 
L 168.396233 144.981875 
L 169.385485 146.847759 
L 170.374737 144.515405 
L 171.363989 143.115992 
L 172.353241 141.250109 
L 175.320997 136.585401 
L 176.310249 137.518342 
L 177.299501 139.384225 
L 178.288753 133.786576 
L 179.278006 130.52128 
L 182.245762 133.786576 
L 183.235014 136.585401 
L 184.224266 140.317167 
L 185.213518 143.582463 
L 186.20277 139.384225 
L 189.170526 141.71658 
L 190.159778 137.051871 
L 191.14903 141.250109 
L 192.138283 143.582463 
L 193.127535 146.381288 
L 196.095291 142.649521 
L 197.084543 147.314229 
L 198.073795 147.7807 
L 199.063047 147.7807 
L 200.052299 148.247171 
L 204.009307 143.115992 
L 204.99856 138.917755 
L 205.987812 139.850696 
L 206.977064 137.984813 
L 209.94482 134.253046 
L 210.934072 137.051871 
L 211.923324 134.719517 
L 212.912576 134.253046 
L 213.901828 129.121867 
L 216.869584 116.060684 
L 217.858837 113.261859 
L 218.848089 120.725393 
L 219.837341 123.057747 
L 220.826593 124.457159 
L 224.783601 121.658334 
L 225.772853 128.655397 
L 226.762105 131.920692 
L 227.751357 130.054809 
L 230.719114 126.789513 
L 231.708366 126.789513 
L 232.697618 131.454222 
L 233.68687 137.051871 
L 234.676122 141.71658 
L 238.63313 144.515405 
L 239.622382 139.384225 
L 241.600886 131.920692 
L 245.557895 137.984813 
L 246.547147 140.317167 
L 247.536399 137.984813 
L 248.525651 139.384225 
L 251.493407 137.984813 
L 252.482659 135.652459 
L 253.471911 134.253046 
L 255.450416 146.847759 
L 258.418172 144.981875 
L 259.407424 144.981875 
L 260.396676 146.381288 
L 261.385928 151.045996 
L 262.37518 151.512467 
L 265.342936 154.777763 
L 266.332188 147.7807 
L 267.32144 148.713642 
L 268.310693 151.045996 
L 269.299945 144.048934 
L 272.267701 146.847759 
L 273.256953 145.448346 
L 274.246205 146.381288 
L 275.235457 142.18305 
L 276.224709 143.582463 
L 279.192465 145.914817 
L 280.181717 144.515405 
L 281.17097 141.250109 
L 282.160222 141.71658 
L 283.149474 137.051871 
L 286.11723 134.719517 
L 287.106482 133.786576 
L 288.095734 130.987751 
L 289.084986 134.719517 
L 290.074238 134.253046 
L 293.041994 130.52128 
L 294.031247 130.987751 
L 295.020499 129.121867 
L 296.009751 123.990688 
L 296.999003 126.789513 
L 300.956011 120.725393 
L 301.945263 123.524218 
L 302.934515 122.591276 
L 303.923767 120.725393 
L 306.891524 118.859509 
L 307.880776 116.527155 
L 308.870028 116.993626 
L 309.85928 115.127743 
L 310.848532 115.127743 
L 313.816288 113.261859 
L 314.80554 109.530093 
L 315.794792 112.328918 
L 316.784044 103.465972 
L 317.773296 103.932443 
L 320.741053 95.069497 
L 321.730305 90.87126 
L 322.719557 102.533031 
L 323.708809 100.667147 
L 324.698061 97.401852 
L 328.655069 107.197739 
L 329.644321 100.667147 
L 330.633573 97.401852 
L 331.622825 94.603027 
L 335.579834 92.737143 
L 336.569086 93.670085 
L 337.558338 90.87126 
L 338.54759 89.471848 
L 341.515346 88.538906 
L 342.504598 89.005377 
L 343.49385 82.941256 
L 344.483102 78.276548 
L 345.472355 79.67596 
L 348.440111 77.810077 
L 349.429363 84.807139 
L 350.418615 87.605964 
L 351.407867 91.337731 
L 352.397119 88.538906 
L 355.364875 84.807139 
L 356.354127 86.206552 
L 357.34338 84.807139 
L 358.332632 82.941256 
L 359.321884 81.541844 
L 362.28964 79.209489 
L 363.278892 82.941256 
L 364.268144 83.874198 
L 365.257396 97.868322 
L 369.214404 95.069497 
L 370.203657 98.801264 
L 371.192909 104.865385 
L 372.182161 100.200676 
L 373.171413 97.868322 
L 376.139169 97.401852 
L 377.128421 100.667147 
L 378.117673 102.999501 
L 380.096177 104.398914 
L 383.063934 103.932443 
L 384.053186 101.133618 
L 385.042438 104.398914 
L 386.03169 111.395976 
L 387.020942 112.328918 
L 389.988698 108.13068 
L 391.967202 116.527155 
L 392.956454 113.72833 
L 393.945706 109.530093 
L 396.913463 107.66421 
L 397.902715 112.328918 
L 398.891967 113.261859 
L 399.881219 115.594214 
L 400.870471 113.72833 
L 403.838227 109.530093 
L 404.827479 103.932443 
L 406.805983 104.865385 
L 407.795235 101.133618 
L 411.752244 96.935381 
L 412.741496 95.069497 
L 413.730748 97.401852 
L 414.72 95.069497 
L 414.72 95.069497 
" clip-path="url(#p79e26d17fa)" style="fill: none; stroke: #8c564b; stroke-width: 1.5; stroke-linecap: square"/>
   </g>
   <g id="line2d_24">
    <path d="M 57.6 180.433658 
L 58.589252 178.101304 
L 59.578504 177.168362 
L 60.567756 177.168362 
L 61.557008 175.76895 
L 64.524765 175.76895 
L 65.514017 176.701891 
L 66.503269 176.701891 
L 67.492521 178.101304 
L 68.481773 174.369537 
L 72.438781 171.570712 
L 73.428033 173.436595 
L 74.417285 173.903066 
L 75.406537 176.701891 
L 78.374294 175.76895 
L 79.363546 174.369537 
L 80.352798 172.503654 
L 81.34205 174.836008 
L 82.331302 176.23542 
L 85.299058 174.836008 
L 86.28831 173.903066 
L 87.277562 174.836008 
L 88.266814 173.436595 
L 89.256066 169.238358 
L 92.223823 169.704829 
L 93.213075 168.305416 
L 94.202327 168.305416 
L 95.191579 165.506592 
L 96.180831 168.771887 
L 99.148587 166.439533 
L 100.137839 163.174237 
L 101.127091 164.57365 
L 102.116343 166.439533 
L 103.105596 168.771887 
L 107.062604 168.305416 
L 108.051856 165.973062 
L 109.041108 165.973062 
L 110.03036 165.506592 
L 112.998116 171.104241 
L 113.987368 173.903066 
L 114.97662 167.838946 
L 115.965873 167.838946 
L 116.955125 172.037183 
L 119.922881 169.238358 
L 120.912133 166.906004 
L 121.901385 165.040121 
L 122.890637 161.774825 
L 123.879889 161.774825 
L 126.847645 156.643646 
L 127.836898 156.177175 
L 128.82615 156.643646 
L 129.815402 154.777763 
L 130.804654 158.043058 
L 133.77241 151.512467 
L 134.761662 149.646584 
L 135.750914 152.445408 
L 136.740166 153.37835 
L 137.729418 148.247171 
L 140.697175 149.180113 
L 141.686427 151.045996 
L 142.675679 153.37835 
L 143.664931 155.244233 
L 144.654183 154.777763 
L 147.621939 152.911879 
L 148.611191 148.247171 
L 149.600443 144.981875 
L 150.589695 142.18305 
L 151.578947 138.917755 
L 154.546704 135.185988 
L 155.535956 136.585401 
L 156.525208 137.518342 
L 157.51446 131.920692 
L 161.471468 130.52128 
L 162.46072 127.255984 
L 163.449972 132.387163 
L 164.439224 130.52128 
L 165.428476 129.588338 
L 169.385485 134.719517 
L 170.374737 132.387163 
L 171.363989 131.454222 
L 175.320997 123.990688 
L 176.310249 126.323042 
L 177.299501 126.323042 
L 178.288753 119.792451 
L 179.278006 116.060684 
L 182.245762 118.393039 
L 183.235014 121.658334 
L 184.224266 124.457159 
L 185.213518 125.856572 
L 186.20277 121.191863 
L 189.170526 122.124805 
L 190.159778 119.32598 
L 191.14903 124.92363 
L 192.138283 124.92363 
L 193.127535 128.188926 
L 196.095291 123.990688 
L 197.084543 128.655397 
L 198.073795 129.588338 
L 199.063047 127.722455 
L 200.052299 128.655397 
L 204.99856 121.658334 
L 205.987812 122.124805 
L 206.977064 120.725393 
L 209.94482 116.993626 
L 210.934072 119.792451 
L 211.923324 117.460097 
L 212.912576 117.460097 
L 213.901828 115.127743 
L 216.869584 104.398914 
L 217.858837 102.533031 
L 218.848089 106.264797 
L 219.837341 108.597151 
L 220.826593 110.463035 
L 224.783601 106.731268 
L 225.772853 113.261859 
L 226.762105 115.127743 
L 227.751357 112.328918 
L 230.719114 109.996564 
L 231.708366 110.463035 
L 233.68687 118.393039 
L 234.676122 119.792451 
L 238.63313 121.658334 
L 239.622382 116.527155 
L 240.611634 115.127743 
L 241.600886 111.395976 
L 244.568643 116.060684 
L 245.557895 118.859509 
L 246.547147 119.792451 
L 247.536399 119.32598 
L 248.525651 120.258922 
L 251.493407 117.926568 
L 252.482659 116.527155 
L 253.471911 116.060684 
L 255.450416 125.390101 
L 258.418172 123.057747 
L 260.396676 123.990688 
L 262.37518 126.789513 
L 265.342936 130.52128 
L 266.332188 125.856572 
L 267.32144 128.188926 
L 268.310693 129.121867 
L 269.299945 123.524218 
L 272.267701 125.856572 
L 273.256953 124.92363 
L 274.246205 123.524218 
L 275.235457 118.393039 
L 276.224709 120.258922 
L 279.192465 121.658334 
L 280.181717 121.658334 
L 281.17097 118.859509 
L 282.160222 119.792451 
L 283.149474 115.594214 
L 286.11723 113.72833 
L 287.106482 113.261859 
L 288.095734 110.463035 
L 289.084986 114.194801 
L 290.074238 115.594214 
L 293.041994 112.795389 
L 294.031247 113.261859 
L 295.020499 111.395976 
L 296.009751 106.264797 
L 296.999003 107.66421 
L 300.956011 101.600089 
L 301.945263 104.865385 
L 303.923767 102.999501 
L 306.891524 100.667147 
L 307.880776 101.133618 
L 308.870028 102.06656 
L 309.85928 101.133618 
L 310.848532 99.267735 
L 313.816288 100.200676 
L 314.80554 97.401852 
L 315.794792 102.06656 
L 316.784044 94.136556 
L 317.773296 95.535968 
L 320.741053 89.005377 
L 321.730305 82.474785 
L 322.719557 90.404789 
L 323.708809 89.471848 
L 324.698061 85.740081 
L 327.665817 89.471848 
L 328.655069 91.804202 
L 329.644321 87.139493 
L 330.633573 85.740081 
L 331.622825 83.407727 
L 335.579834 80.608902 
L 336.569086 81.075373 
L 337.558338 77.810077 
L 341.515346 75.944194 
L 342.504598 76.877135 
L 343.49385 71.745956 
L 344.483102 67.547719 
L 345.472355 64.282423 
L 348.440111 61.950069 
L 349.429363 68.480661 
L 350.418615 71.745956 
L 351.407867 74.544781 
L 352.397119 71.745956 
L 355.364875 68.947131 
L 356.354127 72.212427 
L 357.34338 70.346544 
L 358.332632 69.880073 
L 359.321884 66.614777 
L 362.28964 63.815952 
L 363.278892 67.547719 
L 364.268144 66.148306 
L 365.257396 78.276548 
L 369.214404 76.410665 
L 370.203657 80.142431 
L 371.192909 88.072435 
L 372.182161 84.807139 
L 373.171413 83.407727 
L 376.139169 82.941256 
L 378.117673 90.87126 
L 383.063934 90.87126 
L 384.053186 88.538906 
L 385.042438 89.471848 
L 386.03169 96.46891 
L 387.020942 99.267735 
L 389.988698 96.935381 
L 390.97795 100.200676 
L 391.967202 105.331855 
L 392.956454 102.999501 
L 393.945706 97.868322 
L 396.913463 96.935381 
L 397.902715 101.600089 
L 398.891967 101.600089 
L 399.881219 103.932443 
L 400.870471 102.06656 
L 403.838227 97.868322 
L 404.827479 92.270672 
L 405.816731 92.737143 
L 406.805983 93.670085 
L 407.795235 89.938318 
L 412.741496 83.407727 
L 413.730748 85.27361 
L 414.72 82.941256 
L 414.72 82.941256 
" clip-path="url(#p79e26d17fa)" style="fill: none; stroke: #e377c2; stroke-width: 1.5; stroke-linecap: square"/>
   </g>
   <g id="line2d_25">
    <path d="M 57.6 182.299541 
L 58.589252 179.500716 
L 59.578504 178.567775 
L 60.567756 178.567775 
L 61.557008 177.634833 
L 64.524765 177.634833 
L 65.514017 179.034245 
L 66.503269 179.034245 
L 67.492521 180.433658 
L 68.481773 177.168362 
L 72.438781 174.369537 
L 73.428033 176.23542 
L 74.417285 176.23542 
L 75.406537 179.500716 
L 78.374294 178.101304 
L 79.363546 177.168362 
L 80.352798 175.302479 
L 81.34205 178.567775 
L 82.331302 179.500716 
L 85.299058 177.634833 
L 86.28831 177.168362 
L 87.277562 177.634833 
L 88.266814 176.23542 
L 89.256066 172.037183 
L 92.223823 172.503654 
L 93.213075 171.104241 
L 94.202327 171.104241 
L 95.191579 168.771887 
L 96.180831 171.570712 
L 99.148587 169.238358 
L 100.137839 165.506592 
L 102.116343 168.305416 
L 103.105596 171.570712 
L 107.062604 171.570712 
L 108.051856 169.238358 
L 109.041108 169.704829 
L 110.03036 169.238358 
L 112.998116 174.836008 
L 113.987368 177.634833 
L 114.97662 171.570712 
L 115.965873 171.570712 
L 116.955125 175.302479 
L 119.922881 173.903066 
L 121.901385 169.238358 
L 122.890637 165.040121 
L 123.879889 165.973062 
L 126.847645 160.841883 
L 127.836898 159.908942 
L 128.82615 161.308354 
L 129.815402 159.442471 
L 130.804654 163.174237 
L 133.77241 157.110117 
L 134.761662 154.777763 
L 135.750914 158.509529 
L 136.740166 158.976 
L 137.729418 154.777763 
L 140.697175 156.177175 
L 141.686427 158.043058 
L 142.675679 160.375412 
L 143.664931 162.241296 
L 144.654183 162.241296 
L 147.621939 160.375412 
L 148.611191 156.177175 
L 150.589695 150.579525 
L 151.578947 147.314229 
L 154.546704 143.582463 
L 155.535956 144.515405 
L 156.525208 144.981875 
L 157.51446 139.850696 
L 161.471468 138.451284 
L 162.46072 135.652459 
L 163.449972 140.783638 
L 164.439224 138.917755 
L 165.428476 138.451284 
L 169.385485 142.649521 
L 170.374737 140.317167 
L 171.363989 139.850696 
L 172.353241 137.984813 
L 175.320997 132.853634 
L 176.310249 134.719517 
L 177.299501 135.652459 
L 178.288753 129.121867 
L 179.278006 125.390101 
L 182.245762 127.255984 
L 184.224266 133.786576 
L 185.213518 136.11893 
L 186.20277 131.454222 
L 189.170526 131.920692 
L 190.159778 128.188926 
L 191.14903 132.853634 
L 192.138283 133.786576 
L 193.127535 136.585401 
L 196.095291 132.387163 
L 197.084543 137.051871 
L 198.073795 137.518342 
L 199.063047 136.585401 
L 200.052299 137.518342 
L 204.009307 132.853634 
L 204.99856 131.920692 
L 205.987812 131.920692 
L 206.977064 130.987751 
L 209.94482 127.255984 
L 210.934072 130.054809 
L 211.923324 127.722455 
L 212.912576 127.722455 
L 213.901828 126.789513 
L 216.869584 116.527155 
L 217.858837 115.127743 
L 218.848089 117.926568 
L 219.837341 119.792451 
L 220.826593 122.124805 
L 224.783601 117.926568 
L 225.772853 124.457159 
L 226.762105 126.323042 
L 227.751357 123.990688 
L 230.719114 121.658334 
L 231.708366 122.124805 
L 233.68687 129.588338 
L 234.676122 130.987751 
L 238.63313 133.786576 
L 239.622382 129.588338 
L 240.611634 126.789513 
L 241.600886 123.524218 
L 244.568643 127.722455 
L 246.547147 132.387163 
L 247.536399 130.987751 
L 248.525651 131.454222 
L 251.493407 129.588338 
L 252.482659 128.188926 
L 253.471911 128.188926 
L 255.450416 136.11893 
L 258.418172 134.253046 
L 259.407424 134.719517 
L 260.396676 134.719517 
L 261.385928 135.185988 
L 262.37518 136.11893 
L 265.342936 139.850696 
L 266.332188 136.11893 
L 267.32144 137.984813 
L 268.310693 137.518342 
L 269.299945 133.320105 
L 272.267701 136.11893 
L 273.256953 135.652459 
L 274.246205 134.253046 
L 275.235457 129.121867 
L 276.224709 130.52128 
L 279.192465 131.454222 
L 280.181717 130.987751 
L 281.17097 129.121867 
L 282.160222 129.588338 
L 283.149474 125.856572 
L 286.11723 124.92363 
L 287.106482 123.990688 
L 288.095734 121.191863 
L 289.084986 124.457159 
L 290.074238 126.323042 
L 293.041994 124.457159 
L 294.031247 125.390101 
L 295.020499 123.524218 
L 296.009751 118.859509 
L 296.999003 119.792451 
L 300.956011 113.261859 
L 301.945263 116.527155 
L 302.934515 115.127743 
L 306.891524 111.395976 
L 307.880776 112.328918 
L 308.870028 114.194801 
L 309.85928 113.72833 
L 310.848532 111.862447 
L 313.816288 111.862447 
L 314.80554 108.597151 
L 315.794792 112.795389 
L 316.784044 105.798326 
L 317.773296 107.66421 
L 320.741053 102.533031 
L 321.730305 95.535968 
L 322.719557 103.465972 
L 323.708809 102.999501 
L 324.698061 99.267735 
L 327.665817 102.06656 
L 328.655069 103.465972 
L 329.644321 99.734206 
L 330.633573 98.334793 
L 331.622825 96.002439 
L 335.579834 93.203614 
L 336.569086 94.136556 
L 337.558338 90.87126 
L 338.54759 89.938318 
L 341.515346 87.605964 
L 342.504598 87.605964 
L 343.49385 82.474785 
L 345.472355 74.07831 
L 348.440111 70.813015 
L 349.429363 77.343606 
L 351.407867 83.874198 
L 352.397119 82.474785 
L 355.364875 79.209489 
L 356.354127 82.941256 
L 357.34338 82.474785 
L 358.332632 81.075373 
L 359.321884 76.877135 
L 362.28964 73.61184 
L 363.278892 76.410665 
L 364.268144 75.011252 
L 365.257396 88.072435 
L 369.214404 86.206552 
L 370.203657 90.404789 
L 371.192909 96.46891 
L 372.182161 94.603027 
L 373.171413 93.203614 
L 376.139169 93.670085 
L 377.128421 97.401852 
L 378.117673 101.600089 
L 383.063934 101.600089 
L 384.053186 98.334793 
L 385.042438 98.801264 
L 386.03169 106.264797 
L 387.020942 109.996564 
L 389.988698 107.197739 
L 391.967202 116.527155 
L 392.956454 115.594214 
L 393.945706 109.996564 
L 396.913463 109.530093 
L 397.902715 111.395976 
L 398.891967 111.862447 
L 399.881219 113.72833 
L 400.870471 111.395976 
L 403.838227 107.197739 
L 404.827479 101.600089 
L 405.816731 101.600089 
L 406.805983 102.06656 
L 407.795235 97.868322 
L 411.752244 92.737143 
L 412.741496 90.404789 
L 413.730748 93.203614 
L 414.72 90.87126 
L 414.72 90.87126 
" clip-path="url(#p79e26d17fa)" style="fill: none; stroke: #7f7f7f; stroke-width: 1.5; stroke-linecap: square"/>
   </g>
   <g id="patch_3">
    <path d="M 57.6 276.48 
L 57.6 41.472 
" style="fill: none; stroke: #000000; stroke-width: 0.8; stroke-linejoin: miter; stroke-linecap: square"/>
   </g>
   <g id="patch_4">
    <path d="M 414.72 276.48 
L 414.72 41.472 
" style="fill: none; stroke: #000000; stroke-width: 0.8; stroke-linejoin: miter; stroke-linecap: square"/>
   </g>
   <g id="patch_5">
    <path d="M 57.6 276.48 
L 414.72 276.48 
" style="fill: none; stroke: #000000; stroke-width: 0.8; stroke-linejoin: miter; stroke-linecap: square"/>
   </g>
   <g id="patch_6">
    <path d="M 57.6 41.472 
L 414.72 41.472 
" style="fill: none; stroke: #000000; stroke-width: 0.8; stroke-linejoin: miter; stroke-linecap: square"/>
   </g>
   <g id="legend_1">
    <g id="patch_7">
     <path d="M 346.609063 271.48 
L 407.72 271.48 
Q 409.72 271.48 409.72 269.48 
L 409.72 153.055 
Q 409.72 151.055 407.72 151.055 
L 346.609063 151.055 
Q 344.609063 151.055 344.609063 153.055 
L 344.609063 269.48 
Q 344.609063 271.48 346.609063 271.48 
z
" style="fill: #ffffff; opacity: 0.8; stroke: #cccccc; stroke-linejoin: miter"/>
    </g>
    <g id="line2d_26">
     <path d="M 348.609063 159.153437 
L 358.609063 159.153437 
L 368.609063 159.153437 
" style="fill: none; stroke: #1f77b4; stroke-width: 1.5; stroke-linecap: square"/>
    </g>
    <g id="text_20">
     <!-- 0.5 yr -->
     <g transform="translate(376.609063 162.653437) scale(0.1 -0.1)">
      <defs>
       <path id="DejaVuSans-2e" d="M 684 794 
L 1344 794 
L 1344 0 
L 684 0 
L 684 794 
z
" transform="scale(0.015625)"/>
       <path id="DejaVuSans-79" d="M 2059 -325 
Q 1816 -950 1584 -1140 
Q 1353 -1331 966 -1331 
L 506 -1331 
L 506 -850 
L 844 -850 
Q 1081 -850 1212 -737 
Q 1344 -625 1503 -206 
L 1606 56 
L 191 3500 
L 800 3500 
L 1894 763 
L 2988 3500 
L 3597 3500 
L 2059 -325 
z
" transform="scale(0.015625)"/>
       <path id="DejaVuSans-72" d="M 2631 2963 
Q 2534 3019 2420 3045 
Q 2306 3072 2169 3072 
Q 1681 3072 1420 2755 
Q 1159 2438 1159 1844 
L 1159 0 
L 581 0 
L 581 3500 
L 1159 3500 
L 1159 2956 
Q 1341 3275 1631 3429 
Q 1922 3584 2338 3584 
Q 2397 3584 2469 3576 
Q 2541 3569 2628 3553 
L 2631 2963 
z
" transform="scale(0.015625)"/>
      </defs>
      <use xlink:href="#DejaVuSans-30"/>
      <use xlink:href="#DejaVuSans-2e" x="63.623047"/>
      <use xlink:href="#DejaVuSans-35" x="95.410156"/>
      <use xlink:href="#DejaVuSans-20" x="159.033203"/>
      <use xlink:href="#DejaVuSans-79" x="190.820312"/>
      <use xlink:href="#DejaVuSans-72" x="250"/>
     </g>
    </g>
    <g id="line2d_27">
     <path d="M 348.609063 173.831562 
L 358.609063 173.831562 
L 368.609063 173.831562 
" style="fill: none; stroke: #ff7f0e; stroke-width: 1.5; stroke-linecap: square"/>
    </g>
    <g id="text_21">
     <!-- 1 yr -->
     <g transform="translate(376.609063 177.331562) scale(0.1 -0.1)">
      <use xlink:href="#DejaVuSans-31"/>
      <use xlink:href="#DejaVuSans-20" x="63.623047"/>
      <use xlink:href="#DejaVuSans-79" x="95.410156"/>
      <use xlink:href="#DejaVuSans-72" x="154.589844"/>
     </g>
    </g>
    <g id="line2d_28">
     <path d="M 348.609063 188.509687 
L 358.609063 188.509687 
L 368.609063 188.509687 
" style="fill: none; stroke: #2ca02c; stroke-width: 1.5; stroke-linecap: square"/>
    </g>
    <g id="text_22">
     <!-- 2 yr -->
     <g transform="translate(376.609063 192.009687) scale(0.1 -0.1)">
      <use xlink:href="#DejaVuSans-32"/>
      <use xlink:href="#DejaVuSans-20" x="63.623047"/>
      <use xlink:href="#DejaVuSans-79" x="95.410156"/>
      <use xlink:href="#DejaVuSans-72" x="154.589844"/>
     </g>
    </g>
    <g id="line2d_29">
     <path d="M 348.609063 203.187812 
L 358.609063 203.187812 
L 368.609063 203.187812 
" style="fill: none; stroke: #d62728; stroke-width: 1.5; stroke-linecap: square"/>
    </g>
    <g id="text_23">
     <!-- 5 yr -->
     <g transform="translate(376.609063 206.687812) scale(0.1 -0.1)">
      <use xlink:href="#DejaVuSans-35"/>
      <use xlink:href="#DejaVuSans-20" x="63.623047"/>
      <use xlink:href="#DejaVuSans-79" x="95.410156"/>
      <use xlink:href="#DejaVuSans-72" x="154.589844"/>
     </g>
    </g>
    <g id="line2d_30">
     <path d="M 348.609063 217.865937 
L 358.609063 217.865937 
L 368.609063 217.865937 
" style="fill: none; stroke: #9467bd; stroke-width: 1.5; stroke-linecap: square"/>
    </g>
    <g id="text_24">
     <!-- 7 yr -->
     <g transform="translate(376.609063 221.365937) scale(0.1 -0.1)">
      <use xlink:href="#DejaVuSans-37"/>
      <use xlink:href="#DejaVuSans-20" x="63.623047"/>
      <use xlink:href="#DejaVuSans-79" x="95.410156"/>
      <use xlink:href="#DejaVuSans-72" x="154.589844"/>
     </g>
    </g>
    <g id="line2d_31">
     <path d="M 348.609063 232.544062 
L 358.609063 232.544062 
L 368.609063 232.544062 
" style="fill: none; stroke: #8c564b; stroke-width: 1.5; stroke-linecap: square"/>
    </g>
    <g id="text_25">
     <!-- 10 yr -->
     <g transform="translate(376.609063 236.044062) scale(0.1 -0.1)">
      <use xlink:href="#DejaVuSans-31"/>
      <use xlink:href="#DejaVuSans-30" x="63.623047"/>
      <use xlink:href="#DejaVuSans-20" x="127.246094"/>
      <use xlink:href="#DejaVuSans-79" x="159.033203"/>
      <use xlink:href="#DejaVuSans-72" x="218.212891"/>
     </g>
    </g>
    <g id="line2d_32">
     <path d="M 348.609063 247.222187 
L 358.609063 247.222187 
L 368.609063 247.222187 
" style="fill: none; stroke: #e377c2; stroke-width: 1.5; stroke-linecap: square"/>
    </g>
    <g id="text_26">
     <!-- 20 yr -->
     <g transform="translate(376.609063 250.722187) scale(0.1 -0.1)">
      <use xlink:href="#DejaVuSans-32"/>
      <use xlink:href="#DejaVuSans-30" x="63.623047"/>
      <use xlink:href="#DejaVuSans-20" x="127.246094"/>
      <use xlink:href="#DejaVuSans-79" x="159.033203"/>
      <use xlink:href="#DejaVuSans-72" x="218.212891"/>
     </g>
    </g>
    <g id="line2d_33">
     <path d="M 348.609063 261.900312 
L 358.609063 261.900312 
L 368.609063 261.900312 
" style="fill: none; stroke: #7f7f7f; stroke-width: 1.5; stroke-linecap: square"/>
    </g>
    <g id="text_27">
     <!-- 30 yr -->
     <g transform="translate(376.609063 265.400312) scale(0.1 -0.1)">
      <use xlink:href="#DejaVuSans-33"/>
      <use xlink:href="#DejaVuSans-30" x="63.623047"/>
      <use xlink:href="#DejaVuSans-20" x="127.246094"/>
      <use xlink:href="#DejaVuSans-79" x="159.033203"/>
      <use xlink:href="#DejaVuSans-72" x="218.212891"/>
     </g>
    </g>
   </g>
  </g>
 </g>
 <defs>
  <clipPath id="p79e26d17fa">
   <rect x="57.6" y="41.472" width="357.12" height="235.008"/>
  </clipPath>
 </defs>
</svg>
