<?xml version="1.0" encoding="utf-8" standalone="no"?>
<!DOCTYPE svg PUBLIC "-//W3C//DTD SVG 1.1//EN"
  "http://www.w3.org/Graphics/SVG/1.1/DTD/svg11.dtd">
<svg xmlns:xlink="http://www.w3.org/1999/xlink" width="460.8pt" height="345.6pt" viewBox="0 0 460.8 345.6" xmlns="http://www.w3.org/2000/svg" version="1.1">
 <metadata>
  <rdf:RDF xmlns:dc="http://purl.org/dc/elements/1.1/" xmlns:cc="http://creativecommons.org/ns#" xmlns:rdf="http://www.w3.org/1999/02/22-rdf-syntax-ns#">
   <cc:Work>
    <dc:type rdf:resource="http://purl.org/dc/dcmitype/StillImage"/>
    <dc:date>2024-03-16T14:00:24.986689</dc:date>
    <dc:format>image/svg+xml</dc:format>
    <dc:creator>
     <cc:Agent>
      <dc:title>Matplotlib v3.8.3, https://matplotlib.org/</dc:title>
     </cc:Agent>
    </dc:creator>
   </cc:Work>
  </rdf:RDF>
 </metadata>
 <defs>
  <style type="text/css">*{stroke-linejoin: round; stroke-linecap: butt}</style>
 </defs>
 <g id="figure_1">
  <g id="patch_1">
   <path d="M 0 345.6 
L 460.8 345.6 
L 460.8 0 
L 0 0 
z
" style="fill: #ffffff"/>
  </g>
  <g id="axes_1">
   <g id="patch_2">
    <path d="M 57.6 148.293818 
L 135.234783 148.293818 
L 135.234783 41.472 
L 57.6 41.472 
z
" style="fill: #ffffff"/>
   </g>
   <g id="matplotlib.axis_1">
    <g id="xtick_1">
     <g id="line2d_1">
      <defs>
       <path id="md68919d927" d="M 0 0 
L 0 2 
" style="stroke: #000000; stroke-width: 0.6"/>
      </defs>
      <g>
       <use xlink:href="#md68919d927" x="58.675274" y="148.293818" style="stroke: #000000; stroke-width: 0.6"/>
      </g>
     </g>
    </g>
    <g id="xtick_2">
     <g id="line2d_2">
      <g>
       <use xlink:href="#md68919d927" x="101.686234" y="148.293818" style="stroke: #000000; stroke-width: 0.6"/>
      </g>
     </g>
    </g>
   </g>
   <g id="matplotlib.axis_2">
    <g id="ytick_1">
     <g id="line2d_3">
      <defs>
       <path id="mbb66391bcd" d="M 0 0 
L -2 0 
" style="stroke: #000000; stroke-width: 0.6"/>
      </defs>
      <g>
       <use xlink:href="#mbb66391bcd" x="57.6" y="136.543764" style="stroke: #000000; stroke-width: 0.6"/>
      </g>
     </g>
    </g>
    <g id="ytick_2">
     <g id="line2d_4">
      <g>
       <use xlink:href="#mbb66391bcd" x="57.6" y="113.89035" style="stroke: #000000; stroke-width: 0.6"/>
      </g>
     </g>
    </g>
    <g id="ytick_3">
     <g id="line2d_5">
      <g>
       <use xlink:href="#mbb66391bcd" x="57.6" y="91.236936" style="stroke: #000000; stroke-width: 0.6"/>
      </g>
     </g>
    </g>
    <g id="ytick_4">
     <g id="line2d_6">
      <g>
       <use xlink:href="#mbb66391bcd" x="57.6" y="68.583523" style="stroke: #000000; stroke-width: 0.6"/>
      </g>
     </g>
    </g>
    <g id="ytick_5">
     <g id="line2d_7">
      <g>
       <use xlink:href="#mbb66391bcd" x="57.6" y="45.930109" style="stroke: #000000; stroke-width: 0.6"/>
      </g>
     </g>
    </g>
   </g>
   <g id="line2d_8">
    <path d="M 57.815055 113.89035 
L 58.03011 113.89035 
L 58.245164 103.593344 
L 58.460219 104.04104 
L 59.105384 76.134661 
L 59.320438 113.89035 
L 59.535493 121.980855 
L 59.750548 105.500197 
L 59.965603 97.70934 
L 60.825822 61.032385 
L 61.040877 120.012894 
L 61.255932 113.89035 
L 61.470986 120.182965 
L 62.116151 88.000734 
L 62.331206 113.89035 
L 62.54626 108.081782 
L 62.761315 96.90029 
L 62.97637 113.89035 
L 63.621534 82.280936 
L 63.836589 118.513496 
L 64.051644 128.048734 
L 64.481754 76.134661 
L 65.126918 105.799845 
L 65.341973 109.984589 
L 65.557028 121.569473 
L 65.772082 46.327537 
L 65.987137 123.074166 
L 66.632302 97.937242 
L 66.847356 125.813199 
L 67.062411 129.621887 
L 67.492521 113.89035 
L 68.35274 86.009225 
L 68.78285 141.441799 
L 68.997904 92.979507 
L 69.643069 120.271593 
L 69.858124 143.438281 
L 70.073178 83.685798 
L 70.288233 110.558966 
L 70.503288 113.89035 
L 71.148452 94.191729 
L 71.363507 122.951716 
L 71.578562 104.451428 
L 71.793617 113.89035 
L 72.008672 104.828985 
L 72.653836 90.65608 
L 72.868891 113.89035 
L 73.083946 113.89035 
L 73.299 127.060939 
L 73.514055 108.296915 
L 74.15922 81.138427 
L 74.374274 111.50578 
L 74.589329 120.969542 
L 74.804384 106.582797 
L 75.019439 102.091697 
L 75.664603 98.189964 
L 75.879658 118.085427 
L 76.094713 118.164579 
L 76.309768 109.533924 
L 76.524822 107.479007 
L 77.169987 103.498876 
L 77.385042 115.877492 
L 77.600096 109.880896 
L 77.815151 113.89035 
L 78.030206 106.010902 
L 78.67537 106.275757 
L 78.890425 119.415573 
L 79.10548 113.89035 
L 79.320535 104.451428 
L 80.395809 112.106617 
L 80.610864 112.120552 
L 80.825918 108.622114 
L 81.040973 110.458015 
L 81.686138 100.365924 
L 81.901192 117.080972 
L 82.116247 115.508451 
L 82.331302 115.520092 
L 82.546357 108.965695 
L 83.191521 101.037349 
L 83.406576 119.971803 
L 83.621631 115.452654 
L 83.836686 124.902426 
L 84.05174 107.276215 
L 84.91196 112.306195 
L 85.127014 115.463504 
L 85.557124 109.170889 
L 86.202288 103.10301 
L 86.847453 119.698918 
L 87.062508 115.380706 
L 87.707672 104.888994 
L 87.922727 119.66192 
L 88.137782 115.370965 
L 88.352836 113.89035 
L 89.42811 99.180341 
L 89.643165 115.271656 
L 90.073275 108.365127 
L 90.718439 105.799845 
L 90.933494 112.58843 
L 91.148549 111.301388 
L 91.363604 108.770935 
L 91.578658 92.613663 
L 92.223823 82.999331 
L 92.438878 95.767619 
L 92.653932 124.144982 
L 92.868987 121.701872 
L 93.084042 112.879037 
L 93.944261 92.747164 
L 94.159316 119.415573 
L 94.374371 110.114781 
L 94.589426 107.39142 
L 95.23459 109.377718 
L 95.449645 114.775249 
L 95.6647 113.89035 
L 95.879754 117.443827 
L 96.094809 112.987824 
L 96.955028 107.597735 
L 97.170083 111.266403 
L 97.385138 112.161082 
L 98.245357 104.592307 
L 98.460412 114.7023 
L 98.675467 99.222672 
L 98.890521 116.186304 
L 99.105576 113.117196 
L 99.750741 107.726156 
L 100.395905 116.871062 
L 100.61096 116.155691 
L 101.256124 107.025679 
L 101.471179 117.591888 
L 101.686234 119.911191 
L 102.116343 113.109198 
L 102.761508 109.998011 
L 102.976563 110.829078 
L 103.406672 115.400578 
L 103.621727 104.76817 
L 104.266891 110.236574 
L 104.697001 116.040991 
L 104.912056 117.509106 
L 105.127111 110.212848 
L 105.98733 114.614101 
L 106.202385 111.712137 
L 106.417439 116.047818 
L 106.632494 110.986066 
L 107.277659 108.872189 
L 107.492713 115.293038 
L 107.707768 108.950353 
L 107.922823 115.962309 
L 108.137878 113.193322 
L 108.783042 109.72101 
L 108.998097 114.572682 
L 109.428207 112.525687 
L 109.643261 114.568596 
L 110.503481 109.128371 
L 110.718535 112.557796 
L 110.93359 112.565589 
L 111.148645 108.622114 
L 111.793809 111.316098 
L 112.008864 101.800045 
L 112.223919 113.286259 
L 112.438974 112.685381 
L 112.654029 114.489647 
L 113.299193 107.881487 
L 113.514248 114.47571 
L 113.944357 113.303474 
L 114.159412 115.061069 
L 114.804577 108.006346 
L 115.019631 116.184367 
L 115.234686 116.207835 
L 115.664796 110.963552 
L 116.30996 111.000884 
L 116.525015 113.319735 
L 116.74007 112.751988 
L 117.170179 111.08671 
L 118.030399 109.459364 
L 118.245453 114.433597 
L 118.460508 106.266605 
L 118.675563 113.363526 
L 119.320727 110.211141 
L 119.535782 113.373149 
L 119.750837 110.794211 
L 119.965892 112.363154 
L 120.180947 116.418633 
L 120.826111 109.288076 
L 121.041166 114.892713 
L 121.256221 115.400578 
L 121.471275 115.410713 
L 121.68633 110.318866 
L 122.331495 110.876592 
L 122.546549 113.394652 
L 122.761604 114.384966 
L 122.976659 113.89035 
L 123.191714 114.881747 
L 123.836878 110.405209 
L 124.051933 114.871017 
L 124.266988 114.382816 
L 124.482043 117.345119 
L 125.342262 112.386805 
L 125.557317 114.388227 
L 125.772371 113.89035 
L 125.987426 112.393428 
L 126.202481 111.907557 
L 126.847645 111.924761 
L 127.0627 112.428839 
L 127.277755 114.374397 
L 127.707865 113.89035 
L 128.353029 111.464931 
L 128.568084 113.89035 
L 128.998193 116.300288 
L 129.213248 113.89035 
L 129.858413 109.992989 
L 130.073467 113.41142 
L 130.288522 114.84619 
L 130.503577 114.370295 
L 131.363796 111.010679 
L 131.578851 117.681716 
L 132.008961 112.922255 
L 132.224015 114.854325 
L 132.86918 112.438208 
L 133.299289 115.336313 
L 134.589618 109.524596 
L 134.804673 114.366262 
L 135.019728 114.844178 
L 135.234783 112.453558 
L 135.234783 112.453558 
" clip-path="url(#p655e7df374)" style="fill: none; stroke: #1f77b4; stroke-width: 1.5; stroke-linecap: square"/>
   </g>
   <g id="patch_3">
    <path d="M 57.6 148.293818 
L 57.6 41.472 
" style="fill: none; stroke: #000000; stroke-width: 0.8; stroke-linejoin: miter; stroke-linecap: square"/>
   </g>
   <g id="patch_4">
    <path d="M 135.234783 148.293818 
L 135.234783 41.472 
" style="fill: none; stroke: #000000; stroke-width: 0.8; stroke-linejoin: miter; stroke-linecap: square"/>
   </g>
   <g id="patch_5">
    <path d="M 57.6 148.293818 
L 135.234783 148.293818 
" style="fill: none; stroke: #000000; stroke-width: 0.8; stroke-linejoin: miter; stroke-linecap: square"/>
   </g>
   <g id="patch_6">
    <path d="M 57.6 41.472 
L 135.234783 41.472 
" style="fill: none; stroke: #000000; stroke-width: 0.8; stroke-linejoin: miter; stroke-linecap: square"/>
   </g>
   <g id="legend_1">
    <g id="patch_7">
     <path d="M 67.123845 64.150125 
L 128.234783 64.150125 
Q 130.234783 64.150125 130.234783 62.150125 
L 130.234783 48.472 
Q 130.234783 46.472 128.234783 46.472 
L 67.123845 46.472 
Q 65.123845 46.472 65.123845 48.472 
L 65.123845 62.150125 
Q 65.123845 64.150125 67.123845 64.150125 
z
" style="fill: #ffffff; opacity: 0.8; stroke: #cccccc; stroke-linejoin: miter"/>
    </g>
    <g id="line2d_9">
     <path d="M 69.123845 54.570437 
L 79.123845 54.570437 
L 89.123845 54.570437 
" style="fill: none; stroke: #1f77b4; stroke-width: 1.5; stroke-linecap: square"/>
    </g>
    <g id="text_1">
     <!-- 0.5 yr -->
     <g transform="translate(97.123845 58.070437) scale(0.1 -0.1)">
      <defs>
       <path id="DejaVuSans-30" d="M 2034 4250 
Q 1547 4250 1301 3770 
Q 1056 3291 1056 2328 
Q 1056 1369 1301 889 
Q 1547 409 2034 409 
Q 2525 409 2770 889 
Q 3016 1369 3016 2328 
Q 3016 3291 2770 3770 
Q 2525 4250 2034 4250 
z
M 2034 4750 
Q 2819 4750 3233 4129 
Q 3647 3509 3647 2328 
Q 3647 1150 3233 529 
Q 2819 -91 2034 -91 
Q 1250 -91 836 529 
Q 422 1150 422 2328 
Q 422 3509 836 4129 
Q 1250 4750 2034 4750 
z
" transform="scale(0.015625)"/>
       <path id="DejaVuSans-2e" d="M 684 794 
L 1344 794 
L 1344 0 
L 684 0 
L 684 794 
z
" transform="scale(0.015625)"/>
       <path id="DejaVuSans-35" d="M 691 4666 
L 3169 4666 
L 3169 4134 
L 1269 4134 
L 1269 2991 
Q 1406 3038 1543 3061 
Q 1681 3084 1819 3084 
Q 2600 3084 3056 2656 
Q 3513 2228 3513 1497 
Q 3513 744 3044 326 
Q 2575 -91 1722 -91 
Q 1428 -91 1123 -41 
Q 819 9 494 109 
L 494 744 
Q 775 591 1075 516 
Q 1375 441 1709 441 
Q 2250 441 2565 725 
Q 2881 1009 2881 1497 
Q 2881 1984 2565 2268 
Q 2250 2553 1709 2553 
Q 1456 2553 1204 2497 
Q 953 2441 691 2322 
L 691 4666 
z
" transform="scale(0.015625)"/>
       <path id="DejaVuSans-20" transform="scale(0.015625)"/>
       <path id="DejaVuSans-79" d="M 2059 -325 
Q 1816 -950 1584 -1140 
Q 1353 -1331 966 -1331 
L 506 -1331 
L 506 -850 
L 844 -850 
Q 1081 -850 1212 -737 
Q 1344 -625 1503 -206 
L 1606 56 
L 191 3500 
L 800 3500 
L 1894 763 
L 2988 3500 
L 3597 3500 
L 2059 -325 
z
" transform="scale(0.015625)"/>
       <path id="DejaVuSans-72" d="M 2631 2963 
Q 2534 3019 2420 3045 
Q 2306 3072 2169 3072 
Q 1681 3072 1420 2755 
Q 1159 2438 1159 1844 
L 1159 0 
L 581 0 
L 581 3500 
L 1159 3500 
L 1159 2956 
Q 1341 3275 1631 3429 
Q 1922 3584 2338 3584 
Q 2397 3584 2469 3576 
Q 2541 3569 2628 3553 
L 2631 2963 
z
" transform="scale(0.015625)"/>
      </defs>
      <use xlink:href="#DejaVuSans-30"/>
      <use xlink:href="#DejaVuSans-2e" x="63.623047"/>
      <use xlink:href="#DejaVuSans-35" x="95.410156"/>
      <use xlink:href="#DejaVuSans-20" x="159.033203"/>
      <use xlink:href="#DejaVuSans-79" x="190.820312"/>
      <use xlink:href="#DejaVuSans-72" x="250"/>
     </g>
    </g>
   </g>
  </g>
  <g id="axes_2">
   <g id="patch_8">
    <path d="M 150.761739 148.293818 
L 228.396522 148.293818 
L 228.396522 41.472 
L 150.761739 41.472 
z
" style="fill: #ffffff"/>
   </g>
   <g id="matplotlib.axis_3">
    <g id="xtick_3">
     <g id="line2d_10">
      <g>
       <use xlink:href="#md68919d927" x="151.837013" y="148.293818" style="stroke: #000000; stroke-width: 0.6"/>
      </g>
     </g>
    </g>
    <g id="xtick_4">
     <g id="line2d_11">
      <g>
       <use xlink:href="#md68919d927" x="194.847973" y="148.293818" style="stroke: #000000; stroke-width: 0.6"/>
      </g>
     </g>
    </g>
   </g>
   <g id="matplotlib.axis_4">
    <g id="ytick_6">
     <g id="line2d_12">
      <g>
       <use xlink:href="#mbb66391bcd" x="150.761739" y="136.543764" style="stroke: #000000; stroke-width: 0.6"/>
      </g>
     </g>
    </g>
    <g id="ytick_7">
     <g id="line2d_13">
      <g>
       <use xlink:href="#mbb66391bcd" x="150.761739" y="113.89035" style="stroke: #000000; stroke-width: 0.6"/>
      </g>
     </g>
    </g>
    <g id="ytick_8">
     <g id="line2d_14">
      <g>
       <use xlink:href="#mbb66391bcd" x="150.761739" y="91.236936" style="stroke: #000000; stroke-width: 0.6"/>
      </g>
     </g>
    </g>
    <g id="ytick_9">
     <g id="line2d_15">
      <g>
       <use xlink:href="#mbb66391bcd" x="150.761739" y="68.583523" style="stroke: #000000; stroke-width: 0.6"/>
      </g>
     </g>
    </g>
    <g id="ytick_10">
     <g id="line2d_16">
      <g>
       <use xlink:href="#mbb66391bcd" x="150.761739" y="45.930109" style="stroke: #000000; stroke-width: 0.6"/>
      </g>
     </g>
    </g>
   </g>
   <g id="line2d_17">
    <path d="M 150.976794 125.217057 
L 151.191849 96.006076 
L 151.406904 91.789459 
L 151.621958 123.958534 
L 152.267123 98.085643 
L 152.482178 113.89035 
L 152.697232 104.04104 
L 152.912287 118.609811 
L 153.127342 94.610849 
L 153.987561 82.797429 
L 154.202616 117.796111 
L 154.417671 101.967501 
L 154.632726 121.441488 
L 155.27789 113.89035 
L 155.492945 86.550023 
L 155.708 96.464647 
L 155.923054 97.70934 
L 156.138109 113.89035 
L 156.783274 104.828985 
L 157.213383 119.698918 
L 157.428438 107.928925 
L 157.643493 81.943228 
L 158.288657 116.435677 
L 158.503712 106.167595 
L 158.718767 113.89035 
L 158.933822 56.634469 
L 159.148876 127.800341 
L 159.794041 101.187501 
L 160.009096 117.899804 
L 160.22415 117.972046 
L 160.439205 122.203529 
L 160.65426 118.205286 
L 161.514479 83.099302 
L 161.729534 115.826539 
L 161.944589 129.513394 
L 162.159644 103.402659 
L 162.804808 137.947073 
L 163.019863 136.319473 
L 163.234917 76.549558 
L 163.449972 109.616121 
L 163.665027 120.182965 
L 164.310191 109.575414 
L 164.525246 103.304643 
L 164.740301 107.822471 
L 164.955356 106.010902 
L 165.170411 108.179405 
L 165.815575 102.749327 
L 166.03063 113.89035 
L 166.245685 101.501764 
L 166.460739 122.280503 
L 167.320959 94.573486 
L 167.536013 83.146431 
L 167.751068 123.863551 
L 168.181178 96.352223 
L 169.041397 116.571227 
L 169.256452 117.959826 
L 169.471507 115.271656 
L 169.686561 101.38233 
L 170.331726 113.89035 
L 170.546781 107.305055 
L 170.97689 115.155904 
L 171.191945 110.072359 
L 171.837109 108.884071 
L 172.052164 123.686421 
L 172.482274 106.254368 
L 173.342493 113.89035 
L 173.557548 101.578712 
L 173.772603 115.058052 
L 173.987657 104.500334 
L 174.202712 108.255173 
L 174.847877 117.189391 
L 175.062931 118.354077 
L 175.277986 116.167075 
L 175.493041 105.840914 
L 175.708096 107.227581 
L 176.35326 113.89035 
L 176.568315 107.417946 
L 176.78337 123.329272 
L 176.998425 112.795982 
L 177.213479 113.89035 
L 177.858644 123.692308 
L 178.073699 111.613625 
L 178.288753 116.144421 
L 178.503808 117.305438 
L 178.718863 104.644059 
L 179.364027 110.558966 
L 179.579082 104.04104 
L 180.009192 119.134196 
L 180.224247 118.184836 
L 180.869411 111.701614 
L 181.084466 121.477618 
L 181.299521 115.011806 
L 181.514575 116.144421 
L 181.72963 111.613625 
L 182.804904 105.177499 
L 183.019959 114.939119 
L 183.235014 110.729409 
L 183.880178 108.694613 
L 184.095233 110.842806 
L 184.310288 110.88326 
L 184.525343 107.954958 
L 184.740397 91.718924 
L 185.385562 86.671132 
L 185.600617 93.510116 
L 185.815671 129.711782 
L 186.030726 117.75612 
L 186.245781 115.463504 
L 187.106 109.137886 
L 187.321055 123.975774 
L 187.751165 109.815995 
L 188.396329 109.087506 
L 188.611384 114.674205 
L 188.826439 113.89035 
L 189.041493 120.182965 
L 189.256548 114.699401 
L 190.116767 115.514251 
L 190.331822 109.801286 
L 190.546877 109.873787 
L 190.761932 106.786492 
L 191.407096 113.125032 
L 191.622151 106.262938 
L 191.837206 103.559803 
L 192.052261 117.418919 
L 192.267315 116.757871 
L 192.91248 113.164279 
L 193.127535 110.271594 
L 193.772699 121.174406 
L 194.417863 109.374719 
L 194.847973 118.332196 
L 195.063028 119.176147 
L 195.278083 110.02458 
L 195.923247 113.89035 
L 196.138302 105.528352 
L 196.568411 116.054689 
L 196.783466 100.77905 
L 197.428631 113.201796 
L 197.643685 111.830949 
L 197.85874 118.652329 
L 198.073795 114.58524 
L 198.28885 113.193322 
L 198.934014 115.97502 
L 199.149069 111.786318 
L 199.364124 113.19546 
L 199.579179 115.968645 
L 199.794233 112.491991 
L 200.439398 109.72101 
L 200.654453 115.937345 
L 200.869507 109.759028 
L 201.084562 115.242793 
L 201.299617 111.849502 
L 201.944781 109.170889 
L 202.589946 113.24311 
L 202.805001 116.471936 
L 203.66522 104.750644 
L 203.880275 114.517868 
L 204.095329 113.89035 
L 204.310384 109.48552 
L 204.955549 112.038572 
L 205.170603 100.420753 
L 205.385658 112.15667 
L 205.600713 111.022829 
L 205.815768 116.155691 
L 206.460932 108.741847 
L 206.675987 115.009037 
L 206.891042 111.079753 
L 207.106097 113.89035 
L 207.321151 110.003735 
L 207.966316 112.798619 
L 208.181371 114.433597 
L 208.396425 123.147755 
L 208.826535 109.906081 
L 209.471699 116.127724 
L 209.686754 105.981428 
L 209.901809 114.436215 
L 210.116864 111.154431 
L 210.331919 111.187079 
L 211.192138 111.753236 
L 211.407193 113.89035 
L 211.622247 104.363213 
L 211.837302 111.858654 
L 212.482467 113.89035 
L 212.697521 113.89035 
L 212.912576 108.856258 
L 213.127631 110.935557 
L 213.342686 117.779348 
L 213.98785 112.406502 
L 214.41796 116.845143 
L 214.633015 115.886246 
L 214.848069 111.373304 
L 215.493234 108.413701 
L 215.708289 109.515227 
L 215.923343 113.413436 
L 216.138398 112.938526 
L 216.353453 114.838192 
L 216.998617 111.986702 
L 217.213672 115.306188 
L 217.428727 114.840179 
L 217.643782 121.520974 
L 218.504001 111.916196 
L 218.719056 115.358174 
L 219.149165 110.948348 
L 219.36422 110.986066 
L 220.009385 113.41243 
L 220.224439 111.982694 
L 220.439494 115.782076 
L 220.869604 113.413436 
L 221.514768 113.89035 
L 221.729823 112.938526 
L 222.159933 117.713711 
L 222.374987 112.431976 
L 223.020152 110.026228 
L 223.235207 115.790007 
L 223.450261 116.763933 
L 223.665316 111.950015 
L 223.880371 113.409386 
L 224.525535 112.450514 
L 224.74059 119.136404 
L 224.955645 113.89035 
L 225.1707 113.40213 
L 225.385755 115.839031 
L 226.030919 112.416158 
L 226.461029 115.843231 
L 226.676083 111.920488 
L 226.891138 112.91391 
L 227.751357 109.515227 
L 227.966412 115.798006 
L 228.396522 112.928422 
L 228.396522 112.928422 
" clip-path="url(#pd0887f4753)" style="fill: none; stroke: #ff7f0e; stroke-width: 1.5; stroke-linecap: square"/>
   </g>
   <g id="patch_9">
    <path d="M 150.761739 148.293818 
L 150.761739 41.472 
" style="fill: none; stroke: #000000; stroke-width: 0.8; stroke-linejoin: miter; stroke-linecap: square"/>
   </g>
   <g id="patch_10">
    <path d="M 228.396522 148.293818 
L 228.396522 41.472 
" style="fill: none; stroke: #000000; stroke-width: 0.8; stroke-linejoin: miter; stroke-linecap: square"/>
   </g>
   <g id="patch_11">
    <path d="M 150.761739 148.293818 
L 228.396522 148.293818 
" style="fill: none; stroke: #000000; stroke-width: 0.8; stroke-linejoin: miter; stroke-linecap: square"/>
   </g>
   <g id="patch_12">
    <path d="M 150.761739 41.472 
L 228.396522 41.472 
" style="fill: none; stroke: #000000; stroke-width: 0.8; stroke-linejoin: miter; stroke-linecap: square"/>
   </g>
   <g id="legend_2">
    <g id="patch_13">
     <path d="M 169.826209 64.150125 
L 221.396522 64.150125 
Q 223.396522 64.150125 223.396522 62.150125 
L 223.396522 48.472 
Q 223.396522 46.472 221.396522 46.472 
L 169.826209 46.472 
Q 167.826209 46.472 167.826209 48.472 
L 167.826209 62.150125 
Q 167.826209 64.150125 169.826209 64.150125 
z
" style="fill: #ffffff; opacity: 0.8; stroke: #cccccc; stroke-linejoin: miter"/>
    </g>
    <g id="line2d_18">
     <path d="M 171.826209 54.570437 
L 181.826209 54.570437 
L 191.826209 54.570437 
" style="fill: none; stroke: #ff7f0e; stroke-width: 1.5; stroke-linecap: square"/>
    </g>
    <g id="text_2">
     <!-- 1 yr -->
     <g transform="translate(199.826209 58.070437) scale(0.1 -0.1)">
      <defs>
       <path id="DejaVuSans-31" d="M 794 531 
L 1825 531 
L 1825 4091 
L 703 3866 
L 703 4441 
L 1819 4666 
L 2450 4666 
L 2450 531 
L 3481 531 
L 3481 0 
L 794 0 
L 794 531 
z
" transform="scale(0.015625)"/>
      </defs>
      <use xlink:href="#DejaVuSans-31"/>
      <use xlink:href="#DejaVuSans-20" x="63.623047"/>
      <use xlink:href="#DejaVuSans-79" x="95.410156"/>
      <use xlink:href="#DejaVuSans-72" x="154.589844"/>
     </g>
    </g>
   </g>
  </g>
  <g id="axes_3">
   <g id="patch_14">
    <path d="M 243.923478 148.293818 
L 321.558261 148.293818 
L 321.558261 41.472 
L 243.923478 41.472 
z
" style="fill: #ffffff"/>
   </g>
   <g id="matplotlib.axis_5">
    <g id="xtick_5">
     <g id="line2d_19">
      <g>
       <use xlink:href="#md68919d927" x="244.998752" y="148.293818" style="stroke: #000000; stroke-width: 0.6"/>
      </g>
     </g>
    </g>
    <g id="xtick_6">
     <g id="line2d_20">
      <g>
       <use xlink:href="#md68919d927" x="288.009712" y="148.293818" style="stroke: #000000; stroke-width: 0.6"/>
      </g>
     </g>
    </g>
   </g>
   <g id="matplotlib.axis_6">
    <g id="ytick_11">
     <g id="line2d_21">
      <g>
       <use xlink:href="#mbb66391bcd" x="243.923478" y="136.543764" style="stroke: #000000; stroke-width: 0.6"/>
      </g>
     </g>
    </g>
    <g id="ytick_12">
     <g id="line2d_22">
      <g>
       <use xlink:href="#mbb66391bcd" x="243.923478" y="113.89035" style="stroke: #000000; stroke-width: 0.6"/>
      </g>
     </g>
    </g>
    <g id="ytick_13">
     <g id="line2d_23">
      <g>
       <use xlink:href="#mbb66391bcd" x="243.923478" y="91.236936" style="stroke: #000000; stroke-width: 0.6"/>
      </g>
     </g>
    </g>
    <g id="ytick_14">
     <g id="line2d_24">
      <g>
       <use xlink:href="#mbb66391bcd" x="243.923478" y="68.583523" style="stroke: #000000; stroke-width: 0.6"/>
      </g>
     </g>
    </g>
    <g id="ytick_15">
     <g id="line2d_25">
      <g>
       <use xlink:href="#mbb66391bcd" x="243.923478" y="45.930109" style="stroke: #000000; stroke-width: 0.6"/>
      </g>
     </g>
    </g>
   </g>
   <g id="line2d_26">
    <path d="M 244.138533 116.794634 
L 244.353588 96.238339 
L 244.568643 100.243715 
L 244.783697 116.464602 
L 245.428862 100.871147 
L 245.643917 118.815005 
L 245.858971 108.856258 
L 246.074026 116.352678 
L 246.289081 93.975261 
L 247.1493 97.872785 
L 247.364355 118.164579 
L 247.57941 105.177499 
L 247.794465 128.573118 
L 248.439629 118.376175 
L 248.654684 107.025679 
L 248.869739 89.460198 
L 249.299848 119.649693 
L 249.945013 107.980764 
L 250.375122 117.729912 
L 250.590177 108.031709 
L 250.805232 91.046572 
L 251.450396 115.619618 
L 251.665451 105.177499 
L 251.880506 112.212319 
L 252.095561 72.248045 
L 252.310615 129.367838 
L 252.95578 101.808529 
L 253.385889 122.492912 
L 253.600944 118.361419 
L 253.815999 116.931077 
L 254.676218 100.020913 
L 255.106328 119.625391 
L 255.321383 112.419349 
L 256.181602 134.341349 
L 256.396657 81.034254 
L 256.611711 109.359667 
L 256.826766 118.332196 
L 257.686985 102.198266 
L 257.90204 106.94145 
L 258.33215 109.939173 
L 258.977314 98.356581 
L 259.192369 116.313175 
L 259.407424 101.645262 
L 259.622479 115.052064 
L 260.482698 94.341719 
L 260.912807 119.086087 
L 261.127862 113.89035 
L 261.342917 95.810161 
L 262.418191 117.74625 
L 262.633246 116.832352 
L 262.848301 97.993218 
L 263.493465 114.818769 
L 263.70852 106.432436 
L 263.923575 114.792876 
L 264.138629 116.60876 
L 264.353684 108.387497 
L 264.998849 116.576526 
L 265.213903 123.857852 
L 265.644013 104.331948 
L 266.504232 114.807492 
L 266.719287 100.077293 
L 266.934342 114.758297 
L 267.149397 106.920069 
L 268.009616 121.385965 
L 268.224671 121.642469 
L 268.439725 110.322883 
L 268.65478 109.500154 
L 268.869835 107.860924 
L 269.514999 111.373304 
L 269.730054 109.741373 
L 269.945109 123.668802 
L 270.160164 109.63219 
L 271.020383 123.051657 
L 271.235438 113.022403 
L 271.450493 110.431814 
L 271.665547 122.406671 
L 271.880602 109.465855 
L 272.525767 116.494191 
L 272.740821 102.475839 
L 272.955876 116.398108 
L 273.170931 118.116733 
L 273.385986 116.47439 
L 274.03115 109.533924 
L 274.246205 126.713037 
L 274.46126 115.702623 
L 274.676315 115.717238 
L 274.891369 112.96948 
L 275.751589 108.387497 
L 275.966643 102.250256 
L 276.181698 114.741982 
L 277.041917 107.928925 
L 277.256972 112.230759 
L 277.472027 111.419069 
L 277.687082 109.815995 
L 277.902137 95.479448 
L 278.547301 88.71989 
L 278.977411 130.305867 
L 279.40752 111.726011 
L 280.267739 111.031875 
L 280.482794 124.476057 
L 280.912904 111.632535 
L 281.558068 110.909638 
L 281.773123 112.419349 
L 281.988178 116.813371 
L 282.203233 124.254657 
L 282.418287 120.096765 
L 283.278507 115.485661 
L 283.493561 101.840662 
L 283.708616 109.313903 
L 283.923671 107.161613 
L 284.568835 117.520705 
L 284.78389 116.841935 
L 284.998945 106.413976 
L 285.214 112.442848 
L 285.429055 115.328662 
L 286.074219 112.442848 
L 286.289274 108.137102 
L 286.504329 112.487662 
L 286.719383 124.345772 
L 286.934438 122.659413 
L 287.579603 112.369987 
L 287.794657 112.380122 
L 288.224767 122.308848 
L 288.439822 110.710924 
L 289.084986 113.106495 
L 289.300041 101.391915 
L 289.730151 119.005637 
L 289.945205 98.189964 
L 290.59037 115.987888 
L 290.805425 108.950353 
L 291.020479 117.343614 
L 291.235534 113.89035 
L 291.450589 112.487662 
L 292.095753 117.375491 
L 292.310808 110.350754 
L 292.525863 111.799266 
L 292.740918 118.034267 
L 292.955973 111.779784 
L 293.601137 109.011153 
L 293.816192 115.937345 
L 294.031247 109.070475 
L 294.246301 114.564559 
L 294.461356 112.537907 
L 295.106521 110.529309 
L 295.321575 111.240828 
L 295.53663 114.545073 
L 295.751685 109.950626 
L 295.96674 120.98971 
L 296.826959 107.227581 
L 297.042014 117.126552 
L 297.472123 108.682669 
L 298.117288 112.617686 
L 298.332343 103.133142 
L 298.547397 112.078077 
L 298.762452 108.49668 
L 298.977507 115.061069 
L 299.622671 108.006346 
L 299.837726 113.316846 
L 300.267836 108.81869 
L 300.482891 108.929749 
L 301.128055 110.114781 
L 301.34311 112.298775 
L 301.558165 126.007292 
L 301.773219 108.880996 
L 301.988274 110.623031 
L 302.633439 119.258458 
L 303.063548 111.127739 
L 303.278603 109.523427 
L 303.493658 110.141558 
L 304.568932 114.943997 
L 304.783987 103.833928 
L 304.999041 113.383562 
L 305.644206 115.40732 
L 305.859261 114.908481 
L 306.074315 107.753985 
L 306.28937 110.405209 
L 306.504425 120.264687 
L 307.149589 113.38582 
L 307.364644 117.917624 
L 307.579699 115.427912 
L 307.794754 118.534558 
L 308.009809 108.095291 
L 308.654973 108.753522 
L 308.870028 112.383471 
L 309.300137 108.976377 
L 309.515192 116.295171 
L 310.160356 110.973602 
L 310.375411 116.290076 
L 310.590466 116.800853 
L 310.805521 127.158076 
L 311.66574 110.758542 
L 311.880795 115.434901 
L 312.09585 114.92712 
L 312.310904 109.724205 
L 312.525959 109.79944 
L 313.171124 115.397229 
L 313.386178 114.396007 
L 313.601233 114.397138 
L 314.031343 115.922046 
L 314.676507 111.840267 
L 314.891562 112.874502 
L 315.106617 118.946916 
L 315.321672 120.613966 
L 315.536726 112.291286 
L 316.181891 107.00964 
L 316.396946 117.48613 
L 316.612 118.066095 
L 316.827055 111.231499 
L 317.04211 112.839148 
L 317.687274 110.751309 
L 317.902329 122.662743 
L 318.117384 113.353539 
L 318.332439 113.89035 
L 318.547494 117.1036 
L 319.192658 109.544371 
L 319.622768 116.022436 
L 320.052877 110.1504 
L 321.128151 114.414735 
L 321.558261 110.236574 
L 321.558261 110.236574 
" clip-path="url(#pf41a5ee1e7)" style="fill: none; stroke: #2ca02c; stroke-width: 1.5; stroke-linecap: square"/>
   </g>
   <g id="patch_15">
    <path d="M 243.923478 148.293818 
L 243.923478 41.472 
" style="fill: none; stroke: #000000; stroke-width: 0.8; stroke-linejoin: miter; stroke-linecap: square"/>
   </g>
   <g id="patch_16">
    <path d="M 321.558261 148.293818 
L 321.558261 41.472 
" style="fill: none; stroke: #000000; stroke-width: 0.8; stroke-linejoin: miter; stroke-linecap: square"/>
   </g>
   <g id="patch_17">
    <path d="M 243.923478 148.293818 
L 321.558261 148.293818 
" style="fill: none; stroke: #000000; stroke-width: 0.8; stroke-linejoin: miter; stroke-linecap: square"/>
   </g>
   <g id="patch_18">
    <path d="M 243.923478 41.472 
L 321.558261 41.472 
" style="fill: none; stroke: #000000; stroke-width: 0.8; stroke-linejoin: miter; stroke-linecap: square"/>
   </g>
   <g id="legend_3">
    <g id="patch_19">
     <path d="M 262.987948 64.150125 
L 314.558261 64.150125 
Q 316.558261 64.150125 316.558261 62.150125 
L 316.558261 48.472 
Q 316.558261 46.472 314.558261 46.472 
L 262.987948 46.472 
Q 260.987948 46.472 260.987948 48.472 
L 260.987948 62.150125 
Q 260.987948 64.150125 262.987948 64.150125 
z
" style="fill: #ffffff; opacity: 0.8; stroke: #cccccc; stroke-linejoin: miter"/>
    </g>
    <g id="line2d_27">
     <path d="M 264.987948 54.570437 
L 274.987948 54.570437 
L 284.987948 54.570437 
" style="fill: none; stroke: #2ca02c; stroke-width: 1.5; stroke-linecap: square"/>
    </g>
    <g id="text_3">
     <!-- 2 yr -->
     <g transform="translate(292.987948 58.070437) scale(0.1 -0.1)">
      <defs>
       <path id="DejaVuSans-32" d="M 1228 531 
L 3431 531 
L 3431 0 
L 469 0 
L 469 531 
Q 828 903 1448 1529 
Q 2069 2156 2228 2338 
Q 2531 2678 2651 2914 
Q 2772 3150 2772 3378 
Q 2772 3750 2511 3984 
Q 2250 4219 1831 4219 
Q 1534 4219 1204 4116 
Q 875 4013 500 3803 
L 500 4441 
Q 881 4594 1212 4672 
Q 1544 4750 1819 4750 
Q 2544 4750 2975 4387 
Q 3406 4025 3406 3419 
Q 3406 3131 3298 2873 
Q 3191 2616 2906 2266 
Q 2828 2175 2409 1742 
Q 1991 1309 1228 531 
z
" transform="scale(0.015625)"/>
      </defs>
      <use xlink:href="#DejaVuSans-32"/>
      <use xlink:href="#DejaVuSans-20" x="63.623047"/>
      <use xlink:href="#DejaVuSans-79" x="95.410156"/>
      <use xlink:href="#DejaVuSans-72" x="154.589844"/>
     </g>
    </g>
   </g>
  </g>
  <g id="axes_4">
   <g id="patch_20">
    <path d="M 337.085217 148.293818 
L 414.72 148.293818 
L 414.72 41.472 
L 337.085217 41.472 
z
" style="fill: #ffffff"/>
   </g>
   <g id="matplotlib.axis_7">
    <g id="xtick_7">
     <g id="line2d_28">
      <g>
       <use xlink:href="#md68919d927" x="338.160491" y="148.293818" style="stroke: #000000; stroke-width: 0.6"/>
      </g>
     </g>
    </g>
    <g id="xtick_8">
     <g id="line2d_29">
      <g>
       <use xlink:href="#md68919d927" x="381.171451" y="148.293818" style="stroke: #000000; stroke-width: 0.6"/>
      </g>
     </g>
    </g>
   </g>
   <g id="matplotlib.axis_8">
    <g id="ytick_16">
     <g id="line2d_30">
      <g>
       <use xlink:href="#mbb66391bcd" x="337.085217" y="136.543764" style="stroke: #000000; stroke-width: 0.6"/>
      </g>
     </g>
    </g>
    <g id="ytick_17">
     <g id="line2d_31">
      <g>
       <use xlink:href="#mbb66391bcd" x="337.085217" y="113.89035" style="stroke: #000000; stroke-width: 0.6"/>
      </g>
     </g>
    </g>
    <g id="ytick_18">
     <g id="line2d_32">
      <g>
       <use xlink:href="#mbb66391bcd" x="337.085217" y="91.236936" style="stroke: #000000; stroke-width: 0.6"/>
      </g>
     </g>
    </g>
    <g id="ytick_19">
     <g id="line2d_33">
      <g>
       <use xlink:href="#mbb66391bcd" x="337.085217" y="68.583523" style="stroke: #000000; stroke-width: 0.6"/>
      </g>
     </g>
    </g>
    <g id="ytick_20">
     <g id="line2d_34">
      <g>
       <use xlink:href="#mbb66391bcd" x="337.085217" y="45.930109" style="stroke: #000000; stroke-width: 0.6"/>
      </g>
     </g>
    </g>
   </g>
   <g id="line2d_35">
    <path d="M 337.300272 113.89035 
L 337.515327 103.969147 
L 337.730382 107.553731 
L 337.945437 109.267204 
L 338.590601 109.359667 
L 338.805656 116.851581 
L 339.020711 115.390576 
L 339.235765 118.421033 
L 339.45082 101.561962 
L 340.311039 99.275244 
L 340.526094 118.009153 
L 340.741149 113.89035 
L 340.956204 125.077221 
L 341.601368 115.361351 
L 341.816423 109.448504 
L 342.031478 99.368931 
L 342.246533 113.89035 
L 342.461587 120.713667 
L 343.106752 112.483306 
L 343.321807 112.491991 
L 343.536861 118.05969 
L 343.966971 97.514388 
L 344.612135 116.435677 
L 344.82719 107.454721 
L 345.042245 112.63878 
L 345.2573 96.464647 
L 345.472355 127.759787 
L 346.117519 106.503367 
L 346.332574 109.12121 
L 346.547629 118.561157 
L 346.762683 119.851775 
L 346.977738 117.563877 
L 348.053012 108.992315 
L 348.268067 119.883317 
L 348.483122 111.428022 
L 349.128286 132.159232 
L 349.343341 133.761766 
L 349.558396 87.751796 
L 349.773451 113.89035 
L 349.988505 125.607633 
L 350.848725 101.967501 
L 351.278834 107.833288 
L 351.493889 109.170889 
L 352.139053 97.70934 
L 352.354108 113.89035 
L 352.569163 105.260478 
L 352.784218 114.929497 
L 352.999273 117.022158 
L 353.644437 93.777506 
L 354.074547 118.629558 
L 354.289601 110.986066 
L 354.504656 96.685226 
L 355.364875 118.349683 
L 355.57993 118.439228 
L 355.794985 115.747187 
L 356.01004 101.721161 
L 356.655204 113.001981 
L 356.870259 102.386663 
L 357.085314 113.048216 
L 357.300369 113.89035 
L 357.515423 108.856258 
L 358.160588 111.428022 
L 358.375643 124.445704 
L 358.805752 102.819133 
L 359.665971 113.89035 
L 359.881026 104.146946 
L 360.096081 117.004221 
L 360.311136 106.786492 
L 360.526191 115.420986 
L 361.171355 121.595593 
L 361.816519 109.859494 
L 362.676739 106.908133 
L 363.106848 119.911191 
L 363.321903 107.705118 
L 363.536958 110.127325 
L 364.182122 122.033734 
L 364.397177 116.961999 
L 364.612232 115.447286 
L 364.827287 120.161191 
L 365.042341 107.44098 
L 365.687506 118.593481 
L 365.902561 103.484188 
L 366.117615 119.247576 
L 366.547725 117.080972 
L 367.192889 107.417946 
L 367.407944 123.329272 
L 367.838054 114.726269 
L 368.913328 105.531157 
L 369.128383 103.410123 
L 369.343437 115.431399 
L 369.558492 111.562945 
L 370.203657 107.747051 
L 370.418711 116.8809 
L 370.633766 110.859793 
L 370.848821 110.8998 
L 371.063876 100.608218 
L 371.70904 92.282478 
L 372.13915 128.323273 
L 372.354205 115.901008 
L 372.569259 114.566571 
L 373.429479 111.177366 
L 373.644533 124.61386 
L 373.859588 119.518527 
L 374.074643 111.004565 
L 374.719807 109.616121 
L 374.934862 113.191171 
L 375.149917 120.860631 
L 375.364972 123.958534 
L 375.580026 123.674216 
L 376.440246 118.609811 
L 376.6553 102.643974 
L 376.870355 107.002488 
L 377.08541 107.948471 
L 377.730574 119.68036 
L 378.375739 110.889898 
L 378.590794 114.630658 
L 379.235958 113.147615 
L 379.451013 107.967889 
L 379.666068 111.004565 
L 379.881122 126.713037 
L 380.096177 123.706829 
L 380.741342 112.311715 
L 380.956396 113.89035 
L 381.386506 124.333413 
L 381.601561 113.048216 
L 382.246725 117.246411 
L 382.46178 97.70934 
L 382.89189 121.811124 
L 383.106944 96.654057 
L 383.752109 118.466797 
L 383.967164 109.219543 
L 384.182218 116.941315 
L 384.397273 110.02458 
L 384.612328 114.650532 
L 385.257492 118.466797 
L 385.687602 106.979139 
L 385.902657 115.380706 
L 386.117712 107.139333 
L 386.762876 109.519917 
L 386.977931 113.175731 
L 387.192986 112.465607 
L 387.40804 117.429946 
L 387.623095 110.29457 
L 388.26826 108.934916 
L 388.483314 113.89035 
L 388.698369 111.812055 
L 388.913424 107.712146 
L 389.128479 119.904531 
L 389.988698 104.966278 
L 390.203753 117.853046 
L 390.633862 109.880896 
L 391.279027 112.577109 
L 391.494082 106.709153 
L 391.709136 112.624796 
L 391.924191 110.114781 
L 392.139246 116.366133 
L 392.78441 109.509856 
L 392.999465 110.206868 
L 393.21452 114.494441 
L 393.429575 103.593344 
L 393.64463 110.993494 
L 394.289794 103.021288 
L 394.504849 110.615158 
L 394.719904 129.494839 
L 394.934958 110.422991 
L 395.150013 109.3369 
L 395.795178 122.817804 
L 396.010232 117.375491 
L 396.225287 106.811158 
L 396.440342 108.741847 
L 396.655397 108.856258 
L 397.730671 114.984718 
L 397.945726 108.941789 
L 398.16078 111.738007 
L 399.021 115.493186 
L 399.236054 106.357148 
L 399.451109 108.682669 
L 399.666164 119.49007 
L 400.311328 112.846414 
L 400.526383 119.605661 
L 400.741438 116.555458 
L 400.956493 119.823387 
L 401.171548 108.351618 
L 401.816712 109.565116 
L 402.031767 113.89035 
L 402.461876 110.729409 
L 402.676931 115.449071 
L 403.322096 110.751309 
L 403.53715 118.018535 
L 403.752205 115.992755 
L 403.96726 130.867147 
L 404.827479 111.022829 
L 405.042534 117.854697 
L 405.257589 119.654577 
L 405.472644 107.975621 
L 405.687698 110.431814 
L 406.547918 116.17281 
L 406.762972 116.772464 
L 407.193082 115.641903 
L 408.053301 111.554947 
L 408.268356 119.669282 
L 408.483411 122.192648 
L 408.698466 114.505932 
L 409.34363 105.86598 
L 409.558685 118.063347 
L 409.77374 120.570981 
L 409.988794 108.258286 
L 410.203849 111.447933 
L 410.849014 110.869895 
L 411.064068 122.236345 
L 411.279123 115.128242 
L 411.494178 115.135043 
L 411.709233 114.516135 
L 412.354397 108.242685 
L 412.569452 108.38006 
L 412.784507 114.488065 
L 412.999562 113.291053 
L 413.214616 109.706342 
L 414.074836 109.195342 
L 414.504945 115.602195 
L 414.72 111.015551 
L 414.72 111.015551 
" clip-path="url(#pfe0689cd95)" style="fill: none; stroke: #d62728; stroke-width: 1.5; stroke-linecap: square"/>
   </g>
   <g id="patch_21">
    <path d="M 337.085217 148.293818 
L 337.085217 41.472 
" style="fill: none; stroke: #000000; stroke-width: 0.8; stroke-linejoin: miter; stroke-linecap: square"/>
   </g>
   <g id="patch_22">
    <path d="M 414.72 148.293818 
L 414.72 41.472 
" style="fill: none; stroke: #000000; stroke-width: 0.8; stroke-linejoin: miter; stroke-linecap: square"/>
   </g>
   <g id="patch_23">
    <path d="M 337.085217 148.293818 
L 414.72 148.293818 
" style="fill: none; stroke: #000000; stroke-width: 0.8; stroke-linejoin: miter; stroke-linecap: square"/>
   </g>
   <g id="patch_24">
    <path d="M 337.085217 41.472 
L 414.72 41.472 
" style="fill: none; stroke: #000000; stroke-width: 0.8; stroke-linejoin: miter; stroke-linecap: square"/>
   </g>
   <g id="legend_4">
    <g id="patch_25">
     <path d="M 356.149688 64.150125 
L 407.72 64.150125 
Q 409.72 64.150125 409.72 62.150125 
L 409.72 48.472 
Q 409.72 46.472 407.72 46.472 
L 356.149688 46.472 
Q 354.149688 46.472 354.149688 48.472 
L 354.149688 62.150125 
Q 354.149688 64.150125 356.149688 64.150125 
z
" style="fill: #ffffff; opacity: 0.8; stroke: #cccccc; stroke-linejoin: miter"/>
    </g>
    <g id="line2d_36">
     <path d="M 358.149688 54.570437 
L 368.149688 54.570437 
L 378.149688 54.570437 
" style="fill: none; stroke: #d62728; stroke-width: 1.5; stroke-linecap: square"/>
    </g>
    <g id="text_4">
     <!-- 5 yr -->
     <g transform="translate(386.149688 58.070437) scale(0.1 -0.1)">
      <use xlink:href="#DejaVuSans-35"/>
      <use xlink:href="#DejaVuSans-20" x="63.623047"/>
      <use xlink:href="#DejaVuSans-79" x="95.410156"/>
      <use xlink:href="#DejaVuSans-72" x="154.589844"/>
     </g>
    </g>
   </g>
  </g>
  <g id="axes_5">
   <g id="patch_26">
    <path d="M 57.6 276.48 
L 135.234783 276.48 
L 135.234783 169.658182 
L 57.6 169.658182 
z
" style="fill: #ffffff"/>
   </g>
   <g id="matplotlib.axis_9">
    <g id="xtick_9">
     <g id="line2d_37">
      <g>
       <use xlink:href="#md68919d927" x="58.675274" y="276.48" style="stroke: #000000; stroke-width: 0.6"/>
      </g>
     </g>
    </g>
    <g id="xtick_10">
     <g id="line2d_38">
      <g>
       <use xlink:href="#md68919d927" x="101.686234" y="276.48" style="stroke: #000000; stroke-width: 0.6"/>
      </g>
     </g>
    </g>
    <g id="text_5">
     <!-- DATE -->
     <g transform="translate(83.408798 293.478437) scale(0.1 -0.1)">
      <defs>
       <path id="DejaVuSans-44" d="M 1259 4147 
L 1259 519 
L 2022 519 
Q 2988 519 3436 956 
Q 3884 1394 3884 2338 
Q 3884 3275 3436 3711 
Q 2988 4147 2022 4147 
L 1259 4147 
z
M 628 4666 
L 1925 4666 
Q 3281 4666 3915 4102 
Q 4550 3538 4550 2338 
Q 4550 1131 3912 565 
Q 3275 0 1925 0 
L 628 0 
L 628 4666 
z
" transform="scale(0.015625)"/>
       <path id="DejaVuSans-41" d="M 2188 4044 
L 1331 1722 
L 3047 1722 
L 2188 4044 
z
M 1831 4666 
L 2547 4666 
L 4325 0 
L 3669 0 
L 3244 1197 
L 1141 1197 
L 716 0 
L 50 0 
L 1831 4666 
z
" transform="scale(0.015625)"/>
       <path id="DejaVuSans-54" d="M -19 4666 
L 3928 4666 
L 3928 4134 
L 2272 4134 
L 2272 0 
L 1638 0 
L 1638 4134 
L -19 4134 
L -19 4666 
z
" transform="scale(0.015625)"/>
       <path id="DejaVuSans-45" d="M 628 4666 
L 3578 4666 
L 3578 4134 
L 1259 4134 
L 1259 2753 
L 3481 2753 
L 3481 2222 
L 1259 2222 
L 1259 531 
L 3634 531 
L 3634 0 
L 628 0 
L 628 4666 
z
" transform="scale(0.015625)"/>
      </defs>
      <use xlink:href="#DejaVuSans-44"/>
      <use xlink:href="#DejaVuSans-41" x="75.251953"/>
      <use xlink:href="#DejaVuSans-54" x="135.910156"/>
      <use xlink:href="#DejaVuSans-45" x="196.994141"/>
     </g>
    </g>
   </g>
   <g id="matplotlib.axis_10">
    <g id="ytick_21">
     <g id="line2d_39">
      <g>
       <use xlink:href="#mbb66391bcd" x="57.6" y="264.729946" style="stroke: #000000; stroke-width: 0.6"/>
      </g>
     </g>
    </g>
    <g id="ytick_22">
     <g id="line2d_40">
      <g>
       <use xlink:href="#mbb66391bcd" x="57.6" y="242.076532" style="stroke: #000000; stroke-width: 0.6"/>
      </g>
     </g>
    </g>
    <g id="ytick_23">
     <g id="line2d_41">
      <g>
       <use xlink:href="#mbb66391bcd" x="57.6" y="219.423118" style="stroke: #000000; stroke-width: 0.6"/>
      </g>
     </g>
    </g>
    <g id="ytick_24">
     <g id="line2d_42">
      <g>
       <use xlink:href="#mbb66391bcd" x="57.6" y="196.769704" style="stroke: #000000; stroke-width: 0.6"/>
      </g>
     </g>
    </g>
    <g id="ytick_25">
     <g id="line2d_43">
      <g>
       <use xlink:href="#mbb66391bcd" x="57.6" y="174.116291" style="stroke: #000000; stroke-width: 0.6"/>
      </g>
     </g>
    </g>
   </g>
   <g id="line2d_44">
    <path d="M 57.815055 239.153511 
L 58.03011 234.862069 
L 58.460219 237.982541 
L 59.105384 239.395655 
L 59.320438 244.726054 
L 59.535493 244.757409 
L 59.750548 246.146007 
L 59.965603 231.026086 
L 60.825822 228.905942 
L 61.040877 247.055304 
L 61.255932 243.349196 
L 61.470986 251.035509 
L 62.116151 243.409086 
L 62.54626 231.600965 
L 62.761315 245.831241 
L 62.97637 247.167187 
L 63.621534 240.774612 
L 63.836589 240.782051 
L 64.051644 244.650783 
L 64.481754 226.804568 
L 65.126918 244.461102 
L 65.341973 236.051688 
L 65.557028 243.250284 
L 65.772082 229.098014 
L 65.987137 254.351781 
L 66.632302 234.99734 
L 66.847356 236.355973 
L 67.062411 245.424327 
L 67.277466 248.872556 
L 68.567795 236.207772 
L 68.78285 246.652979 
L 68.997904 239.741128 
L 69.643069 259.413328 
L 69.858124 259.598509 
L 70.073178 220.372662 
L 70.503288 257.012849 
L 71.148452 232.748656 
L 71.363507 231.837701 
L 71.793617 234.99734 
L 72.008672 238.644196 
L 72.653836 225.170999 
L 72.868891 242.076532 
L 73.083946 235.783917 
L 73.514055 247.178652 
L 74.15922 222.241746 
L 74.589329 246.756989 
L 74.804384 240.164851 
L 75.019439 225.963225 
L 75.879658 246.518378 
L 76.094713 248.419488 
L 76.309768 244.87325 
L 76.524822 232.637609 
L 77.169987 240.264259 
L 77.385042 230.390247 
L 77.600096 238.657149 
L 77.815151 238.707995 
L 78.030206 237.09776 
L 78.67537 238.01678 
L 78.890425 250.850741 
L 79.10548 243.736123 
L 79.320535 231.209581 
L 80.180754 241.278876 
L 80.395809 234.127966 
L 80.610864 247.451918 
L 80.825918 235.783917 
L 81.040973 242.84185 
L 81.686138 249.755655 
L 81.901192 246.050815 
L 82.116247 238.84033 
L 82.331302 238.88591 
L 82.546357 237.357071 
L 83.191521 234.371289 
L 83.406576 242.82171 
L 83.621631 246.562356 
L 83.836686 234.44912 
L 84.696905 248.590293 
L 84.91196 245.802422 
L 85.127014 245.864728 
L 85.342069 248.240726 
L 85.557124 234.947835 
L 86.202288 246.684006 
L 86.417343 233.454125 
L 86.632398 248.872556 
L 86.847453 245.190403 
L 87.062508 246.02312 
L 87.707672 235.650032 
L 87.922727 249.888054 
L 88.352836 242.897308 
L 88.567891 241.252771 
L 89.42811 233.047997 
L 89.643165 233.394039 
L 89.85822 244.357077 
L 90.073275 239.004883 
L 90.718439 236.015418 
L 90.933494 245.766013 
L 91.148549 239.07608 
L 91.363604 240.595917 
L 91.578658 230.308525 
L 92.223823 221.800328 
L 92.653932 255.291023 
L 92.868987 244.081259 
L 93.084042 243.424949 
L 93.944261 238.685302 
L 94.159316 252.100166 
L 94.374371 247.669967 
L 94.589426 239.925891 
L 95.23459 236.395425 
L 95.879754 251.366575 
L 96.094809 251.018669 
L 96.955028 245.955541 
L 97.170083 232.604721 
L 97.385138 236.015418 
L 97.600193 235.435466 
L 98.245357 249.245334 
L 98.890521 238.300963 
L 99.105576 243.562002 
L 99.750741 240.581257 
L 99.965795 237.620123 
L 100.18085 239.16291 
L 100.395905 253.583028 
L 100.61096 252.683481 
L 101.256124 238.897105 
L 101.686234 246.009416 
L 101.901289 253.283168 
L 102.116343 241.234398 
L 102.761508 247.110624 
L 102.976563 226.631023 
L 103.191617 242.879844 
L 103.406672 248.525902 
L 103.621727 227.140215 
L 104.266891 246.747339 
L 104.481946 238.897105 
L 104.697001 244.428097 
L 104.912056 235.739913 
L 105.127111 243.61758 
L 105.772275 246.731343 
L 106.202385 235.046162 
L 106.417439 243.59181 
L 106.632494 235.211861 
L 107.277659 237.634686 
L 107.492713 240.62439 
L 107.707768 237.747854 
L 107.922823 248.447804 
L 108.137878 239.891315 
L 108.783042 237.026408 
L 108.998097 241.370818 
L 109.213152 239.965965 
L 109.428207 234.409223 
L 109.643261 246.795993 
L 110.503481 233.813889 
L 110.718535 246.06247 
L 110.93359 240.724089 
L 111.148645 238.715491 
L 111.793809 240.08939 
L 112.008864 236.823566 
L 112.223919 242.718272 
L 112.438974 237.571592 
L 112.654029 243.969575 
L 113.299193 238.258541 
L 113.514248 237.696038 
L 113.729303 244.532186 
L 113.944357 230.284344 
L 114.159412 241.486599 
L 114.804577 229.720124 
L 115.019631 237.612805 
L 115.234686 259.039233 
L 115.449741 238.527694 
L 115.664796 237.417732 
L 116.30996 252.347601 
L 116.525015 245.662824 
L 116.74007 233.57391 
L 116.955125 237.393656 
L 117.170179 237.488499 
L 118.030399 240.390174 
L 118.245453 243.750429 
L 118.460508 237.579576 
L 118.675563 239.87182 
L 119.320727 242.076532 
L 119.535782 243.714128 
L 119.750837 234.37877 
L 119.965892 236.758829 
L 120.180947 246.233122 
L 120.826111 240.488676 
L 121.041166 249.434949 
L 121.256221 244.792769 
L 121.471275 248.124773 
L 121.68633 236.992225 
L 122.331495 237.656354 
L 122.546549 242.076532 
L 122.761604 240.992636 
L 122.976659 238.84033 
L 123.191714 242.076532 
L 123.836878 239.41768 
L 124.051933 246.806943 
L 124.266988 243.150153 
L 124.482043 258.796909 
L 125.342262 238.582432 
L 125.557317 246.091061 
L 125.772371 248.498891 
L 125.987426 236.067669 
L 126.202481 239.149734 
L 126.847645 240.920745 
L 127.0627 246.67621 
L 127.277755 245.010912 
L 127.707865 243.860265 
L 128.353029 240.877939 
L 128.568084 239.09582 
L 128.783139 247.372135 
L 128.998193 250.511314 
L 129.213248 242.702317 
L 129.858413 235.17383 
L 130.073467 246.948234 
L 130.288522 248.299997 
L 130.503577 236.317189 
L 130.718632 238.332166 
L 131.363796 239.620877 
L 131.578851 249.971824 
L 131.793906 242.705793 
L 132.008961 243.969575 
L 132.224015 240.803868 
L 133.084235 235.28668 
L 133.299289 242.675829 
L 133.514344 242.076532 
L 133.729399 238.471214 
L 134.589618 236.161802 
L 134.804673 239.770841 
L 135.019728 245.500222 
L 135.234783 239.179676 
L 135.234783 239.179676 
" clip-path="url(#pb6fbcef81e)" style="fill: none; stroke: #9467bd; stroke-width: 1.5; stroke-linecap: square"/>
   </g>
   <g id="patch_27">
    <path d="M 57.6 276.48 
L 57.6 169.658182 
" style="fill: none; stroke: #000000; stroke-width: 0.8; stroke-linejoin: miter; stroke-linecap: square"/>
   </g>
   <g id="patch_28">
    <path d="M 135.234783 276.48 
L 135.234783 169.658182 
" style="fill: none; stroke: #000000; stroke-width: 0.8; stroke-linejoin: miter; stroke-linecap: square"/>
   </g>
   <g id="patch_29">
    <path d="M 57.6 276.48 
L 135.234783 276.48 
" style="fill: none; stroke: #000000; stroke-width: 0.8; stroke-linejoin: miter; stroke-linecap: square"/>
   </g>
   <g id="patch_30">
    <path d="M 57.6 169.658182 
L 135.234783 169.658182 
" style="fill: none; stroke: #000000; stroke-width: 0.8; stroke-linejoin: miter; stroke-linecap: square"/>
   </g>
   <g id="legend_5">
    <g id="patch_31">
     <path d="M 76.66447 192.336307 
L 128.234783 192.336307 
Q 130.234783 192.336307 130.234783 190.336307 
L 130.234783 176.658182 
Q 130.234783 174.658182 128.234783 174.658182 
L 76.66447 174.658182 
Q 74.66447 174.658182 74.66447 176.658182 
L 74.66447 190.336307 
Q 74.66447 192.336307 76.66447 192.336307 
z
" style="fill: #ffffff; opacity: 0.8; stroke: #cccccc; stroke-linejoin: miter"/>
    </g>
    <g id="line2d_45">
     <path d="M 78.66447 182.756619 
L 88.66447 182.756619 
L 98.66447 182.756619 
" style="fill: none; stroke: #9467bd; stroke-width: 1.5; stroke-linecap: square"/>
    </g>
    <g id="text_6">
     <!-- 7 yr -->
     <g transform="translate(106.66447 186.256619) scale(0.1 -0.1)">
      <defs>
       <path id="DejaVuSans-37" d="M 525 4666 
L 3525 4666 
L 3525 4397 
L 1831 0 
L 1172 0 
L 2766 4134 
L 525 4134 
L 525 4666 
z
" transform="scale(0.015625)"/>
      </defs>
      <use xlink:href="#DejaVuSans-37"/>
      <use xlink:href="#DejaVuSans-20" x="63.623047"/>
      <use xlink:href="#DejaVuSans-79" x="95.410156"/>
      <use xlink:href="#DejaVuSans-72" x="154.589844"/>
     </g>
    </g>
   </g>
  </g>
  <g id="axes_6">
   <g id="patch_32">
    <path d="M 150.761739 276.48 
L 228.396522 276.48 
L 228.396522 169.658182 
L 150.761739 169.658182 
z
" style="fill: #ffffff"/>
   </g>
   <g id="matplotlib.axis_11">
    <g id="xtick_11">
     <g id="line2d_46">
      <g>
       <use xlink:href="#md68919d927" x="151.837013" y="276.48" style="stroke: #000000; stroke-width: 0.6"/>
      </g>
     </g>
    </g>
    <g id="xtick_12">
     <g id="line2d_47">
      <g>
       <use xlink:href="#md68919d927" x="194.847973" y="276.48" style="stroke: #000000; stroke-width: 0.6"/>
      </g>
     </g>
    </g>
    <g id="text_7">
     <!-- DATE -->
     <g transform="translate(176.570537 293.478437) scale(0.1 -0.1)">
      <use xlink:href="#DejaVuSans-44"/>
      <use xlink:href="#DejaVuSans-41" x="75.251953"/>
      <use xlink:href="#DejaVuSans-54" x="135.910156"/>
      <use xlink:href="#DejaVuSans-45" x="196.994141"/>
     </g>
    </g>
   </g>
   <g id="matplotlib.axis_12">
    <g id="ytick_26">
     <g id="line2d_48">
      <g>
       <use xlink:href="#mbb66391bcd" x="150.761739" y="264.729946" style="stroke: #000000; stroke-width: 0.6"/>
      </g>
     </g>
    </g>
    <g id="ytick_27">
     <g id="line2d_49">
      <g>
       <use xlink:href="#mbb66391bcd" x="150.761739" y="242.076532" style="stroke: #000000; stroke-width: 0.6"/>
      </g>
     </g>
    </g>
    <g id="ytick_28">
     <g id="line2d_50">
      <g>
       <use xlink:href="#mbb66391bcd" x="150.761739" y="219.423118" style="stroke: #000000; stroke-width: 0.6"/>
      </g>
     </g>
    </g>
    <g id="ytick_29">
     <g id="line2d_51">
      <g>
       <use xlink:href="#mbb66391bcd" x="150.761739" y="196.769704" style="stroke: #000000; stroke-width: 0.6"/>
      </g>
     </g>
    </g>
    <g id="ytick_30">
     <g id="line2d_52">
      <g>
       <use xlink:href="#mbb66391bcd" x="150.761739" y="174.116291" style="stroke: #000000; stroke-width: 0.6"/>
      </g>
     </g>
    </g>
   </g>
   <g id="line2d_53">
    <path d="M 150.976794 237.907192 
L 151.191849 235.253214 
L 151.406904 239.42701 
L 151.621958 238.148194 
L 152.267123 239.50228 
L 152.482178 245.894523 
L 152.697232 243.371013 
L 152.912287 247.284213 
L 153.127342 231.416102 
L 153.987561 230.622559 
L 154.202616 246.922182 
L 154.417671 242.076532 
L 154.632726 251.979664 
L 155.492945 238.19309 
L 155.708 233.167886 
L 155.923054 246.974567 
L 156.138109 245.831241 
L 156.998328 239.545424 
L 157.213383 245.831241 
L 157.643493 228.384908 
L 158.288657 243.250284 
L 158.503712 237.357071 
L 158.718767 244.388105 
L 158.933822 231.567216 
L 159.148876 254.351781 
L 159.794041 234.99734 
L 160.009096 234.067749 
L 160.22415 244.286621 
L 160.439205 248.772122 
L 160.65426 247.826129 
L 161.514479 239.716801 
L 161.729534 236.238023 
L 161.944589 245.491619 
L 162.159644 240.920745 
L 162.804808 258.175405 
L 163.019863 255.693338 
L 163.234917 223.637707 
L 163.665027 256.691637 
L 164.525246 231.895222 
L 164.740301 232.333128 
L 164.955356 237.405725 
L 165.170411 239.788308 
L 165.815575 226.219142 
L 166.03063 241.017961 
L 166.245685 237.861943 
L 166.460739 241.042129 
L 166.675794 248.254736 
L 167.320959 223.022259 
L 167.751068 247.787477 
L 168.181178 228.523207 
L 169.041397 246.680884 
L 169.256452 247.716386 
L 169.471507 244.968457 
L 169.686561 235.24145 
L 170.331726 239.233007 
L 170.546781 230.843434 
L 170.761835 235.833465 
L 170.97689 237.736797 
L 171.191945 236.966739 
L 171.837109 236.246609 
L 172.052164 247.760184 
L 172.267219 243.742224 
L 172.482274 231.169333 
L 173.342493 240.475584 
L 173.557548 235.717679 
L 173.772603 248.261764 
L 173.987657 238.102249 
L 174.202712 242.076532 
L 174.847877 249.106902 
L 175.062931 245.301217 
L 175.277986 237.987468 
L 175.493041 239.666594 
L 175.708096 238.897105 
L 176.35326 234.23798 
L 176.568315 243.59181 
L 176.78337 245.127497 
L 176.998425 232.798683 
L 177.858644 247.159029 
L 178.073699 246.532941 
L 178.288753 248.137646 
L 178.503808 247.525807 
L 178.718863 234.897633 
L 179.364027 245.942302 
L 179.579082 234.210763 
L 179.794137 248.918167 
L 180.009192 245.995808 
L 180.224247 246.862464 
L 180.869411 235.557564 
L 181.084466 249.997306 
L 181.299521 242.897308 
L 181.514575 242.076532 
L 181.72963 242.900292 
L 182.589849 232.982096 
L 182.804904 234.922822 
L 183.019959 243.61758 
L 183.235014 238.973325 
L 183.880178 235.953988 
L 184.095233 246.5476 
L 184.310288 238.275624 
L 184.525343 241.328894 
L 184.740397 233.879573 
L 185.385562 221.940164 
L 185.815671 252.462051 
L 186.030726 245.477945 
L 186.245781 244.14849 
L 187.106 237.894363 
L 187.321055 252.342429 
L 187.751165 239.144051 
L 188.396329 237.010273 
L 189.041493 250.845595 
L 189.256548 249.678349 
L 190.116767 246.795993 
L 190.331822 233.240094 
L 190.546877 235.891299 
L 190.761932 236.055691 
L 191.407096 249.407734 
L 191.622151 244.34945 
L 191.837206 245.903122 
L 192.052261 238.184193 
L 192.267315 244.372486 
L 193.127535 238.249942 
L 193.342589 239.818717 
L 193.557644 251.763847 
L 193.772699 252.975081 
L 194.417863 238.805281 
L 195.063028 250.225242 
L 195.278083 242.921808 
L 195.923247 248.015629 
L 196.138302 229.007255 
L 196.353357 243.724053 
L 196.568411 246.225509 
L 196.783466 229.397382 
L 197.428631 246.879376 
L 197.643685 239.623094 
L 197.85874 243.694633 
L 198.073795 234.742693 
L 198.28885 244.444485 
L 198.934014 246.064809 
L 199.364124 236.453344 
L 199.579179 242.860387 
L 199.794233 234.210763 
L 200.439398 238.275624 
L 200.654453 240.581257 
L 200.869507 237.620123 
L 201.084562 247.903777 
L 201.299617 241.328894 
L 201.944781 236.115107 
L 202.159836 242.802603 
L 202.589946 234.165816 
L 202.805001 246.245872 
L 203.66522 232.873583 
L 203.880275 246.158228 
L 204.095329 240.691002 
L 204.310384 239.322317 
L 204.955549 239.355401 
L 205.170603 238.715491 
L 205.385658 242.738912 
L 205.600713 239.41924 
L 205.815768 242.076532 
L 206.460932 239.450049 
L 206.675987 236.883772 
L 206.891042 245.883828 
L 207.106097 229.814 
L 207.321151 242.688786 
L 207.966316 230.412172 
L 208.181371 236.821874 
L 208.396425 256.341906 
L 208.61148 239.640681 
L 208.826535 237.859141 
L 209.471699 251.540099 
L 209.686754 245.162828 
L 209.901809 233.315543 
L 210.116864 237.859141 
L 210.331919 238.527694 
L 211.192138 239.747132 
L 211.407193 243.229377 
L 211.622247 238.600305 
L 211.837302 240.364687 
L 212.482467 240.943861 
L 212.697521 242.64005 
L 212.912576 234.732532 
L 213.127631 236.604693 
L 213.342686 243.679368 
L 213.98785 239.924189 
L 214.202905 250.071854 
L 214.41796 245.391666 
L 214.633015 246.562356 
L 214.848069 238.644196 
L 215.493234 237.56839 
L 215.708289 243.734099 
L 215.923343 240.406747 
L 216.138398 239.866443 
L 216.353453 240.43498 
L 216.998617 239.360295 
L 217.213672 246.371018 
L 217.428727 243.1709 
L 217.643782 258.571736 
L 218.504001 238.518404 
L 218.719056 246.747339 
L 218.934111 249.826384 
L 219.149165 235.90394 
L 219.36422 239.0721 
L 220.009385 241.483511 
L 220.224439 246.216842 
L 220.439494 245.088954 
L 220.869604 243.908344 
L 221.514768 241.46095 
L 221.729823 238.39305 
L 222.159933 251.31026 
L 222.374987 243.360011 
L 223.020152 236.267964 
L 223.235207 247.739885 
L 223.450261 247.885099 
L 223.665316 238.102249 
L 223.880371 236.21789 
L 224.525535 239.538334 
L 224.74059 248.351716 
L 224.955645 243.367325 
L 225.1707 245.322007 
L 225.385755 239.442414 
L 226.030919 236.21789 
L 226.245974 234.461939 
L 226.461029 242.690446 
L 226.676083 242.692114 
L 226.891138 237.138458 
L 227.751357 236.639713 
L 227.966412 239.716801 
L 228.181467 244.995786 
L 228.396522 239.119167 
L 228.396522 239.119167 
" clip-path="url(#pc23ffcdfef)" style="fill: none; stroke: #8c564b; stroke-width: 1.5; stroke-linecap: square"/>
   </g>
   <g id="patch_33">
    <path d="M 150.761739 276.48 
L 150.761739 169.658182 
" style="fill: none; stroke: #000000; stroke-width: 0.8; stroke-linejoin: miter; stroke-linecap: square"/>
   </g>
   <g id="patch_34">
    <path d="M 228.396522 276.48 
L 228.396522 169.658182 
" style="fill: none; stroke: #000000; stroke-width: 0.8; stroke-linejoin: miter; stroke-linecap: square"/>
   </g>
   <g id="patch_35">
    <path d="M 150.761739 276.48 
L 228.396522 276.48 
" style="fill: none; stroke: #000000; stroke-width: 0.8; stroke-linejoin: miter; stroke-linecap: square"/>
   </g>
   <g id="patch_36">
    <path d="M 150.761739 169.658182 
L 228.396522 169.658182 
" style="fill: none; stroke: #000000; stroke-width: 0.8; stroke-linejoin: miter; stroke-linecap: square"/>
   </g>
   <g id="legend_6">
    <g id="patch_37">
     <path d="M 163.463709 192.336307 
L 221.396522 192.336307 
Q 223.396522 192.336307 223.396522 190.336307 
L 223.396522 176.658182 
Q 223.396522 174.658182 221.396522 174.658182 
L 163.463709 174.658182 
Q 161.463709 174.658182 161.463709 176.658182 
L 161.463709 190.336307 
Q 161.463709 192.336307 163.463709 192.336307 
z
" style="fill: #ffffff; opacity: 0.8; stroke: #cccccc; stroke-linejoin: miter"/>
    </g>
    <g id="line2d_54">
     <path d="M 165.463709 182.756619 
L 175.463709 182.756619 
L 185.463709 182.756619 
" style="fill: none; stroke: #8c564b; stroke-width: 1.5; stroke-linecap: square"/>
    </g>
    <g id="text_8">
     <!-- 10 yr -->
     <g transform="translate(193.463709 186.256619) scale(0.1 -0.1)">
      <use xlink:href="#DejaVuSans-31"/>
      <use xlink:href="#DejaVuSans-30" x="63.623047"/>
      <use xlink:href="#DejaVuSans-20" x="127.246094"/>
      <use xlink:href="#DejaVuSans-79" x="159.033203"/>
      <use xlink:href="#DejaVuSans-72" x="218.212891"/>
     </g>
    </g>
   </g>
  </g>
  <g id="axes_7">
   <g id="patch_38">
    <path d="M 243.923478 276.48 
L 321.558261 276.48 
L 321.558261 169.658182 
L 243.923478 169.658182 
z
" style="fill: #ffffff"/>
   </g>
   <g id="matplotlib.axis_13">
    <g id="xtick_13">
     <g id="line2d_55">
      <g>
       <use xlink:href="#md68919d927" x="244.998752" y="276.48" style="stroke: #000000; stroke-width: 0.6"/>
      </g>
     </g>
    </g>
    <g id="xtick_14">
     <g id="line2d_56">
      <g>
       <use xlink:href="#md68919d927" x="288.009712" y="276.48" style="stroke: #000000; stroke-width: 0.6"/>
      </g>
     </g>
    </g>
    <g id="text_9">
     <!-- DATE -->
     <g transform="translate(269.732276 293.478437) scale(0.1 -0.1)">
      <use xlink:href="#DejaVuSans-44"/>
      <use xlink:href="#DejaVuSans-41" x="75.251953"/>
      <use xlink:href="#DejaVuSans-54" x="135.910156"/>
      <use xlink:href="#DejaVuSans-45" x="196.994141"/>
     </g>
    </g>
   </g>
   <g id="matplotlib.axis_14">
    <g id="ytick_31">
     <g id="line2d_57">
      <g>
       <use xlink:href="#mbb66391bcd" x="243.923478" y="264.729946" style="stroke: #000000; stroke-width: 0.6"/>
      </g>
     </g>
    </g>
    <g id="ytick_32">
     <g id="line2d_58">
      <g>
       <use xlink:href="#mbb66391bcd" x="243.923478" y="242.076532" style="stroke: #000000; stroke-width: 0.6"/>
      </g>
     </g>
    </g>
    <g id="ytick_33">
     <g id="line2d_59">
      <g>
       <use xlink:href="#mbb66391bcd" x="243.923478" y="219.423118" style="stroke: #000000; stroke-width: 0.6"/>
      </g>
     </g>
    </g>
    <g id="ytick_34">
     <g id="line2d_60">
      <g>
       <use xlink:href="#mbb66391bcd" x="243.923478" y="196.769704" style="stroke: #000000; stroke-width: 0.6"/>
      </g>
     </g>
    </g>
    <g id="ytick_35">
     <g id="line2d_61">
      <g>
       <use xlink:href="#mbb66391bcd" x="243.923478" y="174.116291" style="stroke: #000000; stroke-width: 0.6"/>
      </g>
     </g>
    </g>
   </g>
   <g id="line2d_62">
    <path d="M 244.138533 236.551309 
L 244.568643 242.076532 
L 244.783697 238.87086 
L 245.428862 242.076532 
L 245.643917 244.183826 
L 245.858971 242.076532 
L 246.074026 245.267154 
L 246.289081 233.44666 
L 247.1493 235.841647 
L 247.364355 246.121784 
L 247.57941 243.106232 
L 247.794465 248.282947 
L 248.439629 239.949451 
L 248.869739 237.919942 
L 249.084793 247.178652 
L 249.945013 238.90082 
L 250.160067 239.98866 
L 250.375122 244.145337 
L 250.805232 232.809226 
L 251.450396 243.065764 
L 251.665451 239.09582 
L 251.880506 242.076532 
L 252.095561 236.192528 
L 252.310615 248.767414 
L 252.95578 237.151877 
L 253.170835 235.328707 
L 253.385889 244.884806 
L 253.815999 246.896407 
L 254.676218 241.091601 
L 254.891273 237.173196 
L 255.106328 242.076532 
L 255.321383 241.116641 
L 255.966547 253.546615 
L 256.181602 248.117442 
L 256.396657 228.6293 
L 256.826766 250.864494 
L 257.471931 235.981443 
L 257.90204 238.204153 
L 258.117095 235.413763 
L 258.33215 242.076532 
L 258.977314 231.905611 
L 259.192369 241.191633 
L 259.407424 242.957988 
L 259.622479 238.536936 
L 259.837533 248.175528 
L 260.482698 229.541046 
L 260.912807 247.092048 
L 261.127862 243.786223 
L 261.342917 232.60172 
L 261.988081 243.730066 
L 262.418191 246.302915 
L 262.633246 245.521918 
L 262.848301 241.201883 
L 263.493465 238.591391 
L 263.70852 233.495693 
L 263.923575 236.289163 
L 264.138629 237.239504 
L 264.353684 236.551309 
L 264.998849 235.912338 
L 265.213903 244.326871 
L 265.428958 243.59181 
L 265.644013 232.923637 
L 266.504232 239.877171 
L 266.719287 236.994035 
L 266.934342 249.888054 
L 267.149397 239.13453 
L 267.364451 240.62439 
L 268.009616 247.848102 
L 268.224671 244.297455 
L 268.439725 238.338345 
L 268.65478 240.605531 
L 268.869835 239.153511 
L 269.514999 233.419176 
L 269.730054 245.550982 
L 269.945109 242.076532 
L 270.160164 232.196538 
L 270.375219 236.666761 
L 271.020383 245.378779 
L 271.235438 246.768067 
L 271.450493 246.182891 
L 271.665547 244.167616 
L 271.880602 235.04131 
L 272.525767 243.441195 
L 272.740821 237.957729 
L 272.955876 250.167037 
L 273.170931 242.076532 
L 273.385986 246.970788 
L 274.03115 235.644963 
L 274.246205 249.025432 
L 274.676315 239.190747 
L 274.891369 243.501275 
L 275.751589 233.47397 
L 275.966643 240.004573 
L 276.181698 242.760925 
L 276.396753 240.017131 
L 277.041917 236.63427 
L 277.256972 246.06247 
L 277.472027 238.695425 
L 277.687082 242.076532 
L 277.902137 238.745147 
L 278.547301 226.974256 
L 278.977411 246.948234 
L 279.192465 245.188265 
L 279.40752 244.600589 
L 280.267739 236.971537 
L 280.482794 250.813386 
L 280.912904 238.136808 
L 281.558068 238.84955 
L 281.988178 247.819651 
L 282.203233 247.314315 
L 282.418287 244.08719 
L 283.278507 244.781417 
L 283.493561 234.548207 
L 283.708616 240.08939 
L 283.923671 236.823566 
L 284.568835 248.49393 
L 285.214 241.400311 
L 285.429055 243.424949 
L 286.074219 238.685302 
L 286.504329 241.414151 
L 286.719383 248.681026 
L 286.934438 248.879359 
L 287.579603 238.569811 
L 287.794657 242.767185 
L 288.009712 242.769297 
L 288.224767 244.161202 
L 288.439822 244.180564 
L 289.084986 247.739885 
L 289.300041 234.815822 
L 289.515096 245.594143 
L 289.730151 243.505769 
L 289.945205 233.44666 
L 290.59037 245.540357 
L 290.805425 240.669488 
L 291.020479 239.978994 
L 291.235534 234.456117 
L 291.450589 244.757409 
L 292.095753 244.11127 
L 292.310808 242.076532 
L 292.525863 237.970173 
L 292.740918 243.420948 
L 292.955973 235.99054 
L 293.601137 239.442414 
L 293.816192 241.425572 
L 294.031247 238.181962 
L 294.246301 247.181527 
L 294.461356 244.03504 
L 295.106521 238.125355 
L 295.321575 242.723772 
L 295.751685 235.017394 
L 295.96674 243.943571 
L 296.826959 233.918793 
L 297.042014 246.316476 
L 297.257069 240.842013 
L 297.472123 240.848705 
L 298.117288 239.023511 
L 298.332343 242.679016 
L 298.547397 243.284714 
L 298.977507 239.660168 
L 299.622671 243.271963 
L 299.837726 238.471214 
L 300.052781 247.991261 
L 300.267836 231.75192 
L 300.482891 243.819102 
L 301.128055 233.881498 
L 301.34311 234.167609 
L 301.558165 251.356244 
L 301.773219 240.938169 
L 301.988274 237.545849 
L 302.633439 246.518378 
L 302.848493 244.908209 
L 303.063548 236.34149 
L 303.278603 240.398501 
L 303.493658 239.300378 
L 304.353877 238.785479 
L 304.568932 242.617186 
L 304.783987 238.282898 
L 304.999041 241.54351 
L 305.644206 240.481221 
L 305.859261 243.132635 
L 306.074315 236.240758 
L 306.504425 238.529017 
L 307.149589 239.581663 
L 307.364644 248.98607 
L 307.579699 245.63999 
L 307.794754 245.179739 
L 308.009809 238.930224 
L 308.654973 238.973325 
L 308.870028 245.648016 
L 309.085083 240.002993 
L 309.300137 241.562849 
L 309.515192 238.488887 
L 310.160356 239.04935 
L 310.375411 246.05955 
L 310.590466 240.556169 
L 310.805521 255.165171 
L 311.66574 239.939417 
L 312.09585 251.245771 
L 312.310904 238.141696 
L 312.525959 240.418965 
L 313.171124 241.528023 
L 313.386178 247.001187 
L 313.601233 246.55128 
L 314.031343 242.076532 
L 314.676507 242.076532 
L 314.891562 239.223457 
L 315.106617 243.203567 
L 315.321672 250.571562 
L 315.536726 245.606934 
L 316.181891 239.087955 
L 316.396946 246.20606 
L 316.612 248.686281 
L 316.827055 238.981803 
L 317.04211 235.359886 
L 317.687274 240.890489 
L 317.902329 247.975858 
L 318.117384 242.076532 
L 318.332439 245.105063 
L 318.547494 239.620877 
L 319.192658 236.610561 
L 319.407713 234.960276 
L 319.622768 242.651492 
L 319.837822 243.229377 
L 320.052877 237.441562 
L 320.913096 235.83123 
L 321.343206 244.270567 
L 321.558261 239.307166 
L 321.558261 239.307166 
" clip-path="url(#p1295e77a9f)" style="fill: none; stroke: #e377c2; stroke-width: 1.5; stroke-linecap: square"/>
   </g>
   <g id="patch_39">
    <path d="M 243.923478 276.48 
L 243.923478 169.658182 
" style="fill: none; stroke: #000000; stroke-width: 0.8; stroke-linejoin: miter; stroke-linecap: square"/>
   </g>
   <g id="patch_40">
    <path d="M 321.558261 276.48 
L 321.558261 169.658182 
" style="fill: none; stroke: #000000; stroke-width: 0.8; stroke-linejoin: miter; stroke-linecap: square"/>
   </g>
   <g id="patch_41">
    <path d="M 243.923478 276.48 
L 321.558261 276.48 
" style="fill: none; stroke: #000000; stroke-width: 0.8; stroke-linejoin: miter; stroke-linecap: square"/>
   </g>
   <g id="patch_42">
    <path d="M 243.923478 169.658182 
L 321.558261 169.658182 
" style="fill: none; stroke: #000000; stroke-width: 0.8; stroke-linejoin: miter; stroke-linecap: square"/>
   </g>
   <g id="legend_7">
    <g id="patch_43">
     <path d="M 256.625448 192.336307 
L 314.558261 192.336307 
Q 316.558261 192.336307 316.558261 190.336307 
L 316.558261 176.658182 
Q 316.558261 174.658182 314.558261 174.658182 
L 256.625448 174.658182 
Q 254.625448 174.658182 254.625448 176.658182 
L 254.625448 190.336307 
Q 254.625448 192.336307 256.625448 192.336307 
z
" style="fill: #ffffff; opacity: 0.8; stroke: #cccccc; stroke-linejoin: miter"/>
    </g>
    <g id="line2d_63">
     <path d="M 258.625448 182.756619 
L 268.625448 182.756619 
L 278.625448 182.756619 
" style="fill: none; stroke: #e377c2; stroke-width: 1.5; stroke-linecap: square"/>
    </g>
    <g id="text_10">
     <!-- 20 yr -->
     <g transform="translate(286.625448 186.256619) scale(0.1 -0.1)">
      <use xlink:href="#DejaVuSans-32"/>
      <use xlink:href="#DejaVuSans-30" x="63.623047"/>
      <use xlink:href="#DejaVuSans-20" x="127.246094"/>
      <use xlink:href="#DejaVuSans-79" x="159.033203"/>
      <use xlink:href="#DejaVuSans-72" x="218.212891"/>
     </g>
    </g>
   </g>
  </g>
  <g id="axes_8">
   <g id="patch_44">
    <path d="M 337.085217 276.48 
L 414.72 276.48 
L 414.72 169.658182 
L 337.085217 169.658182 
z
" style="fill: #ffffff"/>
   </g>
   <g id="matplotlib.axis_15">
    <g id="xtick_15">
     <g id="line2d_64">
      <g>
       <use xlink:href="#md68919d927" x="338.160491" y="276.48" style="stroke: #000000; stroke-width: 0.6"/>
      </g>
     </g>
    </g>
    <g id="xtick_16">
     <g id="line2d_65">
      <g>
       <use xlink:href="#md68919d927" x="381.171451" y="276.48" style="stroke: #000000; stroke-width: 0.6"/>
      </g>
     </g>
    </g>
    <g id="text_11">
     <!-- DATE -->
     <g transform="translate(362.894015 293.478437) scale(0.1 -0.1)">
      <use xlink:href="#DejaVuSans-44"/>
      <use xlink:href="#DejaVuSans-41" x="75.251953"/>
      <use xlink:href="#DejaVuSans-54" x="135.910156"/>
      <use xlink:href="#DejaVuSans-45" x="196.994141"/>
     </g>
    </g>
   </g>
   <g id="matplotlib.axis_16">
    <g id="ytick_36">
     <g id="line2d_66">
      <g>
       <use xlink:href="#mbb66391bcd" x="337.085217" y="264.729946" style="stroke: #000000; stroke-width: 0.6"/>
      </g>
     </g>
    </g>
    <g id="ytick_37">
     <g id="line2d_67">
      <g>
       <use xlink:href="#mbb66391bcd" x="337.085217" y="242.076532" style="stroke: #000000; stroke-width: 0.6"/>
      </g>
     </g>
    </g>
    <g id="ytick_38">
     <g id="line2d_68">
      <g>
       <use xlink:href="#mbb66391bcd" x="337.085217" y="219.423118" style="stroke: #000000; stroke-width: 0.6"/>
      </g>
     </g>
    </g>
    <g id="ytick_39">
     <g id="line2d_69">
      <g>
       <use xlink:href="#mbb66391bcd" x="337.085217" y="196.769704" style="stroke: #000000; stroke-width: 0.6"/>
      </g>
     </g>
    </g>
    <g id="ytick_40">
     <g id="line2d_70">
      <g>
       <use xlink:href="#mbb66391bcd" x="337.085217" y="174.116291" style="stroke: #000000; stroke-width: 0.6"/>
      </g>
     </g>
    </g>
   </g>
   <g id="line2d_71">
    <path d="M 337.300272 235.314319 
L 337.515327 239.887796 
L 337.730382 242.076532 
L 337.945437 239.908741 
L 338.590601 242.076532 
L 338.805656 245.297396 
L 339.020711 242.076532 
L 339.235765 245.343851 
L 339.45082 234.34122 
L 340.311039 235.665188 
L 340.526094 246.233122 
L 340.741149 242.076532 
L 340.956204 249.486527 
L 341.601368 238.793428 
L 341.816423 239.919064 
L 342.031478 237.802303 
L 342.246533 249.417916 
L 342.461587 244.244323 
L 343.106752 237.699061 
L 343.536861 243.145089 
L 343.966971 232.549395 
L 344.612135 243.09238 
L 344.82719 239.01526 
L 345.042245 242.076532 
L 345.2573 237.04244 
L 345.472355 247.986118 
L 346.332574 234.162676 
L 346.547629 244.944053 
L 346.762683 244.980816 
L 346.977738 248.941203 
L 347.837957 242.076532 
L 348.053012 237.019966 
L 348.268067 243.065764 
L 348.483122 241.082961 
L 349.128286 253.947316 
L 349.343341 248.340149 
L 349.558396 228.119452 
L 349.988505 250.167037 
L 350.848725 236.90452 
L 351.063779 237.019966 
L 351.278834 233.173444 
L 351.493889 243.98018 
L 352.139053 231.517737 
L 352.569163 244.805859 
L 352.784218 238.39305 
L 352.999273 249.325624 
L 353.644437 229.907343 
L 354.074547 249.046813 
L 354.504656 233.953794 
L 355.149821 244.690387 
L 355.57993 246.553491 
L 355.794985 245.730308 
L 356.01004 242.076532 
L 356.655204 238.362857 
L 356.870259 233.855535 
L 357.085314 236.787797 
L 357.300369 236.908453 
L 357.515423 236.181591 
L 358.160588 235.510325 
L 358.375643 243.671843 
L 358.590697 242.879844 
L 358.805752 233.208647 
L 359.665971 239.749126 
L 359.881026 237.469058 
L 360.096081 250.355188 
L 360.311136 238.951923 
L 361.171355 247.451918 
L 361.601465 238.116145 
L 361.816519 241.298064 
L 362.031574 238.973325 
L 362.676739 233.658034 
L 362.891793 245.028117 
L 363.106848 243.571807 
L 363.321903 231.54006 
L 363.536958 236.323284 
L 364.397177 247.0475 
L 364.612232 247.159029 
L 364.827287 245.790206 
L 365.042341 234.525394 
L 365.687506 242.807287 
L 365.902561 236.21157 
L 366.117615 249.222719 
L 366.33267 243.552324 
L 366.547725 246.532941 
L 367.192889 235.257779 
L 367.407944 249.431536 
L 367.622999 242.836714 
L 367.838054 240.551049 
L 368.053109 243.59181 
L 368.913328 234.44912 
L 369.128383 240.600739 
L 369.343437 242.076532 
L 370.203657 236.249287 
L 370.418711 246.337362 
L 370.633766 238.457776 
L 370.848821 242.076532 
L 371.063876 240.651789 
L 371.70904 226.50231 
L 371.924095 240.08939 
L 372.13915 246.016256 
L 372.354205 244.749501 
L 372.569259 245.457638 
L 373.429479 235.898328 
L 373.644533 251.431924 
L 374.074643 238.547963 
L 374.719807 238.602082 
L 375.149917 247.568269 
L 375.364972 247.704709 
L 375.580026 244.240871 
L 376.440246 246.446965 
L 376.6553 235.391918 
L 376.870355 237.747854 
L 377.08541 237.121098 
L 377.730574 248.311416 
L 377.945629 245.638389 
L 378.160684 245.695288 
L 378.375739 239.870031 
L 378.590794 242.804937 
L 379.235958 239.153511 
L 379.451013 239.912193 
L 379.666068 242.076532 
L 379.881122 248.5081 
L 380.096177 247.960535 
L 380.741342 239.056077 
L 380.956396 242.82171 
L 381.171451 242.076532 
L 381.601561 243.576758 
L 382.246725 248.117442 
L 382.46178 235.870117 
L 382.676835 245.096987 
L 382.89189 241.311214 
L 383.106944 235.211861 
L 383.752109 246.518378 
L 383.967164 241.321418 
L 384.182218 239.818717 
L 384.397273 233.879573 
L 384.612328 244.234 
L 385.257492 243.528674 
L 385.687602 239.16291 
L 385.902657 242.795688 
L 386.117712 236.304961 
L 386.762876 240.669488 
L 386.977931 240.678173 
L 387.192986 237.907192 
L 387.40804 246.852854 
L 388.26826 239.253677 
L 388.483314 243.470588 
L 388.913424 235.148882 
L 389.128479 243.420948 
L 389.988698 232.609434 
L 390.203753 246.620197 
L 390.418808 240.08939 
L 390.633862 240.76329 
L 391.279027 238.159515 
L 391.494082 243.360011 
L 391.709136 244.658117 
L 392.139246 239.472691 
L 392.78441 242.076532 
L 392.999465 237.571592 
L 393.21452 247.755661 
L 393.429575 232.367926 
L 393.64463 244.559098 
L 394.504849 232.942091 
L 394.719904 252.027644 
L 394.934958 241.464277 
L 395.150013 237.191699 
L 395.795178 245.662824 
L 396.010232 243.898522 
L 396.225287 237.178496 
L 396.440342 240.278642 
L 396.655397 239.103643 
L 397.515616 238.555276 
L 397.730671 243.232318 
L 397.945726 238.010535 
L 398.16078 240.935302 
L 398.805945 239.237758 
L 399.021 242.076532 
L 399.236054 235.908523 
L 399.451109 237.163743 
L 399.666164 237.268024 
L 400.311328 238.414317 
L 400.526383 249.284436 
L 400.741438 245.798924 
L 400.956493 245.861112 
L 401.171548 240.427011 
L 401.816712 238.255474 
L 402.031767 246.371018 
L 402.246822 241.529348 
L 402.461876 240.438936 
L 402.676931 237.199003 
L 403.322096 238.362857 
L 403.53715 245.20834 
L 403.752205 240.488676 
L 403.96726 256.793367 
L 404.827479 239.828054 
L 405.042534 247.085886 
L 405.257589 249.475888 
L 405.472644 239.72293 
L 405.687698 240.329482 
L 406.332863 242.654425 
L 406.547918 246.711501 
L 406.762972 247.399788 
L 407.193082 242.076532 
L 407.838246 242.076532 
L 408.053301 237.836588 
L 408.268356 242.67111 
L 408.483411 251.614811 
L 408.698466 247.055304 
L 409.34363 238.258541 
L 409.558685 248.334381 
L 409.77374 248.512161 
L 410.203849 234.174178 
L 411.064068 244.614729 
L 411.279123 242.718272 
L 411.494178 244.650783 
L 411.709233 238.821731 
L 412.354397 236.300874 
L 412.569452 234.567113 
L 412.784507 242.076532 
L 412.999562 242.682238 
L 413.214616 236.610561 
L 414.074836 235.553298 
L 414.28989 239.194418 
L 414.504945 245.491619 
L 414.72 239.187066 
L 414.72 239.187066 
" clip-path="url(#p885b6e6552)" style="fill: none; stroke: #7f7f7f; stroke-width: 1.5; stroke-linecap: square"/>
   </g>
   <g id="patch_45">
    <path d="M 337.085217 276.48 
L 337.085217 169.658182 
" style="fill: none; stroke: #000000; stroke-width: 0.8; stroke-linejoin: miter; stroke-linecap: square"/>
   </g>
   <g id="patch_46">
    <path d="M 414.72 276.48 
L 414.72 169.658182 
" style="fill: none; stroke: #000000; stroke-width: 0.8; stroke-linejoin: miter; stroke-linecap: square"/>
   </g>
   <g id="patch_47">
    <path d="M 337.085217 276.48 
L 414.72 276.48 
" style="fill: none; stroke: #000000; stroke-width: 0.8; stroke-linejoin: miter; stroke-linecap: square"/>
   </g>
   <g id="patch_48">
    <path d="M 337.085217 169.658182 
L 414.72 169.658182 
" style="fill: none; stroke: #000000; stroke-width: 0.8; stroke-linejoin: miter; stroke-linecap: square"/>
   </g>
   <g id="legend_8">
    <g id="patch_49">
     <path d="M 349.787188 192.336307 
L 407.72 192.336307 
Q 409.72 192.336307 409.72 190.336307 
L 409.72 176.658182 
Q 409.72 174.658182 407.72 174.658182 
L 349.787188 174.658182 
Q 347.787188 174.658182 347.787188 176.658182 
L 347.787188 190.336307 
Q 347.787188 192.336307 349.787188 192.336307 
z
" style="fill: #ffffff; opacity: 0.8; stroke: #cccccc; stroke-linejoin: miter"/>
    </g>
    <g id="line2d_72">
     <path d="M 351.787188 182.756619 
L 361.787188 182.756619 
L 371.787188 182.756619 
" style="fill: none; stroke: #7f7f7f; stroke-width: 1.5; stroke-linecap: square"/>
    </g>
    <g id="text_12">
     <!-- 30 yr -->
     <g transform="translate(379.787188 186.256619) scale(0.1 -0.1)">
      <defs>
       <path id="DejaVuSans-33" d="M 2597 2516 
Q 3050 2419 3304 2112 
Q 3559 1806 3559 1356 
Q 3559 666 3084 287 
Q 2609 -91 1734 -91 
Q 1441 -91 1130 -33 
Q 819 25 488 141 
L 488 750 
Q 750 597 1062 519 
Q 1375 441 1716 441 
Q 2309 441 2620 675 
Q 2931 909 2931 1356 
Q 2931 1769 2642 2001 
Q 2353 2234 1838 2234 
L 1294 2234 
L 1294 2753 
L 1863 2753 
Q 2328 2753 2575 2939 
Q 2822 3125 2822 3475 
Q 2822 3834 2567 4026 
Q 2313 4219 1838 4219 
Q 1578 4219 1281 4162 
Q 984 4106 628 3988 
L 628 4550 
Q 988 4650 1302 4700 
Q 1616 4750 1894 4750 
Q 2613 4750 3031 4423 
Q 3450 4097 3450 3541 
Q 3450 3153 3228 2886 
Q 3006 2619 2597 2516 
z
" transform="scale(0.015625)"/>
      </defs>
      <use xlink:href="#DejaVuSans-33"/>
      <use xlink:href="#DejaVuSans-30" x="63.623047"/>
      <use xlink:href="#DejaVuSans-20" x="127.246094"/>
      <use xlink:href="#DejaVuSans-79" x="159.033203"/>
      <use xlink:href="#DejaVuSans-72" x="218.212891"/>
     </g>
    </g>
   </g>
  </g>
 </g>
 <defs>
  <clipPath id="p655e7df374">
   <rect x="57.6" y="41.472" width="77.634783" height="106.821818"/>
  </clipPath>
  <clipPath id="pd0887f4753">
   <rect x="150.761739" y="41.472" width="77.634783" height="106.821818"/>
  </clipPath>
  <clipPath id="pf41a5ee1e7">
   <rect x="243.923478" y="41.472" width="77.634783" height="106.821818"/>
  </clipPath>
  <clipPath id="pfe0689cd95">
   <rect x="337.085217" y="41.472" width="77.634783" height="106.821818"/>
  </clipPath>
  <clipPath id="pb6fbcef81e">
   <rect x="57.6" y="169.658182" width="77.634783" height="106.821818"/>
  </clipPath>
  <clipPath id="pc23ffcdfef">
   <rect x="150.761739" y="169.658182" width="77.634783" height="106.821818"/>
  </clipPath>
  <clipPath id="p1295e77a9f">
   <rect x="243.923478" y="169.658182" width="77.634783" height="106.821818"/>
  </clipPath>
  <clipPath id="p885b6e6552">
   <rect x="337.085217" y="169.658182" width="77.634783" height="106.821818"/>
  </clipPath>
 </defs>
</svg>
