<?xml version="1.0" encoding="utf-8" standalone="no"?>
<!DOCTYPE svg PUBLIC "-//W3C//DTD SVG 1.1//EN"
  "http://www.w3.org/Graphics/SVG/1.1/DTD/svg11.dtd">
<svg xmlns:xlink="http://www.w3.org/1999/xlink" width="360pt" height="360pt" viewBox="0 0 360 360" xmlns="http://www.w3.org/2000/svg" version="1.1">
 <metadata>
  <rdf:RDF xmlns:dc="http://purl.org/dc/elements/1.1/" xmlns:cc="http://creativecommons.org/ns#" xmlns:rdf="http://www.w3.org/1999/02/22-rdf-syntax-ns#">
   <cc:Work>
    <dc:type rdf:resource="http://purl.org/dc/dcmitype/StillImage"/>
    <dc:date>2024-03-16T14:01:53.759982</dc:date>
    <dc:format>image/svg+xml</dc:format>
    <dc:creator>
     <cc:Agent>
      <dc:title>Matplotlib v3.8.3, https://matplotlib.org/</dc:title>
     </cc:Agent>
    </dc:creator>
   </cc:Work>
  </rdf:RDF>
 </metadata>
 <defs>
  <style type="text/css">*{stroke-linejoin: round; stroke-linecap: butt}</style>
 </defs>
 <g id="figure_1">
  <g id="patch_1">
   <path d="M 0 360 
L 360 360 
L 360 0 
L 0 0 
z
" style="fill: #ffffff"/>
  </g>
  <g id="axes_1">
   <g id="patch_2">
    <path d="M 45 320.4 
L 324 320.4 
L 324 43.2 
L 45 43.2 
z
" style="fill: #ffffff"/>
   </g>
   <g id="PathCollection_1">
    <defs>
     <path id="m7680ac4970" d="M 0 2.236068 
C 0.593012 2.236068 1.161816 2.000462 1.581139 1.581139 
C 2.000462 1.161816 2.236068 0.593012 2.236068 0 
C 2.236068 -0.593012 2.000462 -1.161816 1.581139 -1.581139 
C 1.161816 -2.000462 0.593012 -2.236068 0 -2.236068 
C -0.593012 -2.236068 -1.161816 -2.000462 -1.581139 -1.581139 
C -2.000462 -1.161816 -2.236068 -0.593012 -2.236068 0 
C -2.236068 0.593012 -2.000462 1.161816 -1.581139 1.581139 
C -1.161816 2.000462 -0.593012 2.236068 0 2.236068 
z
" style="stroke: #1f77b4"/>
    </defs>
    <g clip-path="url(#pcd53fbaf81)">
     <use xlink:href="#m7680ac4970" x="84.857143" y="251.353846" style="fill: #1f77b4; stroke: #1f77b4"/>
     <use xlink:href="#m7680ac4970" x="187.646617" y="179.485714" style="fill: #1f77b4; stroke: #1f77b4"/>
     <use xlink:href="#m7680ac4970" x="202.484321" y="193.489157" style="fill: #1f77b4; stroke: #1f77b4"/>
     <use xlink:href="#m7680ac4970" x="89.285714" y="250.2" style="fill: #1f77b4; stroke: #1f77b4"/>
     <use xlink:href="#m7680ac4970" x="180.328904" y="195.682759" style="fill: #1f77b4; stroke: #1f77b4"/>
     <use xlink:href="#m7680ac4970" x="124.714286" y="258.417391" style="fill: #1f77b4; stroke: #1f77b4"/>
     <use xlink:href="#m7680ac4970" x="159.372671" y="223.6" style="fill: #1f77b4; stroke: #1f77b4"/>
     <use xlink:href="#m7680ac4970" x="108.107143" y="249.808696" style="fill: #1f77b4; stroke: #1f77b4"/>
     <use xlink:href="#m7680ac4970" x="192.556231" y="171.573626" style="fill: #1f77b4; stroke: #1f77b4"/>
     <use xlink:href="#m7680ac4970" x="234.12605" y="185.2" style="fill: #1f77b4; stroke: #1f77b4"/>
     <use xlink:href="#m7680ac4970" x="110.970443" y="256.143396" style="fill: #1f77b4; stroke: #1f77b4"/>
     <use xlink:href="#m7680ac4970" x="166.669173" y="210.738462" style="fill: #1f77b4; stroke: #1f77b4"/>
     <use xlink:href="#m7680ac4970" x="98.142857" y="292.533333" style="fill: #1f77b4; stroke: #1f77b4"/>
     <use xlink:href="#m7680ac4970" x="124.714286" y="256.883168" style="fill: #1f77b4; stroke: #1f77b4"/>
     <use xlink:href="#m7680ac4970" x="220.921182" y="217.2" style="fill: #1f77b4; stroke: #1f77b4"/>
     <use xlink:href="#m7680ac4970" x="186.032967" y="155.788235" style="fill: #1f77b4; stroke: #1f77b4"/>
     <use xlink:href="#m7680ac4970" x="181.653061" y="206.155752" style="fill: #1f77b4; stroke: #1f77b4"/>
     <use xlink:href="#m7680ac4970" x="124.714286" y="261.335593" style="fill: #1f77b4; stroke: #1f77b4"/>
     <use xlink:href="#m7680ac4970" x="156.6" y="220.53913" style="fill: #1f77b4; stroke: #1f77b4"/>
     <use xlink:href="#m7680ac4970" x="124.714286" y="241.2" style="fill: #1f77b4; stroke: #1f77b4"/>
     <use xlink:href="#m7680ac4970" x="104.274725" y="254.623729" style="fill: #1f77b4; stroke: #1f77b4"/>
     <use xlink:href="#m7680ac4970" x="145.691729" y="220.717241" style="fill: #1f77b4; stroke: #1f77b4"/>
     <use xlink:href="#m7680ac4970" x="237.131868" y="161.334454" style="fill: #1f77b4; stroke: #1f77b4"/>
     <use xlink:href="#m7680ac4970" x="115.757624" y="247.245802" style="fill: #1f77b4; stroke: #1f77b4"/>
     <use xlink:href="#m7680ac4970" x="151.88961" y="210.738462" style="fill: #1f77b4; stroke: #1f77b4"/>
     <use xlink:href="#m7680ac4970" x="124.714286" y="235.333333" style="fill: #1f77b4; stroke: #1f77b4"/>
     <use xlink:href="#m7680ac4970" x="326.189953" y="95.611765" style="fill: #1f77b4; stroke: #1f77b4"/>
     <use xlink:href="#m7680ac4970" x="75.766917" y="295.311801" style="fill: #1f77b4; stroke: #1f77b4"/>
     <use xlink:href="#m7680ac4970" x="169.413885" y="198.96" style="fill: #1f77b4; stroke: #1f77b4"/>
     <use xlink:href="#m7680ac4970" x="110.605563" y="241.2" style="fill: #1f77b4; stroke: #1f77b4"/>
     <use xlink:href="#m7680ac4970" x="110.351351" y="271.275949" style="fill: #1f77b4; stroke: #1f77b4"/>
     <use xlink:href="#m7680ac4970" x="95.461337" y="256.831579" style="fill: #1f77b4; stroke: #1f77b4"/>
     <use xlink:href="#m7680ac4970" x="109.530612" y="251.830872" style="fill: #1f77b4; stroke: #1f77b4"/>
     <use xlink:href="#m7680ac4970" x="233.0638" y="192.710204" style="fill: #1f77b4; stroke: #1f77b4"/>
     <use xlink:href="#m7680ac4970" x="117.901099" y="231.046154" style="fill: #1f77b4; stroke: #1f77b4"/>
     <use xlink:href="#m7680ac4970" x="69.738916" y="261.250633" style="fill: #1f77b4; stroke: #1f77b4"/>
     <use xlink:href="#m7680ac4970" x="161.619048" y="236.057143" style="fill: #1f77b4; stroke: #1f77b4"/>
     <use xlink:href="#m7680ac4970" x="40.061947" y="297.406452" style="fill: #1f77b4; stroke: #1f77b4"/>
     <use xlink:href="#m7680ac4970" x="45.78925" y="312.7" style="fill: #1f77b4; stroke: #1f77b4"/>
     <use xlink:href="#m7680ac4970" x="256.11146" y="126.329771" style="fill: #1f77b4; stroke: #1f77b4"/>
     <use xlink:href="#m7680ac4970" x="139.754717" y="225.36" style="fill: #1f77b4; stroke: #1f77b4"/>
     <use xlink:href="#m7680ac4970" x="102.571429" y="256.729412" style="fill: #1f77b4; stroke: #1f77b4"/>
     <use xlink:href="#m7680ac4970" x="139.897959" y="214.8" style="fill: #1f77b4; stroke: #1f77b4"/>
     <use xlink:href="#m7680ac4970" x="161.963952" y="200.322581" style="fill: #1f77b4; stroke: #1f77b4"/>
     <use xlink:href="#m7680ac4970" x="146.066327" y="216.905521" style="fill: #1f77b4; stroke: #1f77b4"/>
     <use xlink:href="#m7680ac4970" x="152.440994" y="222.342857" style="fill: #1f77b4; stroke: #1f77b4"/>
     <use xlink:href="#m7680ac4970" x="144.810324" y="227.386047" style="fill: #1f77b4; stroke: #1f77b4"/>
     <use xlink:href="#m7680ac4970" x="163.918033" y="186.891429" style="fill: #1f77b4; stroke: #1f77b4"/>
     <use xlink:href="#m7680ac4970" x="124.714286" y="249.670588" style="fill: #1f77b4; stroke: #1f77b4"/>
     <use xlink:href="#m7680ac4970" x="168.308036" y="198.389189" style="fill: #1f77b4; stroke: #1f77b4"/>
     <use xlink:href="#m7680ac4970" x="95.190476" y="245.261538" style="fill: #1f77b4; stroke: #1f77b4"/>
     <use xlink:href="#m7680ac4970" x="118.582418" y="228.952577" style="fill: #1f77b4; stroke: #1f77b4"/>
     <use xlink:href="#m7680ac4970" x="192.687708" y="172.854822" style="fill: #1f77b4; stroke: #1f77b4"/>
     <use xlink:href="#m7680ac4970" x="232.897959" y="226.396262" style="fill: #1f77b4; stroke: #1f77b4"/>
     <use xlink:href="#m7680ac4970" x="89.619946" y="259.365138" style="fill: #1f77b4; stroke: #1f77b4"/>
     <use xlink:href="#m7680ac4970" x="140.447368" y="241.2" style="fill: #1f77b4; stroke: #1f77b4"/>
     <use xlink:href="#m7680ac4970" x="186.428571" y="177.988732" style="fill: #1f77b4; stroke: #1f77b4"/>
     <use xlink:href="#m7680ac4970" x="134.260907" y="223.982609" style="fill: #1f77b4; stroke: #1f77b4"/>
     <use xlink:href="#m7680ac4970" x="115.280642" y="241.2" style="fill: #1f77b4; stroke: #1f77b4"/>
     <use xlink:href="#m7680ac4970" x="110.394354" y="254.680851" style="fill: #1f77b4; stroke: #1f77b4"/>
     <use xlink:href="#m7680ac4970" x="119.853659" y="251.485714" style="fill: #1f77b4; stroke: #1f77b4"/>
     <use xlink:href="#m7680ac4970" x="168.728309" y="185.621053" style="fill: #1f77b4; stroke: #1f77b4"/>
     <use xlink:href="#m7680ac4970" x="124.714286" y="244.445902" style="fill: #1f77b4; stroke: #1f77b4"/>
     <use xlink:href="#m7680ac4970" x="147.887043" y="215.125926" style="fill: #1f77b4; stroke: #1f77b4"/>
     <use xlink:href="#m7680ac4970" x="133.72155" y="244.355378" style="fill: #1f77b4; stroke: #1f77b4"/>
     <use xlink:href="#m7680ac4970" x="120.260974" y="250.704" style="fill: #1f77b4; stroke: #1f77b4"/>
     <use xlink:href="#m7680ac4970" x="138.149278" y="221.961134" style="fill: #1f77b4; stroke: #1f77b4"/>
     <use xlink:href="#m7680ac4970" x="142.330702" y="250.591304" style="fill: #1f77b4; stroke: #1f77b4"/>
     <use xlink:href="#m7680ac4970" x="90.243243" y="276.048" style="fill: #1f77b4; stroke: #1f77b4"/>
     <use xlink:href="#m7680ac4970" x="129.217918" y="247.827615" style="fill: #1f77b4; stroke: #1f77b4"/>
     <use xlink:href="#m7680ac4970" x="151.58427" y="207.782278" style="fill: #1f77b4; stroke: #1f77b4"/>
     <use xlink:href="#m7680ac4970" x="124.714286" y="244.406478" style="fill: #1f77b4; stroke: #1f77b4"/>
     <use xlink:href="#m7680ac4970" x="168.037267" y="192.907317" style="fill: #1f77b4; stroke: #1f77b4"/>
     <use xlink:href="#m7680ac4970" x="120.605302" y="244.234483" style="fill: #1f77b4; stroke: #1f77b4"/>
     <use xlink:href="#m7680ac4970" x="157.756477" y="216.830769" style="fill: #1f77b4; stroke: #1f77b4"/>
     <use xlink:href="#m7680ac4970" x="144.54371" y="229.379104" style="fill: #1f77b4; stroke: #1f77b4"/>
     <use xlink:href="#m7680ac4970" x="113.105409" y="267.405882" style="fill: #1f77b4; stroke: #1f77b4"/>
     <use xlink:href="#m7680ac4970" x="109.007037" y="268.302662" style="fill: #1f77b4; stroke: #1f77b4"/>
     <use xlink:href="#m7680ac4970" x="116.7028" y="228.727559" style="fill: #1f77b4; stroke: #1f77b4"/>
     <use xlink:href="#m7680ac4970" x="153.039159" y="225.851163" style="fill: #1f77b4; stroke: #1f77b4"/>
     <use xlink:href="#m7680ac4970" x="148.159664" y="220.120152" style="fill: #1f77b4; stroke: #1f77b4"/>
     <use xlink:href="#m7680ac4970" x="124.714286" y="232.4" style="fill: #1f77b4; stroke: #1f77b4"/>
     <use xlink:href="#m7680ac4970" x="147.489796" y="226.694505" style="fill: #1f77b4; stroke: #1f77b4"/>
     <use xlink:href="#m7680ac4970" x="91.5" y="275.38705" style="fill: #1f77b4; stroke: #1f77b4"/>
     <use xlink:href="#m7680ac4970" x="128.565217" y="226.312782" style="fill: #1f77b4; stroke: #1f77b4"/>
     <use xlink:href="#m7680ac4970" x="124.714286" y="238.277491" style="fill: #1f77b4; stroke: #1f77b4"/>
     <use xlink:href="#m7680ac4970" x="90.222527" y="273.229412" style="fill: #1f77b4; stroke: #1f77b4"/>
     <use xlink:href="#m7680ac4970" x="132.725772" y="238.165517" style="fill: #1f77b4; stroke: #1f77b4"/>
     <use xlink:href="#m7680ac4970" x="116.782516" y="229.108397" style="fill: #1f77b4; stroke: #1f77b4"/>
     <use xlink:href="#m7680ac4970" x="112.697057" y="270.974436" style="fill: #1f77b4; stroke: #1f77b4"/>
     <use xlink:href="#m7680ac4970" x="157.250729" y="225.73125" style="fill: #1f77b4; stroke: #1f77b4"/>
     <use xlink:href="#m7680ac4970" x="136.436975" y="250.303448" style="fill: #1f77b4; stroke: #1f77b4"/>
     <use xlink:href="#m7680ac4970" x="159.372671" y="201.293023" style="fill: #1f77b4; stroke: #1f77b4"/>
     <use xlink:href="#m7680ac4970" x="124.714286" y="249.967528" style="fill: #1f77b4; stroke: #1f77b4"/>
     <use xlink:href="#m7680ac4970" x="106.261905" y="255.976119" style="fill: #1f77b4; stroke: #1f77b4"/>
     <use xlink:href="#m7680ac4970" x="109.602573" y="250.234221" style="fill: #1f77b4; stroke: #1f77b4"/>
     <use xlink:href="#m7680ac4970" x="132.416149" y="225.969231" style="fill: #1f77b4; stroke: #1f77b4"/>
     <use xlink:href="#m7680ac4970" x="98.015721" y="286.030189" style="fill: #1f77b4; stroke: #1f77b4"/>
     <use xlink:href="#m7680ac4970" x="120.768034" y="247.536" style="fill: #1f77b4; stroke: #1f77b4"/>
     <use xlink:href="#m7680ac4970" x="116.782516" y="247.587097" style="fill: #1f77b4; stroke: #1f77b4"/>
     <use xlink:href="#m7680ac4970" x="132.725772" y="237.980488" style="fill: #1f77b4; stroke: #1f77b4"/>
     <use xlink:href="#m7680ac4970" x="152.47548" y="221.961134" style="fill: #1f77b4; stroke: #1f77b4"/>
     <use xlink:href="#m7680ac4970" x="155.373626" y="200.504348" style="fill: #1f77b4; stroke: #1f77b4"/>
     <use xlink:href="#m7680ac4970" x="121.02381" y="244.177444" style="fill: #1f77b4; stroke: #1f77b4"/>
     <use xlink:href="#m7680ac4970" x="135.837209" y="238.211321" style="fill: #1f77b4; stroke: #1f77b4"/>
     <use xlink:href="#m7680ac4970" x="142.997379" y="220.357895" style="fill: #1f77b4; stroke: #1f77b4"/>
     <use xlink:href="#m7680ac4970" x="135.438181" y="235.397802" style="fill: #1f77b4; stroke: #1f77b4"/>
     <use xlink:href="#m7680ac4970" x="135.295828" y="232.56" style="fill: #1f77b4; stroke: #1f77b4"/>
     <use xlink:href="#m7680ac4970" x="145.600125" y="226.955396" style="fill: #1f77b4; stroke: #1f77b4"/>
     <use xlink:href="#m7680ac4970" x="202.732523" y="176.832509" style="fill: #1f77b4; stroke: #1f77b4"/>
     <use xlink:href="#m7680ac4970" x="220.495017" y="153.2" style="fill: #1f77b4; stroke: #1f77b4"/>
     <use xlink:href="#m7680ac4970" x="196.42956" y="229.552941" style="fill: #1f77b4; stroke: #1f77b4"/>
     <use xlink:href="#m7680ac4970" x="69.040816" y="298.591304" style="fill: #1f77b4; stroke: #1f77b4"/>
     <use xlink:href="#m7680ac4970" x="111.111165" y="256.05" style="fill: #1f77b4; stroke: #1f77b4"/>
     <use xlink:href="#m7680ac4970" x="119.178571" y="233.633121" style="fill: #1f77b4; stroke: #1f77b4"/>
     <use xlink:href="#m7680ac4970" x="141.437562" y="231.206309" style="fill: #1f77b4; stroke: #1f77b4"/>
     <use xlink:href="#m7680ac4970" x="89.225049" y="278.209346" style="fill: #1f77b4; stroke: #1f77b4"/>
     <use xlink:href="#m7680ac4970" x="121.857143" y="254.141176" style="fill: #1f77b4; stroke: #1f77b4"/>
     <use xlink:href="#m7680ac4970" x="139.051387" y="233.306312" style="fill: #1f77b4; stroke: #1f77b4"/>
     <use xlink:href="#m7680ac4970" x="141.614841" y="230.778947" style="fill: #1f77b4; stroke: #1f77b4"/>
     <use xlink:href="#m7680ac4970" x="121.956006" y="236.057143" style="fill: #1f77b4; stroke: #1f77b4"/>
     <use xlink:href="#m7680ac4970" x="124.714286" y="251.419355" style="fill: #1f77b4; stroke: #1f77b4"/>
     <use xlink:href="#m7680ac4970" x="102.571429" y="277.435294" style="fill: #1f77b4; stroke: #1f77b4"/>
     <use xlink:href="#m7680ac4970" x="121.867347" y="262.89863" style="fill: #1f77b4; stroke: #1f77b4"/>
     <use xlink:href="#m7680ac4970" x="119" y="246.777465" style="fill: #1f77b4; stroke: #1f77b4"/>
     <use xlink:href="#m7680ac4970" x="139.103146" y="199.07234" style="fill: #1f77b4; stroke: #1f77b4"/>
     <use xlink:href="#m7680ac4970" x="138.848024" y="225.2" style="fill: #1f77b4; stroke: #1f77b4"/>
     <use xlink:href="#m7680ac4970" x="149.711797" y="217.675248" style="fill: #1f77b4; stroke: #1f77b4"/>
     <use xlink:href="#m7680ac4970" x="127.407336" y="253.892308" style="fill: #1f77b4; stroke: #1f77b4"/>
     <use xlink:href="#m7680ac4970" x="151.554113" y="251.519218" style="fill: #1f77b4; stroke: #1f77b4"/>
     <use xlink:href="#m7680ac4970" x="161.066077" y="215.061386" style="fill: #1f77b4; stroke: #1f77b4"/>
     <use xlink:href="#m7680ac4970" x="112.29773" y="236.139297" style="fill: #1f77b4; stroke: #1f77b4"/>
     <use xlink:href="#m7680ac4970" x="114.62387" y="246.228571" style="fill: #1f77b4; stroke: #1f77b4"/>
     <use xlink:href="#m7680ac4970" x="127.269231" y="236.139297" style="fill: #1f77b4; stroke: #1f77b4"/>
     <use xlink:href="#m7680ac4970" x="137.448197" y="221.085714" style="fill: #1f77b4; stroke: #1f77b4"/>
     <use xlink:href="#m7680ac4970" x="124.714286" y="236.295975" style="fill: #1f77b4; stroke: #1f77b4"/>
     <use xlink:href="#m7680ac4970" x="107.167116" y="277.753846" style="fill: #1f77b4; stroke: #1f77b4"/>
     <use xlink:href="#m7680ac4970" x="99.082683" y="271.858065" style="fill: #1f77b4; stroke: #1f77b4"/>
     <use xlink:href="#m7680ac4970" x="140.604177" y="235.884564" style="fill: #1f77b4; stroke: #1f77b4"/>
     <use xlink:href="#m7680ac4970" x="122.117729" y="235.92" style="fill: #1f77b4; stroke: #1f77b4"/>
     <use xlink:href="#m7680ac4970" x="109.084034" y="256.935099" style="fill: #1f77b4; stroke: #1f77b4"/>
     <use xlink:href="#m7680ac4970" x="106.114286" y="270.632432" style="fill: #1f77b4; stroke: #1f77b4"/>
     <use xlink:href="#m7680ac4970" x="138.317406" y="230.084211" style="fill: #1f77b4; stroke: #1f77b4"/>
     <use xlink:href="#m7680ac4970" x="124.714286" y="238.459516" style="fill: #1f77b4; stroke: #1f77b4"/>
     <use xlink:href="#m7680ac4970" x="154.139022" y="197.503448" style="fill: #1f77b4; stroke: #1f77b4"/>
     <use xlink:href="#m7680ac4970" x="137.613037" y="230.847059" style="fill: #1f77b4; stroke: #1f77b4"/>
     <use xlink:href="#m7680ac4970" x="117.098271" y="259.083871" style="fill: #1f77b4; stroke: #1f77b4"/>
     <use xlink:href="#m7680ac4970" x="170.851171" y="186.308911" style="fill: #1f77b4; stroke: #1f77b4"/>
     <use xlink:href="#m7680ac4970" x="127.137212" y="248.533333" style="fill: #1f77b4; stroke: #1f77b4"/>
     <use xlink:href="#m7680ac4970" x="131.961039" y="223.928972" style="fill: #1f77b4; stroke: #1f77b4"/>
     <use xlink:href="#m7680ac4970" x="107.957529" y="253.273171" style="fill: #1f77b4; stroke: #1f77b4"/>
     <use xlink:href="#m7680ac4970" x="122.269062" y="241.2" style="fill: #1f77b4; stroke: #1f77b4"/>
     <use xlink:href="#m7680ac4970" x="127.167033" y="236.295975" style="fill: #1f77b4; stroke: #1f77b4"/>
     <use xlink:href="#m7680ac4970" x="117.378615" y="253.384615" style="fill: #1f77b4; stroke: #1f77b4"/>
     <use xlink:href="#m7680ac4970" x="132.118089" y="228.825" style="fill: #1f77b4; stroke: #1f77b4"/>
     <use xlink:href="#m7680ac4970" x="127.159509" y="233.889231" style="fill: #1f77b4; stroke: #1f77b4"/>
     <use xlink:href="#m7680ac4970" x="117.401048" y="255.687805" style="fill: #1f77b4; stroke: #1f77b4"/>
     <use xlink:href="#m7680ac4970" x="129.634921" y="233.821118" style="fill: #1f77b4; stroke: #1f77b4"/>
     <use xlink:href="#m7680ac4970" x="139.385627" y="224.141538" style="fill: #1f77b4; stroke: #1f77b4"/>
     <use xlink:href="#m7680ac4970" x="117.511188" y="248.356627" style="fill: #1f77b4; stroke: #1f77b4"/>
     <use xlink:href="#m7680ac4970" x="139.251845" y="224.348936" style="fill: #1f77b4; stroke: #1f77b4"/>
     <use xlink:href="#m7680ac4970" x="119.955224" y="243.557143" style="fill: #1f77b4; stroke: #1f77b4"/>
     <use xlink:href="#m7680ac4970" x="131.895753" y="236.471642" style="fill: #1f77b4; stroke: #1f77b4"/>
     <use xlink:href="#m7680ac4970" x="141.321429" y="229.449258" style="fill: #1f77b4; stroke: #1f77b4"/>
     <use xlink:href="#m7680ac4970" x="136.334444" y="231.936842" style="fill: #1f77b4; stroke: #1f77b4"/>
     <use xlink:href="#m7680ac4970" x="129.295567" y="243.489017" style="fill: #1f77b4; stroke: #1f77b4"/>
     <use xlink:href="#m7680ac4970" x="126.991837" y="227.426087" style="fill: #1f77b4; stroke: #1f77b4"/>
     <use xlink:href="#m7680ac4970" x="115.630037" y="266.020513" style="fill: #1f77b4; stroke: #1f77b4"/>
     <use xlink:href="#m7680ac4970" x="156.875669" y="217.905882" style="fill: #1f77b4; stroke: #1f77b4"/>
     <use xlink:href="#m7680ac4970" x="122.506134" y="252.514286" style="fill: #1f77b4; stroke: #1f77b4"/>
     <use xlink:href="#m7680ac4970" x="124.714286" y="234.313043" style="fill: #1f77b4; stroke: #1f77b4"/>
     <use xlink:href="#m7680ac4970" x="140.214286" y="222.993103" style="fill: #1f77b4; stroke: #1f77b4"/>
     <use xlink:href="#m7680ac4970" x="131.23044" y="236.750562" style="fill: #1f77b4; stroke: #1f77b4"/>
     <use xlink:href="#m7680ac4970" x="172.111969" y="203.591061" style="fill: #1f77b4; stroke: #1f77b4"/>
     <use xlink:href="#m7680ac4970" x="130.814869" y="234.864" style="fill: #1f77b4; stroke: #1f77b4"/>
     <use xlink:href="#m7680ac4970" x="134.804702" y="222.342857" style="fill: #1f77b4; stroke: #1f77b4"/>
     <use xlink:href="#m7680ac4970" x="116.742857" y="245.293023" style="fill: #1f77b4; stroke: #1f77b4"/>
     <use xlink:href="#m7680ac4970" x="142.831169" y="220.628571" style="fill: #1f77b4; stroke: #1f77b4"/>
     <use xlink:href="#m7680ac4970" x="120.777778" y="239.194937" style="fill: #1f77b4; stroke: #1f77b4"/>
     <use xlink:href="#m7680ac4970" x="134.604396" y="229.2" style="fill: #1f77b4; stroke: #1f77b4"/>
     <use xlink:href="#m7680ac4970" x="124.714286" y="223.468657" style="fill: #1f77b4; stroke: #1f77b4"/>
     <use xlink:href="#m7680ac4970" x="138.390756" y="223.856934" style="fill: #1f77b4; stroke: #1f77b4"/>
     <use xlink:href="#m7680ac4970" x="128.555938" y="228" style="fill: #1f77b4; stroke: #1f77b4"/>
     <use xlink:href="#m7680ac4970" x="122.802672" y="235.635597" style="fill: #1f77b4; stroke: #1f77b4"/>
     <use xlink:href="#m7680ac4970" x="92.138736" y="283.562791" style="fill: #1f77b4; stroke: #1f77b4"/>
     <use xlink:href="#m7680ac4970" x="122.716434" y="223.686486" style="fill: #1f77b4; stroke: #1f77b4"/>
     <use xlink:href="#m7680ac4970" x="138.734386" y="229.776923" style="fill: #1f77b4; stroke: #1f77b4"/>
     <use xlink:href="#m7680ac4970" x="116.84127" y="259.967773" style="fill: #1f77b4; stroke: #1f77b4"/>
     <use xlink:href="#m7680ac4970" x="152.54471" y="245.04466" style="fill: #1f77b4; stroke: #1f77b4"/>
     <use xlink:href="#m7680ac4970" x="122.79346" y="231.541463" style="fill: #1f77b4; stroke: #1f77b4"/>
     <use xlink:href="#m7680ac4970" x="134.341615" y="225.93253" style="fill: #1f77b4; stroke: #1f77b4"/>
     <use xlink:href="#m7680ac4970" x="134.22673" y="228.093617" style="fill: #1f77b4; stroke: #1f77b4"/>
     <use xlink:href="#m7680ac4970" x="132.234501" y="241.2" style="fill: #1f77b4; stroke: #1f77b4"/>
     <use xlink:href="#m7680ac4970" x="124.714286" y="244.883721" style="fill: #1f77b4; stroke: #1f77b4"/>
     <use xlink:href="#m7680ac4970" x="158.238985" y="206.041121" style="fill: #1f77b4; stroke: #1f77b4"/>
     <use xlink:href="#m7680ac4970" x="131.863549" y="239.428188" style="fill: #1f77b4; stroke: #1f77b4"/>
     <use xlink:href="#m7680ac4970" x="124.714286" y="246.503571" style="fill: #1f77b4; stroke: #1f77b4"/>
     <use xlink:href="#m7680ac4970" x="124.714286" y="244.759551" style="fill: #1f77b4; stroke: #1f77b4"/>
     <use xlink:href="#m7680ac4970" x="142.428571" y="219.746275" style="fill: #1f77b4; stroke: #1f77b4"/>
     <use xlink:href="#m7680ac4970" x="135.111801" y="229.015385" style="fill: #1f77b4; stroke: #1f77b4"/>
     <use xlink:href="#m7680ac4970" x="111.02943" y="263.485714" style="fill: #1f77b4; stroke: #1f77b4"/>
     <use xlink:href="#m7680ac4970" x="129.935745" y="239.43608" style="fill: #1f77b4; stroke: #1f77b4"/>
     <use xlink:href="#m7680ac4970" x="122.985126" y="255.28" style="fill: #1f77b4; stroke: #1f77b4"/>
     <use xlink:href="#m7680ac4970" x="114.31677" y="246.575566" style="fill: #1f77b4; stroke: #1f77b4"/>
     <use xlink:href="#m7680ac4970" x="117.691001" y="257.436902" style="fill: #1f77b4; stroke: #1f77b4"/>
     <use xlink:href="#m7680ac4970" x="133.571429" y="220.939535" style="fill: #1f77b4; stroke: #1f77b4"/>
     <use xlink:href="#m7680ac4970" x="143.985871" y="223.240816" style="fill: #1f77b4; stroke: #1f77b4"/>
     <use xlink:href="#m7680ac4970" x="140.109749" y="235.931707" style="fill: #1f77b4; stroke: #1f77b4"/>
     <use xlink:href="#m7680ac4970" x="126.392481" y="228.988546" style="fill: #1f77b4; stroke: #1f77b4"/>
     <use xlink:href="#m7680ac4970" x="128.063625" y="224.019957" style="fill: #1f77b4; stroke: #1f77b4"/>
     <use xlink:href="#m7680ac4970" x="121.37896" y="249.607643" style="fill: #1f77b4; stroke: #1f77b4"/>
     <use xlink:href="#m7680ac4970" x="131.412965" y="231.002575" style="fill: #1f77b4; stroke: #1f77b4"/>
     <use xlink:href="#m7680ac4970" x="119.732143" y="249.589831" style="fill: #1f77b4; stroke: #1f77b4"/>
     <use xlink:href="#m7680ac4970" x="121.371968" y="251.375589" style="fill: #1f77b4; stroke: #1f77b4"/>
     <use xlink:href="#m7680ac4970" x="97.863158" y="287.586117" style="fill: #1f77b4; stroke: #1f77b4"/>
     <use xlink:href="#m7680ac4970" x="131.661064" y="230.250691" style="fill: #1f77b4; stroke: #1f77b4"/>
     <use xlink:href="#m7680ac4970" x="119.549213" y="246.6" style="fill: #1f77b4; stroke: #1f77b4"/>
     <use xlink:href="#m7680ac4970" x="128.180124" y="244.824714" style="fill: #1f77b4; stroke: #1f77b4"/>
     <use xlink:href="#m7680ac4970" x="135.06679" y="226.634483" style="fill: #1f77b4; stroke: #1f77b4"/>
     <use xlink:href="#m7680ac4970" x="134.934066" y="226.897517" style="fill: #1f77b4; stroke: #1f77b4"/>
     <use xlink:href="#m7680ac4970" x="126.396022" y="246.468293" style="fill: #1f77b4; stroke: #1f77b4"/>
     <use xlink:href="#m7680ac4970" x="131.427068" y="242.967857" style="fill: #1f77b4; stroke: #1f77b4"/>
     <use xlink:href="#m7680ac4970" x="118.05756" y="242.971812" style="fill: #1f77b4; stroke: #1f77b4"/>
     <use xlink:href="#m7680ac4970" x="126.392481" y="248.303139" style="fill: #1f77b4; stroke: #1f77b4"/>
     <use xlink:href="#m7680ac4970" x="124.714286" y="234.032579" style="fill: #1f77b4; stroke: #1f77b4"/>
     <use xlink:href="#m7680ac4970" x="128.063625" y="237.64843" style="fill: #1f77b4; stroke: #1f77b4"/>
     <use xlink:href="#m7680ac4970" x="118.043634" y="258.878571" style="fill: #1f77b4; stroke: #1f77b4"/>
     <use xlink:href="#m7680ac4970" x="111.260398" y="264.706849" style="fill: #1f77b4; stroke: #1f77b4"/>
     <use xlink:href="#m7680ac4970" x="129.846107" y="235.609412" style="fill: #1f77b4; stroke: #1f77b4"/>
     <use xlink:href="#m7680ac4970" x="138.311605" y="217.143925" style="fill: #1f77b4; stroke: #1f77b4"/>
     <use xlink:href="#m7680ac4970" x="118.02965" y="253.771429" style="fill: #1f77b4; stroke: #1f77b4"/>
     <use xlink:href="#m7680ac4970" x="114.602537" y="255.799078" style="fill: #1f77b4; stroke: #1f77b4"/>
     <use xlink:href="#m7680ac4970" x="131.542062" y="231.904225" style="fill: #1f77b4; stroke: #1f77b4"/>
     <use xlink:href="#m7680ac4970" x="126.406733" y="237.524826" style="fill: #1f77b4; stroke: #1f77b4"/>
     <use xlink:href="#m7680ac4970" x="129.780872" y="230.225404" style="fill: #1f77b4; stroke: #1f77b4"/>
     <use xlink:href="#m7680ac4970" x="106.254135" y="271.869704" style="fill: #1f77b4; stroke: #1f77b4"/>
     <use xlink:href="#m7680ac4970" x="124.714286" y="239.323223" style="fill: #1f77b4; stroke: #1f77b4"/>
     <use xlink:href="#m7680ac4970" x="126.432266" y="241.2" style="fill: #1f77b4; stroke: #1f77b4"/>
     <use xlink:href="#m7680ac4970" x="117.857143" y="252.434043" style="fill: #1f77b4; stroke: #1f77b4"/>
     <use xlink:href="#m7680ac4970" x="129.901766" y="226.005755" style="fill: #1f77b4; stroke: #1f77b4"/>
     <use xlink:href="#m7680ac4970" x="124.714286" y="241.2" style="fill: #1f77b4; stroke: #1f77b4"/>
     <use xlink:href="#m7680ac4970" x="117.842365" y="248.654118" style="fill: #1f77b4; stroke: #1f77b4"/>
     <use xlink:href="#m7680ac4970" x="131.645963" y="235.556295" style="fill: #1f77b4; stroke: #1f77b4"/>
     <use xlink:href="#m7680ac4970" x="128.150246" y="228.124528" style="fill: #1f77b4; stroke: #1f77b4"/>
     <use xlink:href="#m7680ac4970" x="140.109749" y="239.362413" style="fill: #1f77b4; stroke: #1f77b4"/>
     <use xlink:href="#m7680ac4970" x="118.001504" y="243.033333" style="fill: #1f77b4; stroke: #1f77b4"/>
     <use xlink:href="#m7680ac4970" x="124.714286" y="235.687239" style="fill: #1f77b4; stroke: #1f77b4"/>
     <use xlink:href="#m7680ac4970" x="128.099181" y="228.425806" style="fill: #1f77b4; stroke: #1f77b4"/>
    </g>
   </g>
   <g id="matplotlib.axis_1">
    <g id="xtick_1">
     <g id="line2d_1">
      <defs>
       <path id="m6d2262d595" d="M 0 0 
L 0 3.5 
" style="stroke: #000000; stroke-width: 0.8"/>
      </defs>
      <g>
       <use xlink:href="#m6d2262d595" x="45" y="320.4" style="stroke: #000000; stroke-width: 0.8"/>
      </g>
     </g>
     <g id="text_1">
      <!-- −0.10 -->
      <g transform="translate(29.677344 334.998438) scale(0.1 -0.1)">
       <defs>
        <path id="DejaVuSans-2212" d="M 678 2272 
L 4684 2272 
L 4684 1741 
L 678 1741 
L 678 2272 
z
" transform="scale(0.015625)"/>
        <path id="DejaVuSans-30" d="M 2034 4250 
Q 1547 4250 1301 3770 
Q 1056 3291 1056 2328 
Q 1056 1369 1301 889 
Q 1547 409 2034 409 
Q 2525 409 2770 889 
Q 3016 1369 3016 2328 
Q 3016 3291 2770 3770 
Q 2525 4250 2034 4250 
z
M 2034 4750 
Q 2819 4750 3233 4129 
Q 3647 3509 3647 2328 
Q 3647 1150 3233 529 
Q 2819 -91 2034 -91 
Q 1250 -91 836 529 
Q 422 1150 422 2328 
Q 422 3509 836 4129 
Q 1250 4750 2034 4750 
z
" transform="scale(0.015625)"/>
        <path id="DejaVuSans-2e" d="M 684 794 
L 1344 794 
L 1344 0 
L 684 0 
L 684 794 
z
" transform="scale(0.015625)"/>
        <path id="DejaVuSans-31" d="M 794 531 
L 1825 531 
L 1825 4091 
L 703 3866 
L 703 4441 
L 1819 4666 
L 2450 4666 
L 2450 531 
L 3481 531 
L 3481 0 
L 794 0 
L 794 531 
z
" transform="scale(0.015625)"/>
       </defs>
       <use xlink:href="#DejaVuSans-2212"/>
       <use xlink:href="#DejaVuSans-30" x="83.789062"/>
       <use xlink:href="#DejaVuSans-2e" x="147.412109"/>
       <use xlink:href="#DejaVuSans-31" x="179.199219"/>
       <use xlink:href="#DejaVuSans-30" x="242.822266"/>
      </g>
     </g>
    </g>
    <g id="xtick_2">
     <g id="line2d_2">
      <g>
       <use xlink:href="#m6d2262d595" x="84.857143" y="320.4" style="stroke: #000000; stroke-width: 0.8"/>
      </g>
     </g>
     <g id="text_2">
      <!-- −0.05 -->
      <g transform="translate(69.534487 334.998438) scale(0.1 -0.1)">
       <defs>
        <path id="DejaVuSans-35" d="M 691 4666 
L 3169 4666 
L 3169 4134 
L 1269 4134 
L 1269 2991 
Q 1406 3038 1543 3061 
Q 1681 3084 1819 3084 
Q 2600 3084 3056 2656 
Q 3513 2228 3513 1497 
Q 3513 744 3044 326 
Q 2575 -91 1722 -91 
Q 1428 -91 1123 -41 
Q 819 9 494 109 
L 494 744 
Q 775 591 1075 516 
Q 1375 441 1709 441 
Q 2250 441 2565 725 
Q 2881 1009 2881 1497 
Q 2881 1984 2565 2268 
Q 2250 2553 1709 2553 
Q 1456 2553 1204 2497 
Q 953 2441 691 2322 
L 691 4666 
z
" transform="scale(0.015625)"/>
       </defs>
       <use xlink:href="#DejaVuSans-2212"/>
       <use xlink:href="#DejaVuSans-30" x="83.789062"/>
       <use xlink:href="#DejaVuSans-2e" x="147.412109"/>
       <use xlink:href="#DejaVuSans-30" x="179.199219"/>
       <use xlink:href="#DejaVuSans-35" x="242.822266"/>
      </g>
     </g>
    </g>
    <g id="xtick_3">
     <g id="line2d_3">
      <g>
       <use xlink:href="#m6d2262d595" x="124.714286" y="320.4" style="stroke: #000000; stroke-width: 0.8"/>
      </g>
     </g>
     <g id="text_3">
      <!-- 0.00 -->
      <g transform="translate(113.581473 334.998438) scale(0.1 -0.1)">
       <use xlink:href="#DejaVuSans-30"/>
       <use xlink:href="#DejaVuSans-2e" x="63.623047"/>
       <use xlink:href="#DejaVuSans-30" x="95.410156"/>
       <use xlink:href="#DejaVuSans-30" x="159.033203"/>
      </g>
     </g>
    </g>
    <g id="xtick_4">
     <g id="line2d_4">
      <g>
       <use xlink:href="#m6d2262d595" x="164.571429" y="320.4" style="stroke: #000000; stroke-width: 0.8"/>
      </g>
     </g>
     <g id="text_4">
      <!-- 0.05 -->
      <g transform="translate(153.438616 334.998438) scale(0.1 -0.1)">
       <use xlink:href="#DejaVuSans-30"/>
       <use xlink:href="#DejaVuSans-2e" x="63.623047"/>
       <use xlink:href="#DejaVuSans-30" x="95.410156"/>
       <use xlink:href="#DejaVuSans-35" x="159.033203"/>
      </g>
     </g>
    </g>
    <g id="xtick_5">
     <g id="line2d_5">
      <g>
       <use xlink:href="#m6d2262d595" x="204.428571" y="320.4" style="stroke: #000000; stroke-width: 0.8"/>
      </g>
     </g>
     <g id="text_5">
      <!-- 0.10 -->
      <g transform="translate(193.295759 334.998438) scale(0.1 -0.1)">
       <use xlink:href="#DejaVuSans-30"/>
       <use xlink:href="#DejaVuSans-2e" x="63.623047"/>
       <use xlink:href="#DejaVuSans-31" x="95.410156"/>
       <use xlink:href="#DejaVuSans-30" x="159.033203"/>
      </g>
     </g>
    </g>
    <g id="xtick_6">
     <g id="line2d_6">
      <g>
       <use xlink:href="#m6d2262d595" x="244.285714" y="320.4" style="stroke: #000000; stroke-width: 0.8"/>
      </g>
     </g>
     <g id="text_6">
      <!-- 0.15 -->
      <g transform="translate(233.152902 334.998438) scale(0.1 -0.1)">
       <use xlink:href="#DejaVuSans-30"/>
       <use xlink:href="#DejaVuSans-2e" x="63.623047"/>
       <use xlink:href="#DejaVuSans-31" x="95.410156"/>
       <use xlink:href="#DejaVuSans-35" x="159.033203"/>
      </g>
     </g>
    </g>
    <g id="xtick_7">
     <g id="line2d_7">
      <g>
       <use xlink:href="#m6d2262d595" x="284.142857" y="320.4" style="stroke: #000000; stroke-width: 0.8"/>
      </g>
     </g>
     <g id="text_7">
      <!-- 0.20 -->
      <g transform="translate(273.010045 334.998438) scale(0.1 -0.1)">
       <defs>
        <path id="DejaVuSans-32" d="M 1228 531 
L 3431 531 
L 3431 0 
L 469 0 
L 469 531 
Q 828 903 1448 1529 
Q 2069 2156 2228 2338 
Q 2531 2678 2651 2914 
Q 2772 3150 2772 3378 
Q 2772 3750 2511 3984 
Q 2250 4219 1831 4219 
Q 1534 4219 1204 4116 
Q 875 4013 500 3803 
L 500 4441 
Q 881 4594 1212 4672 
Q 1544 4750 1819 4750 
Q 2544 4750 2975 4387 
Q 3406 4025 3406 3419 
Q 3406 3131 3298 2873 
Q 3191 2616 2906 2266 
Q 2828 2175 2409 1742 
Q 1991 1309 1228 531 
z
" transform="scale(0.015625)"/>
       </defs>
       <use xlink:href="#DejaVuSans-30"/>
       <use xlink:href="#DejaVuSans-2e" x="63.623047"/>
       <use xlink:href="#DejaVuSans-32" x="95.410156"/>
       <use xlink:href="#DejaVuSans-30" x="159.033203"/>
      </g>
     </g>
    </g>
    <g id="xtick_8">
     <g id="line2d_8">
      <g>
       <use xlink:href="#m6d2262d595" x="324" y="320.4" style="stroke: #000000; stroke-width: 0.8"/>
      </g>
     </g>
     <g id="text_8">
      <!-- 0.25 -->
      <g transform="translate(312.867188 334.998438) scale(0.1 -0.1)">
       <use xlink:href="#DejaVuSans-30"/>
       <use xlink:href="#DejaVuSans-2e" x="63.623047"/>
       <use xlink:href="#DejaVuSans-32" x="95.410156"/>
       <use xlink:href="#DejaVuSans-35" x="159.033203"/>
      </g>
     </g>
    </g>
    <g id="text_9">
     <!-- 1 yr -->
     <g transform="translate(174.714844 348.676562) scale(0.1 -0.1)">
      <defs>
       <path id="DejaVuSans-20" transform="scale(0.015625)"/>
       <path id="DejaVuSans-79" d="M 2059 -325 
Q 1816 -950 1584 -1140 
Q 1353 -1331 966 -1331 
L 506 -1331 
L 506 -850 
L 844 -850 
Q 1081 -850 1212 -737 
Q 1344 -625 1503 -206 
L 1606 56 
L 191 3500 
L 800 3500 
L 1894 763 
L 2988 3500 
L 3597 3500 
L 2059 -325 
z
" transform="scale(0.015625)"/>
       <path id="DejaVuSans-72" d="M 2631 2963 
Q 2534 3019 2420 3045 
Q 2306 3072 2169 3072 
Q 1681 3072 1420 2755 
Q 1159 2438 1159 1844 
L 1159 0 
L 581 0 
L 581 3500 
L 1159 3500 
L 1159 2956 
Q 1341 3275 1631 3429 
Q 1922 3584 2338 3584 
Q 2397 3584 2469 3576 
Q 2541 3569 2628 3553 
L 2631 2963 
z
" transform="scale(0.015625)"/>
      </defs>
      <use xlink:href="#DejaVuSans-31"/>
      <use xlink:href="#DejaVuSans-20" x="63.623047"/>
      <use xlink:href="#DejaVuSans-79" x="95.410156"/>
      <use xlink:href="#DejaVuSans-72" x="154.589844"/>
     </g>
    </g>
   </g>
   <g id="matplotlib.axis_2">
    <g id="ytick_1">
     <g id="line2d_9">
      <defs>
       <path id="m10c48018f7" d="M 0 0 
L -3.5 0 
" style="stroke: #000000; stroke-width: 0.8"/>
      </defs>
      <g>
       <use xlink:href="#m10c48018f7" x="45" y="320.4" style="stroke: #000000; stroke-width: 0.8"/>
      </g>
     </g>
     <g id="text_10">
      <!-- −0.10 -->
      <g transform="translate(7.354687 324.199219) scale(0.1 -0.1)">
       <use xlink:href="#DejaVuSans-2212"/>
       <use xlink:href="#DejaVuSans-30" x="83.789062"/>
       <use xlink:href="#DejaVuSans-2e" x="147.412109"/>
       <use xlink:href="#DejaVuSans-31" x="179.199219"/>
       <use xlink:href="#DejaVuSans-30" x="242.822266"/>
      </g>
     </g>
    </g>
    <g id="ytick_2">
     <g id="line2d_10">
      <g>
       <use xlink:href="#m10c48018f7" x="45" y="280.8" style="stroke: #000000; stroke-width: 0.8"/>
      </g>
     </g>
     <g id="text_11">
      <!-- −0.05 -->
      <g transform="translate(7.354687 284.599219) scale(0.1 -0.1)">
       <use xlink:href="#DejaVuSans-2212"/>
       <use xlink:href="#DejaVuSans-30" x="83.789062"/>
       <use xlink:href="#DejaVuSans-2e" x="147.412109"/>
       <use xlink:href="#DejaVuSans-30" x="179.199219"/>
       <use xlink:href="#DejaVuSans-35" x="242.822266"/>
      </g>
     </g>
    </g>
    <g id="ytick_3">
     <g id="line2d_11">
      <g>
       <use xlink:href="#m10c48018f7" x="45" y="241.2" style="stroke: #000000; stroke-width: 0.8"/>
      </g>
     </g>
     <g id="text_12">
      <!-- 0.00 -->
      <g transform="translate(15.734375 244.999219) scale(0.1 -0.1)">
       <use xlink:href="#DejaVuSans-30"/>
       <use xlink:href="#DejaVuSans-2e" x="63.623047"/>
       <use xlink:href="#DejaVuSans-30" x="95.410156"/>
       <use xlink:href="#DejaVuSans-30" x="159.033203"/>
      </g>
     </g>
    </g>
    <g id="ytick_4">
     <g id="line2d_12">
      <g>
       <use xlink:href="#m10c48018f7" x="45" y="201.6" style="stroke: #000000; stroke-width: 0.8"/>
      </g>
     </g>
     <g id="text_13">
      <!-- 0.05 -->
      <g transform="translate(15.734375 205.399219) scale(0.1 -0.1)">
       <use xlink:href="#DejaVuSans-30"/>
       <use xlink:href="#DejaVuSans-2e" x="63.623047"/>
       <use xlink:href="#DejaVuSans-30" x="95.410156"/>
       <use xlink:href="#DejaVuSans-35" x="159.033203"/>
      </g>
     </g>
    </g>
    <g id="ytick_5">
     <g id="line2d_13">
      <g>
       <use xlink:href="#m10c48018f7" x="45" y="162" style="stroke: #000000; stroke-width: 0.8"/>
      </g>
     </g>
     <g id="text_14">
      <!-- 0.10 -->
      <g transform="translate(15.734375 165.799219) scale(0.1 -0.1)">
       <use xlink:href="#DejaVuSans-30"/>
       <use xlink:href="#DejaVuSans-2e" x="63.623047"/>
       <use xlink:href="#DejaVuSans-31" x="95.410156"/>
       <use xlink:href="#DejaVuSans-30" x="159.033203"/>
      </g>
     </g>
    </g>
    <g id="ytick_6">
     <g id="line2d_14">
      <g>
       <use xlink:href="#m10c48018f7" x="45" y="122.4" style="stroke: #000000; stroke-width: 0.8"/>
      </g>
     </g>
     <g id="text_15">
      <!-- 0.15 -->
      <g transform="translate(15.734375 126.199219) scale(0.1 -0.1)">
       <use xlink:href="#DejaVuSans-30"/>
       <use xlink:href="#DejaVuSans-2e" x="63.623047"/>
       <use xlink:href="#DejaVuSans-31" x="95.410156"/>
       <use xlink:href="#DejaVuSans-35" x="159.033203"/>
      </g>
     </g>
    </g>
    <g id="ytick_7">
     <g id="line2d_15">
      <g>
       <use xlink:href="#m10c48018f7" x="45" y="82.8" style="stroke: #000000; stroke-width: 0.8"/>
      </g>
     </g>
     <g id="text_16">
      <!-- 0.20 -->
      <g transform="translate(15.734375 86.599219) scale(0.1 -0.1)">
       <use xlink:href="#DejaVuSans-30"/>
       <use xlink:href="#DejaVuSans-2e" x="63.623047"/>
       <use xlink:href="#DejaVuSans-32" x="95.410156"/>
       <use xlink:href="#DejaVuSans-30" x="159.033203"/>
      </g>
     </g>
    </g>
    <g id="ytick_8">
     <g id="line2d_16">
      <g>
       <use xlink:href="#m10c48018f7" x="45" y="43.2" style="stroke: #000000; stroke-width: 0.8"/>
      </g>
     </g>
     <g id="text_17">
      <!-- 0.25 -->
      <g transform="translate(15.734375 46.999219) scale(0.1 -0.1)">
       <use xlink:href="#DejaVuSans-30"/>
       <use xlink:href="#DejaVuSans-2e" x="63.623047"/>
       <use xlink:href="#DejaVuSans-32" x="95.410156"/>
       <use xlink:href="#DejaVuSans-35" x="159.033203"/>
      </g>
     </g>
    </g>
    <g id="text_18">
     <!-- 2 yr -->
     <g transform="translate(1.275 191.585156) rotate(-90) scale(0.1 -0.1)">
      <use xlink:href="#DejaVuSans-32"/>
      <use xlink:href="#DejaVuSans-20" x="63.623047"/>
      <use xlink:href="#DejaVuSans-79" x="95.410156"/>
      <use xlink:href="#DejaVuSans-72" x="154.589844"/>
     </g>
    </g>
   </g>
   <g id="patch_3">
    <path d="M 45 320.4 
L 45 43.2 
" style="fill: none; stroke: #000000; stroke-width: 0.8; stroke-linejoin: miter; stroke-linecap: square"/>
   </g>
   <g id="patch_4">
    <path d="M 324 320.4 
L 324 43.2 
" style="fill: none; stroke: #000000; stroke-width: 0.8; stroke-linejoin: miter; stroke-linecap: square"/>
   </g>
   <g id="patch_5">
    <path d="M 45 320.4 
L 324 320.4 
" style="fill: none; stroke: #000000; stroke-width: 0.8; stroke-linejoin: miter; stroke-linecap: square"/>
   </g>
   <g id="patch_6">
    <path d="M 45 43.2 
L 324 43.2 
" style="fill: none; stroke: #000000; stroke-width: 0.8; stroke-linejoin: miter; stroke-linecap: square"/>
   </g>
  </g>
 </g>
 <defs>
  <clipPath id="pcd53fbaf81">
   <rect x="45" y="43.2" width="279" height="277.2"/>
  </clipPath>
 </defs>
</svg>
